<svg width="24" height="24" viewBox="0 0 24 24" fill="none" xmlns="http://www.w3.org/2000/svg">
<path d="M12 13.9999C11.4478 13.9999 11 13.5522 11 12.9999V9.99988C11 9.4476 11.4478 8.99988 12 8.99988C12.5523 8.99988 13 9.4476 13 9.99988V12.9999C13 13.5522 12.5523 13.9999 12 13.9999Z" fill="#524D1D"/>
<path d="M10.5 16.4999C10.5 15.6715 11.1716 14.9999 12 14.9999C12.8285 14.9999 13.5 15.6715 13.5 16.4999C13.5 17.3283 12.8285 17.9999 12 17.9999C11.1716 17.9999 10.5 17.3283 10.5 16.4999Z" fill="#524D1D"/>
<path d="M10.2302 3.21548C10.98 1.79081 13.0201 1.7908 13.7699 3.21548L22.1135 19.0684C22.8145 20.4002 21.8487 21.9999 20.3437 21.9999H3.65641C2.15139 21.9999 1.18562 20.4002 1.88658 19.0684L10.2302 3.21548ZM20.3437 19.9999L12 4.14697L3.65641 19.9999L20.3437 19.9999Z" fill="#524D1D"/>
</svg>
