<svg width="10" height="7" viewBox="0 0 10 7" fill="none" xmlns="http://www.w3.org/2000/svg">
<path d="M9.48551 5.8962L9.48552 5.89621C9.50483 5.91552 9.50483 5.94701 9.48552 5.96632L8.96638 6.48546C8.94716 6.50468 8.91589 6.50493 8.89629 6.48549C8.89627 6.48547 8.89625 6.48545 8.89624 6.48543L5.35285 2.95831L5.00014 2.60721L4.6474 2.95829L1.10365 6.48531L1.10357 6.48539C1.08426 6.50463 1.0531 6.50471 1.03362 6.48523L0.514481 5.96609C0.495175 5.94679 0.495172 5.9153 0.514472 5.89599C0.514475 5.89599 0.514478 5.89598 0.514481 5.89598L4.96505 1.44564L4.96506 1.44563C4.98437 1.42632 5.01586 1.42632 5.03517 1.44563L9.48551 5.8962Z" fill="white" stroke="#607697"/>
</svg>
