<svg width="22" height="11" viewBox="0 0 22 11" fill="none" xmlns="http://www.w3.org/2000/svg">
<g clip-path="url(#clip0)">
<path d="M0.859374 4.61298H19.0591L16.0443 1.51594C15.7079 1.17033 15.7066 0.608666 16.0414 0.261412C16.3762 -0.0858866 16.9204 -0.0871725 17.2568 0.258396L21.7472 4.8713C21.7475 4.87157 21.7477 4.87188 21.7479 4.87214C22.0835 5.21775 22.0845 5.78124 21.748 6.128C21.7477 6.12827 21.7475 6.12858 21.7472 6.12885L17.2568 10.7417C16.9205 11.0873 16.3763 11.0861 16.0415 10.7387C15.7067 10.3915 15.7079 9.82981 16.0443 9.4842L19.0591 6.38717H0.859374C0.384741 6.38717 -4.76826e-07 5.99002 -4.76826e-07 5.50007C-4.76826e-07 5.01013 0.384741 4.61298 0.859374 4.61298Z" fill="white"/>
</g>
<defs>
<clipPath id="clip0">
<rect width="22" height="11" fill="white" transform="matrix(-1 0 0 1 22 0)"/>
</clipPath>
</defs>
</svg>
