<svg width="10" height="7" viewBox="0 0 10 7" fill="none" xmlns="http://www.w3.org/2000/svg">
<path d="M0.514491 2.03495L0.514482 2.03494C0.495172 2.01563 0.495173 1.98414 0.514481 1.96483L1.03362 1.44569C1.05284 1.42647 1.08411 1.42622 1.10371 1.44567C1.10373 1.44568 1.10375 1.4457 1.10376 1.44572L4.64715 4.97284L4.99986 5.32394L5.3526 4.97287L8.89635 1.44584L8.89643 1.44576C8.91574 1.42653 8.9469 1.42644 8.96638 1.44592L9.48552 1.96506C9.50482 1.98436 9.50483 2.01585 9.48553 2.03516C9.48552 2.03516 9.48552 2.03517 9.48552 2.03517L5.03495 6.48551L5.03494 6.48552C5.01563 6.50483 4.98414 6.50483 4.96483 6.48552L0.514491 2.03495Z" fill="white" stroke="#607697"/>
</svg>
