<svg width="16" height="16" viewBox="0 0 16 16" fill="none" xmlns="http://www.w3.org/2000/svg">
<path d="M8.00016 2.66659C5.05464 2.66659 2.66683 5.0544 2.66683 7.99992C2.66683 10.9454 5.05464 13.3333 8.00016 13.3333C10.9457 13.3333 13.3335 10.9454 13.3335 7.99992C13.3335 5.0544 10.9457 2.66659 8.00016 2.66659ZM1.3335 7.99992C1.3335 4.31802 4.31826 1.33325 8.00016 1.33325C11.6821 1.33325 14.6668 4.31802 14.6668 7.99992C14.6668 11.6818 11.6821 14.6666 8.00016 14.6666C4.31826 14.6666 1.3335 11.6818 1.3335 7.99992Z" fill="#209CE3"/>
<path d="M8.00016 6.66659C8.36835 6.66659 8.66683 6.96506 8.66683 7.33325V11.3333C8.66683 11.7014 8.36835 11.9999 8.00016 11.9999C7.63197 11.9999 7.3335 11.7014 7.3335 11.3333V7.33325C7.3335 6.96506 7.63197 6.66659 8.00016 6.66659Z" fill="#209CE3"/>
<path d="M9.00016 4.99992C9.00016 5.5522 8.55245 5.99992 8.00016 5.99992C7.44788 5.99992 7.00016 5.5522 7.00016 4.99992C7.00016 4.44763 7.44788 3.99992 8.00016 3.99992C8.55245 3.99992 9.00016 4.44763 9.00016 4.99992Z" fill="#209CE3"/>
</svg>
