<svg width="16" height="16" viewBox="0 0 16 16" fill="none" xmlns="http://www.w3.org/2000/svg">
<path fill-rule="evenodd" clip-rule="evenodd" d="M7.99992 1.33325C4.31802 1.33325 1.33325 4.31802 1.33325 7.99992C1.33325 11.6818 4.31802 14.6666 7.99992 14.6666C11.6818 14.6666 14.6666 11.6818 14.6666 7.99992C14.6666 4.31802 11.6818 1.33325 7.99992 1.33325ZM11.1649 6.77617C11.4095 6.50098 11.3847 6.0796 11.1095 5.83499C10.8343 5.59037 10.4129 5.61516 10.1683 5.89035L7.11104 9.32979L5.83153 7.89035C5.58692 7.61516 5.16554 7.59037 4.89035 7.83499C4.61516 8.0796 4.59037 8.50098 4.83499 8.77617L6.61276 10.7762C6.73928 10.9185 6.92061 10.9999 7.11104 10.9999C7.30146 10.9999 7.4828 10.9185 7.60931 10.7762L11.1649 6.77617Z" fill="#B6CDE2"/>
</svg>
