<svg width="18" height="18" viewBox="0 0 18 18" fill="none" xmlns="http://www.w3.org/2000/svg">
<path fill-rule="evenodd" clip-rule="evenodd" d="M9 1.5C4.85786 1.5 1.5 4.85786 1.5 9C1.5 13.1421 4.85786 16.5 9 16.5C13.1421 16.5 16.5 13.1421 16.5 9C16.5 4.85786 13.1421 1.5 9 1.5ZM6.90533 5.84467C6.61244 5.55178 6.13756 5.55178 5.84467 5.84467C5.55178 6.13756 5.55178 6.61244 5.84467 6.90533L7.93934 9L5.84467 11.0947C5.55178 11.3876 5.55178 11.8624 5.84467 12.1553C6.13756 12.4482 6.61244 12.4482 6.90533 12.1553L9 10.0607L11.0947 12.1553C11.3876 12.4482 11.8624 12.4482 12.1553 12.1553C12.4482 11.8624 12.4482 11.3876 12.1553 11.0947L10.0607 9L12.1553 6.90533C12.4482 6.61244 12.4482 6.13756 12.1553 5.84467C11.8624 5.55178 11.3876 5.55178 11.0947 5.84467L9 7.93934L6.90533 5.84467Z" fill="white"/>
</svg>
