<svg width="25" height="25" viewBox="0 0 25 25" fill="none" xmlns="http://www.w3.org/2000/svg">
<path d="M14.8955 12L17.7384 9.1571C18.0872 8.80824 18.0872 8.24261 17.7384 7.89347L17.1065 7.26165C16.7577 6.91278 16.192 6.91278 15.8429 7.26165L13 10.1045L10.1571 7.26165C9.80824 6.91278 9.24261 6.91278 8.89347 7.26165L8.26165 7.89347C7.91278 8.24233 7.91278 8.80795 8.26165 9.1571L11.1045 12L8.26165 14.8429C7.91278 15.1918 7.91278 15.7574 8.26165 16.1065L8.89347 16.7384C9.24233 17.0872 9.80824 17.0872 10.1571 16.7384L13 13.8955L15.8429 16.7384C16.1918 17.0872 16.7577 17.0872 17.1065 16.7384L17.7384 16.1065C18.0872 15.7577 18.0872 15.192 17.7384 14.8429L14.8955 12Z" fill="#B6CDE2"/>
</svg>
