<svg width="24" height="24" viewBox="0 0 24 24" fill="none" xmlns="http://www.w3.org/2000/svg">
<path fill-rule="evenodd" clip-rule="evenodd" d="M11.3617 8.29788V0.638306H13.4043V8.29788H11.3617ZM9.1058 10.1919L3.38665 4.83017L4.78363 3.34006L10.5028 8.70176L9.1058 10.1919ZM13.8408 8.84276L18.6918 4.11936L20.1167 5.58279L15.2657 10.3062L13.8408 8.84276ZM8.80854 12.8936H0.765991V10.8511H8.80854V12.8936ZM23.1064 12.8936H15.4468V10.8511H23.1064V12.8936ZM19.7271 20.1493L14.0079 14.7876L15.4049 13.2975L21.1241 18.6592L19.7271 20.1493ZM4.35803 18.7093L9.33675 13.3476L10.8335 14.7375L5.8548 20.0992L4.35803 18.7093ZM11.3617 23.3617V15.3192H13.4043V23.3617H11.3617Z" fill="#E76100"/>
<path d="M12 2.4C6.69807 2.4 2.4 6.69807 2.4 12C2.4 17.3019 6.69807 21.6 12 21.6C17.3019 21.6 21.6 17.3019 21.6 12C21.6 6.69807 17.3019 2.4 12 2.4ZM0 12C0 5.37258 5.37258 0 12 0C18.6274 0 24 5.37258 24 12C24 18.6274 18.6274 24 12 24C5.37258 24 0 18.6274 0 12Z" fill="#E76100"/>
<path fill-rule="evenodd" clip-rule="evenodd" d="M12.1277 14.0425C13.3263 14.0425 14.2979 13.0709 14.2979 11.8723C14.2979 10.6737 13.3263 9.7021 12.1277 9.7021C10.9291 9.7021 9.95747 10.6737 9.95747 11.8723C9.95747 13.0709 10.9291 14.0425 12.1277 14.0425ZM12.1277 16.0851C14.4543 16.0851 16.3404 14.199 16.3404 11.8723C16.3404 9.54567 14.4543 7.65955 12.1277 7.65955C9.80104 7.65955 7.91492 9.54567 7.91492 11.8723C7.91492 14.199 9.80104 16.0851 12.1277 16.0851Z" fill="#E76100"/>
</svg>
