<svg width="9" height="14" viewBox="0 0 9 14" fill="none" xmlns="http://www.w3.org/2000/svg">
<path d="M4.07273 14C4.77563 14 5.34545 13.4302 5.34545 12.7273C5.34545 12.0244 4.77563 11.4545 4.07273 11.4545C3.36982 11.4545 2.8 12.0244 2.8 12.7273C2.8 13.4302 3.36982 14 4.07273 14Z" fill="white"/>
<path d="M4.07273 0C1.82703 0 0 1.82703 0 4.07273C0 4.63507 0.45584 5.09091 1.01818 5.09091C1.58052 5.09091 2.03636 4.63507 2.03636 4.07273C2.03636 2.94988 2.94988 2.03636 4.07273 2.03636C5.19558 2.03636 6.10909 2.94988 6.10909 4.07273C6.10909 5.19558 5.19558 6.10909 4.07273 6.10909C3.51039 6.10909 3.05455 6.56493 3.05455 7.12727V9.67273C3.05455 10.2351 3.51039 10.6909 4.07273 10.6909C4.63507 10.6909 5.09091 10.2351 5.09091 9.67273V8.0166C6.84554 7.56336 8.14545 5.967 8.14545 4.07273C8.14545 1.82703 6.31843 0 4.07273 0Z" fill="white"/>
</svg>
