<svg width="352" height="179" viewBox="0 0 352 179" fill="none" xmlns="http://www.w3.org/2000/svg">
<path d="M150.01 174L41 146.21L125.586 114L235 140.503L150.01 174Z" fill="#D8E0F0"/>
<path d="M80.9144 179L0 158.158L62.7854 134L144 153.877L80.9144 179Z" fill="#D8E0F0"/>
<path d="M151.737 169.47L114.523 160.678L193.268 130.363L230.858 137.944L151.737 169.47Z" fill="#F87C22"/>
<path d="M195.237 67.0049L193.418 130.513L193.383 130.522L114.75 160.678C114.75 160.678 74.2794 110.503 75.1877 108.995C76.0959 107.475 134.913 61.0941 134.913 61.0941L135.113 61.1118L195.237 67.0049Z" fill="#F87C22"/>
<path d="M195.237 67.0049L193.418 130.513L193.383 130.522L135.327 118.274L135.113 61.1117L195.237 67.0049Z" fill="#E76100"/>
<path d="M135.213 59.8801L135.515 118.388L73.674 139.61L90.6509 85.6483L135.213 59.8801Z" fill="#F87C22"/>
<path d="M114.75 92.015V160.678L57.4553 145.218L57.2996 122.727L57.1732 105.109L56.9998 80.6461L114.75 92.015Z" fill="#FCBD8F"/>
<path d="M134.305 57L56.9999 80.6461L114.75 92.015L195.238 67.0051L134.305 57Z" fill="#FFE8D7"/>
<path opacity="0.69" d="M80.1814 114.274C80.1814 114.274 79.6612 115.135 79.8375 115.832C80.0139 116.528 80.1814 116.869 79.6612 117.907C79.1409 118.944 79.6612 117.907 79.3173 118.768C78.9734 119.641 79.4936 119.982 79.8375 120.678C80.1814 121.363 80.1814 122.401 80.0139 123.097C79.8375 123.794 79.4936 125.349 79.6612 126.037C79.8375 126.733 80.1814 129.329 80.1814 129.329L57.3436 122.339L57.1996 102.229L81.2219 109.257C81.2219 109.26 80.878 112.716 80.1814 114.274Z" fill="#FFE8D7"/>
<path d="M114.75 160.678L144.195 151.811L145.332 84.0555L114.75 92.0149V160.678Z" fill="#FFA361"/>
<path d="M194.785 67.0052L232.187 64.8449L230.367 130.213L193.307 130.478L194.785 67.0052Z" fill="#FFA361"/>
<path d="M131.236 134.078L211.38 104.859L195.238 67.0051L114.75 92.015L131.236 134.078Z" fill="#FCBD8F"/>
<path d="M290.793 83.4712C324.597 83.4712 352 64.7855 352 41.7356C352 18.6857 324.597 0 290.793 0C256.99 0 229.587 18.6857 229.587 41.7356C229.587 64.7855 256.99 83.4712 290.793 83.4712Z" fill="white"/>
<path d="M279.903 57.0874H276.71V62.5834H271.231V57.0874H259.911V53.1878L271.539 36.064H276.71V52.7346H279.903V57.0874ZM271.231 52.7346V48.2364C271.231 47.4855 271.261 46.3965 271.322 44.9726C271.383 43.5453 271.431 42.7167 271.468 42.4867H271.322C270.876 43.4777 270.338 44.445 269.709 45.3886L264.849 52.7346H271.231Z" fill="#607697"/>
<path d="M300.365 49.3217C300.365 53.9552 299.607 57.3813 298.089 59.6068C296.57 61.8322 294.233 62.9449 291.078 62.9449C288.017 62.9449 285.71 61.795 284.158 59.4985C282.605 57.2021 281.827 53.8098 281.827 49.3217C281.827 44.6408 282.582 41.191 284.097 38.9723C285.609 36.7537 287.936 35.6443 291.081 35.6443C294.142 35.6443 296.452 36.8044 298.021 39.1279C299.58 41.4515 300.365 44.8471 300.365 49.3217ZM287.394 49.3217C287.394 52.5753 287.675 54.9056 288.237 56.316C288.798 57.7263 289.745 58.4298 291.074 58.4298C292.38 58.4298 293.323 57.7162 293.905 56.2889C294.487 54.8616 294.774 52.5415 294.774 49.3217C294.774 46.0681 294.48 43.731 293.895 42.3105C293.31 40.89 292.37 40.1798 291.074 40.1798C289.755 40.1798 288.812 40.89 288.243 42.3105C287.679 43.7344 287.394 46.0715 287.394 49.3217Z" fill="#607697"/>
<path d="M322.315 57.0874H319.122V62.5834H313.643V57.0874H302.323V53.1878L313.951 36.064H319.122V52.7346H322.315V57.0874V57.0874ZM313.643 52.7346V48.2364C313.643 47.4855 313.673 46.3965 313.734 44.9726C313.795 43.5453 313.843 42.7167 313.88 42.4867H313.734C313.288 43.4777 312.75 44.445 312.121 45.3886L307.261 52.7346H313.643Z" fill="#607697"/>
<path d="M276.348 22.772C276.348 24.5815 275.898 25.9715 275.002 26.9456C274.106 27.9163 272.817 28.4033 271.143 28.4033C269.469 28.4033 268.184 27.9163 267.284 26.9456C266.388 25.9749 265.938 24.5781 265.938 22.7585C265.938 20.9389 266.388 19.5489 267.288 18.5917C268.187 17.6312 269.476 17.1509 271.157 17.1509C272.838 17.1509 274.123 17.6346 275.012 18.6019C275.902 19.5658 276.348 20.9592 276.348 22.772ZM268.37 22.772C268.37 23.993 268.603 24.9129 269.067 25.5319C269.53 26.1508 270.223 26.4586 271.147 26.4586C272.997 26.4586 273.92 25.2309 273.92 22.772C273.92 20.3098 273 19.0787 271.16 19.0787C270.237 19.0787 269.543 19.3899 269.073 20.0088C268.603 20.6311 268.37 21.5511 268.37 22.772Z" fill="#607697"/>
<path d="M286.032 24.0571C286.032 25.4167 285.673 26.4821 284.956 27.2498C284.239 28.0176 283.238 28.3997 281.956 28.3997C281.155 28.3997 280.448 28.2239 279.832 27.8721C279.22 27.5204 278.747 27.0164 278.419 26.3569C278.09 25.6974 277.925 24.933 277.925 24.0537C277.925 22.6873 278.28 21.6253 278.994 20.8677C279.707 20.1101 280.708 19.7313 282 19.7313C282.802 19.7313 283.512 19.9072 284.124 20.2555C284.736 20.6039 285.21 21.1045 285.538 21.7572C285.866 22.4167 286.032 23.1811 286.032 24.0571ZM280.252 24.0571C280.252 24.8857 280.387 25.5114 280.661 25.9342C280.931 26.3569 281.375 26.57 281.987 26.57C282.595 26.57 283.032 26.3603 283.299 25.9375C283.566 25.5148 283.698 24.8891 283.698 24.0571C283.698 23.2284 283.563 22.6095 283.296 22.1969C283.028 21.7843 282.585 21.5746 281.973 21.5746C281.364 21.5746 280.925 21.7809 280.658 22.1901C280.387 22.6027 280.252 23.2251 280.252 24.0571Z" fill="#607697"/>
<path d="M292.505 28.4032C291.524 28.4032 290.753 28.0481 290.195 27.3344H290.077C290.158 28.0311 290.195 28.437 290.195 28.5452V31.9308H287.915V19.8937H289.769L290.09 20.9794H290.195C290.729 20.1508 291.517 19.7381 292.566 19.7381C293.553 19.7381 294.325 20.1203 294.883 20.8813C295.441 21.6423 295.721 22.7043 295.721 24.0605C295.721 24.9534 295.59 25.7279 295.329 26.3874C295.069 27.0469 294.693 27.5475 294.213 27.8891C293.726 28.2307 293.158 28.4032 292.505 28.4032ZM291.832 21.5611C291.271 21.5611 290.858 21.7336 290.598 22.082C290.337 22.4269 290.205 23.0019 290.195 23.7967V24.0436C290.195 24.9399 290.327 25.5825 290.594 25.9714C290.861 26.3604 291.284 26.5532 291.862 26.5532C292.884 26.5532 293.395 25.711 293.395 24.0267C293.395 23.2048 293.269 22.5859 293.016 22.1767C292.765 21.7674 292.37 21.5611 291.832 21.5611Z" fill="#607697"/>
<path d="M303.436 25.7687C303.436 26.6244 303.139 27.2805 302.543 27.727C301.948 28.1768 301.055 28.4 299.872 28.4C299.263 28.4 298.745 28.3594 298.316 28.2749C297.886 28.1937 297.487 28.0719 297.112 27.913V26.0291C297.534 26.2287 298.011 26.3944 298.542 26.5297C299.073 26.665 299.54 26.7326 299.946 26.7326C300.775 26.7326 301.187 26.4925 301.187 26.0156C301.187 25.8363 301.133 25.6909 301.021 25.5793C300.913 25.4677 300.724 25.3392 300.453 25.1971C300.183 25.0551 299.824 24.8893 299.378 24.6999C298.735 24.4294 298.262 24.1825 297.961 23.9525C297.66 23.7225 297.44 23.4587 297.301 23.1644C297.162 22.8668 297.095 22.5015 297.095 22.0686C297.095 21.3246 297.382 20.753 297.957 20.3437C298.532 19.9379 299.351 19.735 300.406 19.735C301.414 19.735 302.391 19.9548 303.345 20.3945L302.658 22.0382C302.239 21.8589 301.847 21.7135 301.485 21.5985C301.12 21.4835 300.751 21.426 300.372 21.426C299.699 21.426 299.364 21.6087 299.364 21.9705C299.364 22.1735 299.472 22.3527 299.689 22.5015C299.905 22.6504 300.379 22.8736 301.113 23.1678C301.766 23.4316 302.246 23.6785 302.55 23.9085C302.855 24.1385 303.078 24.4023 303.223 24.6999C303.365 25.0009 303.436 25.3561 303.436 25.7687Z" fill="#607697"/>
<path d="M304.894 27.1822C304.894 26.7629 305.006 26.4483 305.229 26.2319C305.452 26.0188 305.78 25.9106 306.21 25.9106C306.622 25.9106 306.944 26.0188 307.17 26.2386C307.397 26.4585 307.512 26.773 307.512 27.1822C307.512 27.5746 307.397 27.8857 307.167 28.1123C306.937 28.3389 306.619 28.4539 306.21 28.4539C305.79 28.4539 305.465 28.3423 305.239 28.1225C305.009 27.8993 304.894 27.5881 304.894 27.1822Z" fill="#607697"/>
<path d="M309.26 27.1822C309.26 26.7629 309.372 26.4483 309.595 26.2319C309.818 26.0188 310.146 25.9106 310.576 25.9106C310.988 25.9106 311.31 26.0188 311.536 26.2386C311.763 26.4585 311.878 26.773 311.878 27.1822C311.878 27.5746 311.763 27.8857 311.533 28.1123C311.303 28.3389 310.985 28.4539 310.576 28.4539C310.156 28.4539 309.832 28.3423 309.605 28.1225C309.375 27.8993 309.26 27.5881 309.26 27.1822Z" fill="#607697"/>
<path d="M313.626 27.1822C313.626 26.7629 313.738 26.4483 313.961 26.2319C314.184 26.0188 314.512 25.9106 314.942 25.9106C315.354 25.9106 315.676 26.0188 315.902 26.2386C316.129 26.4585 316.244 26.773 316.244 27.1822C316.244 27.5746 316.129 27.8857 315.899 28.1123C315.669 28.3389 315.351 28.4539 314.942 28.4539C314.522 28.4539 314.198 28.3423 313.971 28.1225C313.741 27.8993 313.626 27.5881 313.626 27.1822Z" fill="#607697"/>
<path d="M241.763 65.8807L212 88.2028L258.673 72.3068L241.763 65.8807Z" fill="white"/>
</svg>
