<svg width="296" height="136" viewBox="0 0 296 136" fill="none" xmlns="http://www.w3.org/2000/svg">
<path d="M295.275 132.872H287.876V134.403H295.275V132.872Z" fill="#607697"/>
<path d="M78.6202 130.209L77.1281 129.888L76.4854 132.872H75.001V125.159H73.4706V132.528L72.078 129L70.6549 129.567L71.9633 132.872H0V134.402H283.163V132.872H78.054L78.6202 130.209Z" fill="#607697"/>
<path d="M56.905 121.096H10.0313V117.875H55.0763L88.5444 62.0796C90.266 59.2102 93.4184 57.4198 96.7698 57.4198H117.399V60.6411H96.7698C94.5432 60.6411 92.4543 61.8271 91.3142 63.7323L56.905 121.096Z" fill="#607697"/>
<path d="M117.391 61.2912H96.7621C95.5149 61.2912 94.5049 60.2812 94.5049 59.034C94.5049 57.7868 95.5149 56.7768 96.7621 56.7768H117.391C118.638 56.7768 119.648 57.7868 119.648 59.034C119.648 60.2812 118.638 61.2912 117.391 61.2912Z" fill="#607697"/>
<path d="M60.9756 134.318C60.3176 134.318 59.6978 133.913 59.4606 133.255L54.6478 119.941C54.3417 119.107 54.7778 118.181 55.6195 117.875C56.4535 117.577 57.3794 118.005 57.6855 118.847L62.4983 132.161C62.8044 132.995 62.3682 133.921 61.5266 134.227C61.3429 134.288 61.1593 134.318 60.9756 134.318Z" fill="#607697"/>
<path d="M31.7539 122.549C33.4444 115.446 29.0561 108.316 21.9525 106.626C14.8488 104.935 7.71975 109.324 6.02927 116.427C4.33879 123.531 8.72704 130.66 15.8307 132.351C22.9344 134.041 30.0634 129.653 31.7539 122.549Z" fill="#B6CDE2"/>
<path d="M18.8996 133.676C11.0796 133.676 4.7135 127.309 4.7135 119.489C4.7135 111.662 11.0796 105.303 18.8996 105.303C26.7195 105.303 33.0856 111.67 33.0856 119.489C33.0856 127.309 26.7195 133.676 18.8996 133.676ZM18.8996 107.232C12.1432 107.232 6.64936 112.725 6.64936 119.482C6.64936 126.238 12.1432 131.732 18.8996 131.732C25.6559 131.732 31.1498 126.238 31.1498 119.482C31.1498 112.725 25.6559 107.232 18.8996 107.232Z" fill="#607697"/>
<path d="M26.1224 121.195C27.069 117.203 24.5998 113.199 20.6073 112.252C16.6148 111.305 12.6108 113.775 11.6642 117.767C10.7175 121.76 13.1867 125.764 17.1792 126.71C21.1718 127.657 25.1757 125.188 26.1224 121.195Z" fill="white"/>
<path d="M18.8995 127.883C14.2703 127.883 10.5057 124.119 10.5057 119.489C10.5057 114.86 14.2703 111.095 18.8995 111.095C23.5287 111.095 27.2933 114.86 27.2933 119.489C27.2933 124.111 23.5287 127.883 18.8995 127.883ZM18.8995 113.024C15.3338 113.024 12.4339 115.924 12.4339 119.489C12.4339 123.055 15.3338 125.955 18.8995 125.955C22.4651 125.955 25.3651 123.055 25.3651 119.489C25.3574 115.924 22.4651 113.024 18.8995 113.024Z" fill="#607697"/>
<path d="M19.5499 112.052H18.2568V126.911H19.5499V112.052Z" fill="#607697"/>
<path d="M14.1037 113.766L13.1893 114.68L23.6964 125.187L24.6108 124.273L14.1037 113.766Z" fill="#607697"/>
<path d="M26.3291 118.839H11.4697V120.132H26.3291V118.839Z" fill="#607697"/>
<path d="M23.6956 113.773L13.1885 124.28L14.1029 125.195L24.61 114.688L23.6956 113.773Z" fill="#607697"/>
<path d="M21.7071 119.482C21.7071 121.035 20.4522 122.29 18.899 122.29C17.3457 122.29 16.0908 121.035 16.0908 119.482C16.0908 117.929 17.3457 116.674 18.899 116.674C20.4522 116.674 21.7071 117.936 21.7071 119.482Z" fill="white"/>
<path d="M18.8993 123.262C16.818 123.262 15.127 121.571 15.127 119.489C15.127 117.408 16.818 115.717 18.8993 115.717C20.9805 115.717 22.6715 117.408 22.6715 119.489C22.6715 121.563 20.9805 123.262 18.8993 123.262ZM18.8993 117.645C17.8816 117.645 17.0629 118.472 17.0629 119.482C17.0629 120.499 17.8892 121.326 18.8993 121.326C19.9169 121.326 20.7356 120.499 20.7356 119.482C20.7356 118.472 19.9093 117.645 18.8993 117.645Z" fill="#607697"/>
<path d="M86.6015 76.8774L76.9258 92.9608L92.7208 102.463L102.396 86.3794L86.6015 76.8774Z" fill="#B6CDE2"/>
<path d="M96.8534 104.959L92.7139 102.472L102.386 86.3888L106.525 88.8756C108.277 89.9315 108.851 92.2117 107.795 93.9639L101.949 103.689C100.893 105.449 98.6133 106.015 96.8534 104.959Z" fill="#B6CDE2"/>
<path d="M101.95 103.689L104.941 98.7231L82.3845 85.1492L77.4799 93.2981L96.8614 104.959C98.6136 106.015 100.894 105.449 101.95 103.689Z" fill="#B6CDE2"/>
<path d="M34.5313 42.6215L12.1274 79.8618L34.4012 100.567C36.7962 102.794 39.6426 104.462 42.7491 105.464L50.6915 108.027C53.7368 109.007 57.0576 107.767 58.7027 105.028L78.5739 71.996C80.2267 69.2567 79.7676 65.737 77.4721 63.5104L71.4885 57.6952C69.1472 55.4226 66.3314 53.6857 63.2478 52.6145L34.5313 42.6215Z" fill="#FCBD8F"/>
<g opacity="0.4">
<g opacity="0.4">
<g opacity="0.4">
<path opacity="0.4" d="M63.2556 52.5992L34.5315 42.6215L32.7487 45.5827L61.4728 55.5604C64.5563 56.6316 67.3721 58.3685 69.7135 60.641L75.6971 66.4562C77.9926 68.6829 78.444 72.2026 76.7989 74.9419L78.5817 71.9807C80.2345 69.2414 79.7754 65.7217 77.4799 63.4951L71.4963 57.6799C69.155 55.4073 66.3392 53.6704 63.2556 52.5992Z" fill="white"/>
</g>
</g>
</g>
<path d="M23.3294 61.2379L12.1274 79.8543L34.4012 100.559C36.7962 102.786 39.6426 104.454 42.7491 105.457L50.6915 108.02C53.7368 108.999 57.0576 107.76 58.7027 105.02L68.6421 88.5006L23.3294 61.2379Z" fill="#FFA361"/>
<path d="M12.1274 79.862L34.4012 100.567C36.7962 102.794 39.6426 104.462 42.7491 105.464L50.6915 108.028C53.7368 109.007 57.0576 107.767 58.7027 105.028L62.4903 98.7308L17.1698 71.4682L12.1274 79.862Z" fill="#F87C22"/>
<g opacity="0.4">
<g opacity="0.4">
<g opacity="0.4">
<path opacity="0.4" d="M40.2702 104.493L69.4763 55.9508C69.0555 55.6294 68.6193 55.3233 68.1755 55.0326L38.8546 103.773C39.3214 104.026 39.7881 104.271 40.2702 104.493Z" fill="#FFA361"/>
</g>
</g>
</g>
<path d="M32.1811 41.2102L9.78082 78.4455L12.1281 79.8576L34.5283 42.6223L32.1811 41.2102Z" fill="#FCBD8F"/>
<path d="M79.1326 72.3177L59.2614 105.35C57.448 108.364 53.8441 109.711 50.5003 108.632L42.558 106.069C39.3826 105.044 36.4137 103.299 33.9652 101.027L11.3088 79.9617L34.2483 41.8261L63.4698 51.9798C66.6222 53.0739 69.5528 54.8797 71.9478 57.2058L77.9313 63.021C80.4563 65.4925 80.946 69.303 79.1326 72.3177ZM12.9539 79.7474L34.8452 100.093C37.1483 102.235 39.9564 103.881 42.9558 104.852L50.8982 107.416C53.6681 108.311 56.6599 107.194 58.1596 104.692L78.0308 71.6597C79.5305 69.1653 79.125 65.9975 77.0361 63.9698L71.0525 58.1546C68.7953 55.9586 66.0254 54.2523 63.049 53.2193L34.8145 43.4023L12.9539 79.7474Z" fill="#607697"/>
<path d="M67.0399 50.2751L34.1238 104.99L36.5039 106.422L69.4199 51.7069L67.0399 50.2751Z" fill="#FCBD8F"/>
<path d="M70.3024 51.4974L36.7272 107.308L33.238 105.212L66.8209 49.3933L70.3024 51.4974ZM36.2834 105.541L68.5349 51.9336L67.257 51.1684L35.0056 104.776L36.2834 105.541Z" fill="#607697"/>
<path d="M21.5351 60.16L10.6683 78.2236L11.914 78.9731L22.7809 60.9095L21.5351 60.16Z" fill="#FFA361"/>
<g opacity="0.4">
<g opacity="0.4">
<g opacity="0.4">
<path opacity="0.4" d="M28.5796 48.4444L25.6923 53.2439L26.9381 53.9933L29.8254 49.1939L28.5796 48.4444Z" fill="white"/>
</g>
</g>
</g>
<g opacity="0.4">
<g opacity="0.4">
<g opacity="0.4">
<path opacity="0.4" d="M58.1968 66.2689L55.3095 71.0684L56.5553 71.8178L59.4426 67.0183L58.1968 66.2689Z" fill="white"/>
</g>
</g>
</g>
<g opacity="0.4">
<g opacity="0.4">
<g opacity="0.4">
<path opacity="0.4" d="M67.2572 51.1673L35.0078 104.774L35.6437 105.157L67.8931 51.5499L67.2572 51.1673Z" fill="white"/>
</g>
</g>
</g>
<path d="M35.4115 42.3996L12.3419 80.7417L8.89105 78.6605L31.9606 40.3184L35.4115 42.3996ZM11.9058 78.9742L33.644 42.8434L32.3968 42.0935L10.6662 78.2244L11.9058 78.9742Z" fill="#607697"/>
<path d="M39.3213 48.8729C38.9388 48.6433 38.7551 48.1689 38.9082 47.7251C39.0841 47.2201 39.6351 46.9523 40.1401 47.1283L47.0036 49.508C47.5086 49.6763 47.7764 50.2349 47.6004 50.7399C47.4244 51.2449 46.8735 51.5127 46.3685 51.3367L39.505 48.957C39.4361 48.9341 39.3749 48.9035 39.3213 48.8729Z" fill="white"/>
<path d="M49.3372 52.454C48.9546 52.2244 48.7709 51.75 48.924 51.3062C49.1 50.8012 49.6509 50.5334 50.1559 50.7094L52.3366 51.4669C52.8416 51.6352 53.1094 52.1938 52.9334 52.6988C52.7574 53.2038 52.2065 53.4716 51.7015 53.2956L49.5208 52.5381C49.4519 52.5152 49.3907 52.4922 49.3372 52.454Z" fill="white"/>
<path d="M81.7415 76.5809L74.0657 89.3401L77.7702 91.5687L85.446 78.8095L81.7415 76.5809Z" fill="#B6CDE2"/>
<path d="M77.9848 92.4489L73.1796 89.5566L81.5198 75.6919L86.325 78.5842L77.9848 92.4489ZM74.9471 89.1204L77.5486 90.6814L84.5575 79.028L81.9559 77.4671L74.9471 89.1204Z" fill="#607697"/>
<path d="M92.9435 103.352L76.0411 93.1834L86.3784 75.9979L103.281 86.1668L92.9435 103.352ZM77.8086 92.7472L92.4997 101.585L101.506 86.6106L86.8145 77.773L77.8086 92.7472Z" fill="#607697"/>
<path d="M106.533 88.8756L102.393 86.3888L101.429 87.9956L105.569 90.4824C107.321 91.5383 107.895 93.8185 106.839 95.5707L107.803 93.9639C108.851 92.2117 108.285 89.9315 106.533 88.8756Z" fill="#B6CDE2"/>
<path d="M84.8302 79.8223L84.4989 80.3731L100.504 90.0013L100.835 89.4506L84.8302 79.8223Z" fill="#607697"/>
<path d="M82.8999 83.0424L82.5686 83.5932L98.5734 93.2215L98.9047 92.6707L82.8999 83.0424Z" fill="#607697"/>
<path d="M80.9626 86.2582L80.6312 86.809L96.636 96.4373L96.9674 95.8865L80.9626 86.2582Z" fill="#607697"/>
<path d="M79.025 89.474L78.6937 90.0248L94.6985 99.6531L95.0298 99.1023L79.025 89.474Z" fill="#607697"/>
<path d="M76.5036 79.8856L74.843 82.6459L77.2296 84.0817L78.8902 81.3213L76.5036 79.8856Z" fill="#607697"/>
<path d="M83.0255 71.3156L66.179 99.319L68.9393 100.98L85.7858 72.9761L83.0255 71.3156Z" fill="#607697"/>
<path d="M69.7024 86.7407L68.0418 89.501L89.9476 102.679L91.6082 99.9189L69.7024 86.7407Z" fill="#607697"/>
<path d="M83.9115 78.6254L76.8984 90.2831L77.554 90.6775L84.5672 79.0198L83.9115 78.6254Z" fill="#B6CDE2"/>
<path d="M85.049 80.7074L84.7808 81.1532L99.4677 89.9887L99.7359 89.5428L85.049 80.7074Z" fill="#B6CDE2"/>
<path d="M83.1185 83.9275L82.8503 84.3734L97.5372 93.2088L97.8054 92.763L83.1185 83.9275Z" fill="#B6CDE2"/>
<path d="M81.1811 87.1431L80.9129 87.5889L95.5998 96.4244L95.868 95.9785L81.1811 87.1431Z" fill="#B6CDE2"/>
<path d="M79.2438 90.3584L78.9756 90.8042L93.6625 99.6397L93.9307 99.1938L79.2438 90.3584Z" fill="#B6CDE2"/>
<path d="M86.8166 77.7694L86.1894 78.8119L100.876 87.6474L101.503 86.6049L86.8166 77.7694Z" fill="#B6CDE2"/>
<path d="M96.5245 105.51L91.834 102.687L102.171 85.5011L106.862 88.3245C108.92 89.5641 109.586 92.2422 108.346 94.3004L102.5 104.026C101.261 106.084 98.5828 106.75 96.5245 105.51ZM93.6016 102.25L97.1825 104.408C98.6287 105.28 100.519 104.814 101.391 103.36L107.237 93.6348C108.109 92.1886 107.635 90.2987 106.188 89.4264L102.608 87.2686L93.6016 102.25Z" fill="#607697"/>
<path d="M231.491 23.6224H223.824V129.191H231.491V23.6224Z" fill="white"/>
<path d="M232.256 129.957H223.059V22.8572H232.256V129.957ZM224.589 128.426H230.726V24.3875H224.589V128.426Z" fill="#607697"/>
<path d="M221.054 25.5353H234.253V23.2398C234.253 21.5488 232.884 20.1791 231.193 20.1791H224.115C222.424 20.1791 221.054 21.5488 221.054 23.2398V25.5353Z" fill="#B6CDE2"/>
<path d="M230.726 72.6232H224.589V75.6456H230.726V72.6232Z" fill="#B6CDE2"/>
<path d="M230.726 117.798H224.589V119.619H230.726V117.798Z" fill="#B6CDE2"/>
<path d="M241.048 129.192H214.268V133.545H241.048V129.192Z" fill="white"/>
<path d="M241.813 134.311H213.503V128.426H241.813V134.311ZM215.033 132.78H240.283V129.957H215.033V132.78Z" fill="#607697"/>
<path d="M112.631 23.6224H104.964V129.191H112.631V23.6224Z" fill="white"/>
<path d="M113.404 129.957H104.207V22.8572H113.404V129.957ZM105.729 128.426H111.866V24.3875H105.729V128.426Z" fill="#607697"/>
<path d="M102.202 25.5353H115.401V23.2398C115.401 21.5488 114.032 20.1791 112.341 20.1791H105.263C103.572 20.1791 102.202 21.5488 102.202 23.2398V25.5353Z" fill="#B6CDE2"/>
<path d="M112.341 20.1791H105.263C103.572 20.1791 102.202 21.5488 102.202 23.2398V24.816C102.202 23.125 103.572 21.7554 105.263 21.7554H112.341C114.032 21.7554 115.401 23.125 115.401 24.816V23.2398C115.401 21.5488 114.032 20.1791 112.341 20.1791Z" fill="#B6CDE2"/>
<path d="M231.193 20.1791H224.115C222.424 20.1791 221.054 21.5488 221.054 23.2398V24.816C221.054 23.125 222.424 21.7554 224.115 21.7554H231.193C232.884 21.7554 234.253 23.125 234.253 24.816V23.2398C234.253 21.5488 232.884 20.1791 231.193 20.1791Z" fill="#B6CDE2"/>
<path d="M116.167 26.3004H101.437V23.2398C101.437 21.1279 103.151 19.414 105.263 19.414H112.341C114.453 19.414 116.167 21.1279 116.167 23.2398V26.3004ZM102.968 24.7701H114.636V23.2398C114.636 21.9773 113.603 20.9443 112.341 20.9443H105.263C104 20.9443 102.968 21.9773 102.968 23.2398V24.7701Z" fill="#607697"/>
<path d="M111.866 72.6232H105.73V75.6456H111.866V72.6232Z" fill="#B6CDE2"/>
<path d="M111.866 117.798H105.73V119.619H111.866V117.798Z" fill="#B6CDE2"/>
<path d="M122.188 129.192H95.4075V133.545H122.188V129.192Z" fill="white"/>
<path d="M122.953 134.311H94.6423V128.426H122.953V134.311ZM96.1727 132.78H121.423V129.957H96.1727V132.78Z" fill="#607697"/>
<path d="M245.892 25.6346H90.5718V71.9498H245.892V25.6346Z" fill="white"/>
<path d="M230.42 25.6346H245.884V29.5829L203.517 71.9498H184.105L230.42 25.6346Z" fill="#FFA361"/>
<path d="M245.884 44.0598V63.4719L237.406 71.9498H217.994L245.884 44.0598Z" fill="#FFA361"/>
<path d="M196.523 25.6346H215.936L169.62 71.9498H150.208L196.523 25.6346Z" fill="#FFA361"/>
<path d="M162.635 25.6346H182.047L135.724 71.9498H116.312L162.635 25.6346Z" fill="#FFA361"/>
<path d="M94.8414 25.6346H114.261L90.5718 49.324V29.9119L94.8414 25.6346Z" fill="#FFA361"/>
<path d="M90.5718 63.8008L128.738 25.6346H148.15L101.835 71.9498H90.5718V63.8008Z" fill="#FFA361"/>
<path d="M245.892 94.9354H90.5718V117.125H245.892V94.9354Z" fill="white"/>
<path d="M245.884 114.715L243.474 117.125H245.884V114.715Z" fill="#FFA361"/>
<path d="M138.325 94.9353H127.506L105.316 117.125H116.136L138.325 94.9353Z" fill="#FFA361"/>
<path d="M104.482 94.9354L90.5718 108.846V117.125H93.1121L115.302 94.9354H104.482Z" fill="#FFA361"/>
<path d="M161.356 94.9353H150.529L128.34 117.125H139.167L161.356 94.9353Z" fill="#FFA361"/>
<path d="M90.5718 96.6417L92.2704 94.9354H90.5718V96.6417Z" fill="#FFA361"/>
<path d="M245.884 102.51V94.9353H242.64L220.45 117.125H231.269L245.884 102.51Z" fill="#FFA361"/>
<path d="M230.435 94.9353H219.616L197.426 117.125H208.245L230.435 94.9353Z" fill="#FFA361"/>
<path d="M207.404 94.9353H196.584L174.395 117.125H185.214L207.404 94.9353Z" fill="#FFA361"/>
<path d="M184.38 94.9353H173.561L151.371 117.125H162.191L184.38 94.9353Z" fill="#FFA361"/>
<path d="M245.119 36.5917V71.1846H91.337V26.3998H245.119V33.9749H246.649V24.8695H89.8066V72.7149H246.649V36.5917H245.119Z" fill="#607697"/>
<path d="M245.119 111.195V116.36H91.337V95.7006H245.119V103.222H246.649V94.1702H89.8066V117.89H246.649V111.195H245.119Z" fill="#607697"/>
<path d="M246.649 104.37H245.119V108.387H246.649V104.37Z" fill="#607697"/>
<g opacity="0.5">
<path opacity="0.5" d="M245.126 26.3998H91.337V27.6623H245.126V26.3998Z" fill="#EEF2FB"/>
</g>
<g opacity="0.5">
<path opacity="0.5" d="M245.126 95.6852H91.337V96.9478H245.126V95.6852Z" fill="#EEF2FB"/>
</g>
<path d="M238.171 69.2719H236.641V71.95H238.171V69.2719Z" fill="#607697"/>
<path d="M238.171 64.7038H236.641V68.124H238.171V64.7038Z" fill="#607697"/>
<path d="M96.7159 25.6346H95.1855V27.6623H96.7159V25.6346Z" fill="#607697"/>
<path d="M226.885 92.8312H225.355V94.9354H226.885V92.8312Z" fill="#607697"/>
<path d="M110.871 92.7315H109.341V94.9351H110.871V92.7315Z" fill="#607697"/>
<path d="M240.283 132.076H215.033V132.78H240.283V132.076Z" fill="#B6CDE2"/>
<path d="M121.423 132.076H96.1726V132.78H121.423V132.076Z" fill="#B6CDE2"/>
<path d="M114.859 17.5734C118.038 14.2277 117.902 8.93885 114.557 5.76029C111.211 2.58172 105.922 2.71715 102.744 6.06276C99.5652 9.40837 99.7006 14.6973 103.046 17.8758C106.392 21.0544 111.681 20.919 114.859 17.5734Z" fill="#FFA361"/>
<path d="M102.447 17.2405C102.562 17.3705 102.677 17.5006 102.792 17.623H114.797C114.919 17.5006 115.034 17.3705 115.141 17.2405H102.447Z" fill="#FFA361"/>
<path d="M101.047 14.9147C101.101 15.0448 101.155 15.1672 101.216 15.2973H116.397C116.458 15.1672 116.511 15.0448 116.565 14.9147H101.047Z" fill="#FFA361"/>
<path d="M110.696 19.9492C111.117 19.8497 111.522 19.7273 111.913 19.5666H105.677C106.067 19.7273 106.48 19.8497 106.893 19.9492H110.696Z" fill="#FFA361"/>
<path d="M102.83 5.985H114.774C114.644 5.85492 114.506 5.72484 114.369 5.60242H103.236C103.098 5.72484 102.96 5.84727 102.83 5.985Z" fill="#FFA361"/>
<path d="M101.407 7.92853C101.338 8.05095 101.285 8.18103 101.223 8.31111H116.374C116.312 8.18103 116.259 8.05095 116.19 7.92853H101.407Z" fill="#FFA361"/>
<path d="M107.031 3.6514H110.566C109.992 3.52898 109.403 3.46011 108.798 3.46011C108.194 3.46011 107.605 3.52898 107.031 3.6514Z" fill="#FFA361"/>
<path d="M100.596 10.2546C100.573 10.3771 100.557 10.5071 100.534 10.6372H117.062C117.047 10.5071 117.024 10.3771 117.001 10.2546H100.596Z" fill="#FFA361"/>
<path d="M100.481 12.5807C100.496 12.7108 100.512 12.8333 100.527 12.9633H117.07C117.085 12.8333 117.108 12.7108 117.116 12.5807H100.481Z" fill="#FFA361"/>
<path d="M108.798 20.9364C103.771 20.9364 99.6774 16.8428 99.6774 11.8157C99.6774 6.78863 103.771 2.69502 108.798 2.69502C113.825 2.69502 117.919 6.78863 117.919 11.8157C117.919 16.8505 113.833 20.9364 108.798 20.9364ZM108.798 4.22534C104.613 4.22534 101.208 7.6303 101.208 11.8157C101.208 16.0012 104.613 19.4061 108.798 19.4061C112.983 19.4061 116.388 16.0012 116.388 11.8157C116.388 7.6303 112.983 4.22534 108.798 4.22534Z" fill="#607697"/>
<path d="M113.075 11.8158C113.075 14.1801 111.162 16.093 108.798 16.093C106.434 16.093 104.521 14.1801 104.521 11.8158C104.521 9.45144 106.434 7.53854 108.798 7.53854C111.162 7.5462 113.075 9.45909 113.075 11.8158Z" fill="#FFE8D7"/>
<g opacity="0.4">
<path opacity="0.4" d="M114.384 8.82411C114.384 10.2167 113.259 11.3415 111.866 11.3415C110.474 11.3415 109.349 10.2167 109.349 8.82411C109.349 7.43152 110.474 6.30673 111.866 6.30673C113.259 6.31438 114.384 7.43917 114.384 8.82411Z" fill="white"/>
</g>
<path d="M235.019 26.3004H220.289V23.2398C220.289 21.1279 222.003 19.414 224.115 19.414H231.193C233.305 19.414 235.019 21.1279 235.019 23.2398V26.3004ZM221.82 24.7701H233.488V23.2398C233.488 21.9773 232.455 20.9443 231.193 20.9443H224.115C222.852 20.9443 221.82 21.9773 221.82 23.2398V24.7701Z" fill="#607697"/>
<path d="M233.562 17.7246C236.825 14.4616 236.825 9.17121 233.562 5.9082C230.299 2.64519 225.009 2.6452 221.745 5.90821C218.482 9.17122 218.482 14.4616 221.745 17.7246C225.008 20.9876 230.299 20.9876 233.562 17.7246Z" fill="#FFA361"/>
<path d="M221.307 17.2405C221.422 17.3706 221.537 17.5006 221.651 17.6231H233.657C233.779 17.5006 233.894 17.3706 234.001 17.2405H221.307Z" fill="#FFA361"/>
<path d="M219.899 14.9147C219.953 15.0448 220.006 15.1672 220.068 15.2973H235.248C235.31 15.1672 235.363 15.0448 235.417 14.9147H219.899Z" fill="#FFA361"/>
<path d="M229.556 19.9492C229.976 19.8497 230.382 19.7273 230.772 19.5666H224.536C224.926 19.7273 225.34 19.8497 225.753 19.9492H229.556Z" fill="#FFA361"/>
<path d="M221.682 5.98501H233.626C233.496 5.85493 233.358 5.72486 233.221 5.60243H222.088C221.95 5.72486 221.812 5.84728 221.682 5.98501Z" fill="#FFA361"/>
<path d="M220.267 7.92854C220.198 8.05097 220.144 8.18105 220.083 8.31112H235.233C235.172 8.18105 235.118 8.05097 235.05 7.92854H220.267Z" fill="#FFA361"/>
<path d="M225.89 3.65142H229.425C228.852 3.52899 228.262 3.46013 227.658 3.46013C227.046 3.46013 226.457 3.52899 225.89 3.65142Z" fill="#FFA361"/>
<path d="M219.455 10.2547C219.432 10.3771 219.417 10.5072 219.394 10.6372H235.922C235.906 10.5072 235.883 10.3771 235.86 10.2547H219.455Z" fill="#FFA361"/>
<path d="M219.341 12.5808C219.356 12.7109 219.371 12.8333 219.387 12.9634H235.922C235.937 12.8333 235.96 12.7109 235.968 12.5808H219.341Z" fill="#FFA361"/>
<path d="M227.658 20.9364C222.631 20.9364 218.537 16.8428 218.537 11.8157C218.537 6.78864 222.631 2.69504 227.658 2.69504C232.685 2.69504 236.778 6.78864 236.778 11.8157C236.778 16.8505 232.685 20.9364 227.658 20.9364ZM227.658 4.22536C223.472 4.22536 220.067 7.63032 220.067 11.8157C220.067 16.0012 223.472 19.4061 227.658 19.4061C231.843 19.4061 235.248 16.0012 235.248 11.8157C235.248 7.63032 231.843 4.22536 227.658 4.22536Z" fill="#607697"/>
<path d="M227.658 16.093C230.02 16.093 231.935 14.1781 231.935 11.8158C231.935 9.45354 230.02 7.53856 227.658 7.53856C225.296 7.53856 223.381 9.45354 223.381 11.8158C223.381 14.1781 225.296 16.093 227.658 16.093Z" fill="#FFE8D7"/>
<g opacity="0.4">
<path opacity="0.4" d="M233.243 8.82412C233.243 10.2167 232.119 11.3415 230.726 11.3415C229.334 11.3415 228.209 10.2167 228.209 8.82412C228.209 7.43153 229.334 6.30675 230.726 6.30675C232.119 6.30675 233.243 7.43918 233.243 8.82412Z" fill="white"/>
</g>
<path d="M203.647 114.715H202.117V117.125H203.647V114.715Z" fill="#607697"/>
<path d="M203.647 112.595H202.117V113.934H203.647V112.595Z" fill="#607697"/>
<g opacity="0.2">
<path opacity="0.2" d="M137.147 46.8525C136.076 47.9238 136.076 49.6607 137.147 50.7395L158.365 71.9574H183.508L204.726 50.7395C205.797 49.6683 205.797 47.9314 204.726 46.8525L183.508 25.6346H158.365L137.147 46.8525Z" fill="#607697"/>
</g>
<path d="M165.65 82.7935L133.804 50.9476C132.732 49.8764 132.732 48.1395 133.804 47.0606L165.65 15.2146C166.721 14.1434 168.458 14.1434 169.537 15.2146L201.383 47.0606C202.454 48.1318 202.454 49.8687 201.383 50.9476L169.537 82.7935C168.465 83.8648 166.721 83.8648 165.65 82.7935Z" fill="#EEF2FB"/>
<path d="M168.19 81.4071H167.555L134.944 48.796L167.876 15.8635L200.809 48.796L168.19 81.4071ZM137.109 48.796L167.876 79.5631L198.643 48.796L167.876 18.0289L137.109 48.796Z" fill="#B6CDE2"/>
<path d="M168.978 21.4495C168.978 22.0539 168.488 22.5513 167.876 22.5513C167.271 22.5513 166.774 22.0616 166.774 21.4495C166.774 20.8373 167.264 20.3476 167.876 20.3476C168.48 20.3476 168.978 20.8373 168.978 21.4495Z" fill="#607697"/>
<path d="M168.978 76.1431C168.978 76.7476 168.488 77.2449 167.876 77.2449C167.271 77.2449 166.774 76.7552 166.774 76.1431C166.774 75.531 167.264 75.0413 167.876 75.0413C168.48 75.0413 168.978 75.5386 168.978 76.1431Z" fill="#607697"/>
<g opacity="0.4">
<path opacity="0.4" d="M190.615 35.8024L154.884 71.5329L158.13 74.7792L193.861 39.0486L190.615 35.8024Z" fill="white"/>
</g>
<g opacity="0.4">
<path opacity="0.4" d="M179.251 24.4394L143.52 60.17L151.814 68.4642L187.545 32.7337L179.251 24.4394Z" fill="white"/>
</g>
<path d="M168.358 84.1196C167.417 84.1196 166.537 83.7524 165.871 83.0943L134.025 51.2484C133.36 50.5827 133 49.7028 133 48.7693C133 47.8281 133.367 46.9482 134.025 46.2825L165.871 14.4365C166.537 13.7708 167.417 13.4112 168.358 13.4112C169.299 13.4112 170.179 13.7785 170.845 14.4365L202.691 46.2825C204.061 47.6521 204.061 49.8787 202.691 51.2484L170.845 83.0943C170.179 83.7524 169.299 84.1196 168.358 84.1196ZM168.358 14.9339C167.83 14.9339 167.333 15.1405 166.958 15.5154L135.112 47.3614C134.737 47.7363 134.53 48.2336 134.53 48.7616C134.53 49.2896 134.737 49.7869 135.112 50.1618L166.958 82.0078C167.708 82.7577 169.009 82.7577 169.758 82.0078L201.604 50.1618C202.377 49.389 202.377 48.1342 201.604 47.3614L169.758 15.5154C169.383 15.1405 168.886 14.9339 168.358 14.9339Z" fill="#607697"/>
<path d="M173.411 38.5928C174.559 38.5928 175.494 37.6571 175.494 36.5004C175.494 35.3437 174.562 34.4112 173.411 34.4112C172.262 34.4112 171.328 35.347 171.328 36.5037C171.328 37.6603 172.262 38.5928 173.411 38.5928Z" fill="#607697"/>
<path d="M172.657 50.9325C172.583 50.8773 172.505 50.8253 172.421 50.7798C172.398 50.77 172.366 50.7473 172.334 50.7376L171.137 50.065L166.23 47.2155V47.2253L166.207 47.2155L158.515 60.5986L158.16 61.2062C158.118 61.2712 158.072 61.3459 158.03 61.4239C158.021 61.4467 158.008 61.4662 157.998 61.4987L157.988 61.5084C157.891 61.7261 157.836 61.973 157.836 62.233C157.836 63.185 158.548 63.955 159.434 63.955C159.952 63.955 160.414 63.6853 160.705 63.2629L161.148 62.4929L163.186 58.9383L171.577 56.6835C171.674 56.6607 171.771 56.6412 171.868 56.6087L171.955 56.586V56.5762C173.11 56.1538 173.941 54.9614 173.941 53.574C173.941 52.9567 173.779 52.3816 173.498 51.8942C173.294 51.5076 173.003 51.1827 172.657 50.9325ZM168.158 54.2401L165.483 54.9549L167.404 51.6181L168.384 52.1802L170.726 53.5351L168.158 54.2401Z" fill="#607697"/>
<path d="M158.69 49.5367L158.949 50.2612L159.671 50.141L159.865 50.1085L163.39 49.5139L161.88 48.6269L164.759 43.6103L168.824 42.7427V42.733C169.481 42.5608 169.979 41.9207 169.979 41.1507C169.979 40.2507 169.31 39.5261 168.478 39.5261C168.349 39.5261 168.22 39.5489 168.1 39.5813L162.695 40.7283L162.685 40.7185L159.082 46.9796L157.419 46.0049L158.606 49.3515L158.69 49.5367Z" fill="#607697"/>
<path d="M157.264 46.0917L155 49.9712L158.429 49.3864L157.264 46.0917Z" fill="#607697"/>
<path d="M161.115 53.6194L163.402 49.6977L159.928 50.2923L161.115 53.6194Z" fill="#607697"/>
<path d="M159.736 50.3288L159.014 50.449L158.82 50.4815L158.756 50.2963L158.497 49.5717L155.003 50.1663L160.926 53.6429L159.736 50.3288Z" fill="#607697"/>
<path d="M178.47 39.1684C177.898 39.1684 177.403 39.4835 177.144 39.9481C177.102 40.0229 177.057 40.1106 177.037 40.1983L176.885 40.533L175.776 43.0348H172.496L170.856 46.0045V46.0143H177.771V45.9915C177.771 45.9915 177.771 45.9818 177.781 45.9915C177.781 45.9915 177.781 45.9915 177.791 45.9915L179.538 42.0568L179.935 41.1568C179.977 41.0171 180 40.8644 180 40.7117C179.994 39.8604 179.314 39.1684 178.47 39.1684Z" fill="#607697"/>
<path d="M166.033 63.742L164.958 64.8311L168.639 68.4648L169.714 67.3756L166.033 63.742Z" fill="#607697"/>
<path d="M169.465 63.5652L168.396 64.66L170.421 66.6381L171.491 65.5433L169.465 63.5652Z" fill="#607697"/>
<path d="M268.847 129.138H243.053L253.521 82.035H258.379L268.847 129.138Z" fill="#FCBD8F"/>
<path d="M255.954 82.035H253.521L243.053 129.138H255.954V82.035Z" fill="#FFA361"/>
<path d="M262.465 100.406L263.865 106.719H248.034L249.434 100.406H262.465ZM266.689 119.405L265.288 113.093H246.618L245.218 119.405H266.689Z" fill="white"/>
<path d="M258.165 128.388H243.994L254.125 82.7847H257.775L267.906 128.388H260.935V129.896H269.788L259.122 81.8665L258.984 81.2773H252.916L242.112 129.896H258.165V128.388Z" fill="#607697"/>
<path d="M277.638 129.123H234.269V133.561H277.638V129.123Z" fill="#FFA361"/>
<path d="M277.638 129.123H255.954V133.561H277.638V129.123Z" fill="#FCBD8F"/>
<path d="M260.935 128.365V129.873H276.881V132.803H235.019V129.873H258.165V128.365H233.511V134.311H278.388V128.365H260.935Z" fill="#607697"/>
<g opacity="0.4">
<path opacity="0.4" d="M244.583 129.872H240.574V132.803H244.583V129.872Z" fill="white"/>
</g>
<path d="M270.293 129.872H266.283V132.803H270.293V129.872Z" fill="#FFA361"/>
<g opacity="0.4">
<path opacity="0.4" d="M276.881 129.872H235.019V130.569H276.881V129.872Z" fill="white"/>
</g>
</svg>
