<svg width="25" height="24" viewBox="0 0 25 24" fill="none" xmlns="http://www.w3.org/2000/svg">
<path d="M2.49121 12.002C2.49237 16.9214 6.06961 21.1101 10.9282 21.881V14.892H8.39121V12.002H10.9312V9.80204C10.8177 8.75958 11.1737 7.72064 11.9029 6.96698C12.632 6.21332 13.6586 5.82306 14.7042 5.90204C15.4547 5.91417 16.2034 5.98101 16.9442 6.10205V8.56104H15.6802C15.2451 8.50405 14.8076 8.64777 14.491 8.95171C14.1744 9.25566 14.013 9.68693 14.0522 10.124V12.002H16.8232L16.3802 14.893H14.0522V21.881C19.3067 21.0506 22.9913 16.2518 22.4367 10.9611C21.8821 5.67041 17.2825 1.73997 11.97 2.01722C6.65757 2.29447 2.49206 6.68235 2.49121 12.002Z" fill="white"/>
</svg>
