<svg width="25" height="24" viewBox="0 0 25 24" fill="none" xmlns="http://www.w3.org/2000/svg">
<path d="M2.50195 12.002C2.50312 16.9214 6.08036 21.1101 10.939 21.881V14.892H8.40195V12.002H10.942V9.80204C10.8284 8.75958 11.1845 7.72064 11.9136 6.96698C12.6427 6.21332 13.6693 5.82306 14.715 5.90204C15.4655 5.91417 16.2141 5.98101 16.955 6.10205V8.56104H15.691C15.2558 8.50405 14.8183 8.64777 14.5017 8.95171C14.1851 9.25566 14.0237 9.68693 14.063 10.124V12.002H16.834L16.391 14.893H14.063V21.881C19.3174 21.0506 23.002 16.2518 22.4475 10.9611C21.8929 5.67041 17.2932 1.73997 11.9808 2.01722C6.66831 2.29447 2.5028 6.68235 2.50195 12.002Z" fill="#1A1731"/>
<path d="M2.50195 12.002C2.50312 16.9214 6.08036 21.1101 10.939 21.881V14.892H8.40195V12.002H10.942V9.80204C10.8284 8.75958 11.1845 7.72064 11.9136 6.96698C12.6427 6.21332 13.6693 5.82306 14.715 5.90204C15.4655 5.91417 16.2141 5.98101 16.955 6.10205V8.56104H15.691C15.2558 8.50405 14.8183 8.64777 14.5017 8.95171C14.1851 9.25566 14.0237 9.68693 14.063 10.124V12.002H16.834L16.391 14.893H14.063V21.881C19.3174 21.0506 23.002 16.2518 22.4475 10.9611C21.8929 5.67041 17.2932 1.73997 11.9808 2.01722C6.66831 2.29447 2.5028 6.68235 2.50195 12.002Z" fill="black" fill-opacity="0.2"/>
</svg>
