<svg width="32" height="31" viewBox="0 0 32 31" fill="none" xmlns="http://www.w3.org/2000/svg">
<g clip-path="url(#clip0_1093:9553)">
<path d="M31.0941 15.3158C31.0941 6.92554 24.294 0.125488 15.9037 0.125488C7.51343 0.125488 0.713379 6.92554 0.713379 15.3158C0.713379 23.7061 7.51343 30.5062 15.9037 30.5062C15.9927 30.5062 16.0817 30.5062 16.1707 30.5002V18.6802H12.9072V14.8767H16.1707V12.076C16.1707 8.83026 18.1526 7.06201 21.0483 7.06201C22.4367 7.06201 23.6294 7.16289 23.9736 7.21036V10.6044H21.9799C20.4074 10.6044 20.0989 11.3521 20.0989 12.4498V14.8708H23.8668L23.3743 18.6743H20.0989V29.9187C26.4479 28.0971 31.0941 22.2523 31.0941 15.3158Z" fill="#1778F2"/>
</g>
<defs>
<clipPath id="clip0_1093:9553">
<rect width="30.3807" height="30.3807" fill="white" transform="translate(0.713379 0.125488)"/>
</clipPath>
</defs>
</svg>
