<svg width="31" height="31" viewBox="0 0 31 31" fill="none" xmlns="http://www.w3.org/2000/svg">
<rect x="0.347752" y="0.818944" width="29.7731" height="29.7731" rx="14.8865" fill="white" stroke="#B6CDE2" stroke-width="0.607614"/>
<g clip-path="url(#clip0_1093:9546)">
<path d="M10.498 17.4793L9.90581 19.6901L7.74132 19.7358C7.09445 18.536 6.72754 17.1633 6.72754 15.7046C6.72754 14.294 7.07059 12.9638 7.67868 11.7925H7.67915L9.60616 12.1458L10.4503 14.0612C10.2736 14.5763 10.1773 15.1292 10.1773 15.7046C10.1774 16.329 10.2905 16.9273 10.498 17.4793Z" fill="#FBBB00"/>
<path d="M23.5923 14.1177C23.69 14.6323 23.741 15.1637 23.741 15.7068C23.741 16.3158 23.6769 16.9099 23.5549 17.4829C23.1409 19.4329 22.0588 21.1356 20.5599 22.3406L20.5594 22.3401L18.1323 22.2162L17.7887 20.0718C18.7834 19.4885 19.5606 18.5757 19.9701 17.4829H15.4214V14.1177H20.0364H23.5923Z" fill="#518EF8"/>
<path d="M20.559 22.3381L20.5595 22.3385C19.1017 23.5103 17.2499 24.2114 15.234 24.2114C11.9945 24.2114 9.17799 22.4007 7.74121 19.7361L10.4979 17.4795C11.2163 19.3967 13.0658 20.7615 15.234 20.7615C16.166 20.7615 17.0391 20.5096 17.7883 20.0698L20.559 22.3381Z" fill="#28B446"/>
<path d="M20.6639 9.15711L17.9081 11.4132C17.1327 10.9285 16.2161 10.6486 15.2342 10.6486C13.0168 10.6486 11.1328 12.076 10.4504 14.062L7.67918 11.7932H7.67871C9.09446 9.06363 11.9465 7.19873 15.2342 7.19873C17.2982 7.19873 19.1906 7.93395 20.6639 9.15711Z" fill="#F14336"/>
</g>
<defs>
<clipPath id="clip0_1093:9546">
<rect x="6.72754" y="7.19873" width="17.0132" height="17.0132" rx="8.50659" fill="white"/>
</clipPath>
</defs>
</svg>
