<svg width="25" height="24" viewBox="0 0 25 24" fill="none" xmlns="http://www.w3.org/2000/svg">
<path d="M12.456 10.3562V13.8072H17.248C16.802 16.0002 14.935 17.2602 12.456 17.2602C9.56851 17.2205 7.24862 14.8684 7.24862 11.9807C7.24862 9.093 9.56851 6.74096 12.456 6.70122C13.6562 6.69979 14.8194 7.1163 15.746 7.87922L18.346 5.27922C15.3636 2.65729 11.008 2.32006 7.65752 4.45167C4.30707 6.58328 2.76698 10.6714 3.87821 14.4838C4.98943 18.2962 8.48491 20.9167 12.456 20.9142C16.923 20.9142 20.985 17.6652 20.985 11.9802C20.9781 11.4329 20.911 10.8879 20.785 10.3552L12.456 10.3562Z" fill="#1A1731"/>
<path d="M12.456 10.3562V13.8072H17.248C16.802 16.0002 14.935 17.2602 12.456 17.2602C9.56851 17.2205 7.24862 14.8684 7.24862 11.9807C7.24862 9.093 9.56851 6.74096 12.456 6.70122C13.6562 6.69979 14.8194 7.1163 15.746 7.87922L18.346 5.27922C15.3636 2.65729 11.008 2.32006 7.65752 4.45167C4.30707 6.58328 2.76698 10.6714 3.87821 14.4838C4.98943 18.2962 8.48491 20.9167 12.456 20.9142C16.923 20.9142 20.985 17.6652 20.985 11.9802C20.9781 11.4329 20.911 10.8879 20.785 10.3552L12.456 10.3562Z" fill="black" fill-opacity="0.2"/>
</svg>
