<svg width="25" height="24" viewBox="0 0 25 24" fill="none" xmlns="http://www.w3.org/2000/svg">
<path d="M12.445 10.356V13.807H17.237C16.791 16 14.924 17.26 12.445 17.26C9.55752 17.2202 7.23764 14.8682 7.23764 11.9805C7.23764 9.09275 9.55752 6.74072 12.445 6.70098C13.6452 6.69954 14.8084 7.11605 15.735 7.87898L18.335 5.27898C15.3526 2.65705 10.997 2.31981 7.64653 4.45142C4.29608 6.58303 2.756 10.6712 3.86722 14.4836C4.97845 18.296 8.47392 20.9164 12.445 20.914C16.912 20.914 20.974 17.665 20.974 11.98C20.9671 11.4326 20.9 10.8877 20.774 10.355L12.445 10.356Z" fill="white"/>
</svg>
