<svg width="16" height="16" viewBox="0 0 16 16" fill="none" xmlns="http://www.w3.org/2000/svg">
<path d="M7.99992 2.66659C5.0544 2.66659 2.66659 5.0544 2.66659 7.99992C2.66659 10.9454 5.0544 13.3333 7.99992 13.3333C10.9454 13.3333 13.3333 10.9454 13.3333 7.99992C13.3333 5.0544 10.9454 2.66659 7.99992 2.66659ZM1.33325 7.99992C1.33325 4.31802 4.31802 1.33325 7.99992 1.33325C11.6818 1.33325 14.6666 4.31802 14.6666 7.99992C14.6666 11.6818 11.6818 14.6666 7.99992 14.6666C4.31802 14.6666 1.33325 11.6818 1.33325 7.99992Z" fill="#D8E0F0"/>
<path d="M7.99992 6.66659C8.36811 6.66659 8.66659 6.96506 8.66659 7.33325V11.3333C8.66659 11.7014 8.36811 11.9999 7.99992 11.9999C7.63173 11.9999 7.33325 11.7014 7.33325 11.3333V7.33325C7.33325 6.96506 7.63173 6.66659 7.99992 6.66659Z" fill="#D8E0F0"/>
<path d="M8.99992 4.99992C8.99992 5.5522 8.5522 5.99992 7.99992 5.99992C7.44763 5.99992 6.99992 5.5522 6.99992 4.99992C6.99992 4.44763 7.44763 3.99992 7.99992 3.99992C8.5522 3.99992 8.99992 4.44763 8.99992 4.99992Z" fill="#D8E0F0"/>
</svg>
