<svg width="24" height="24" viewBox="0 0 24 24" fill="none" xmlns="http://www.w3.org/2000/svg">
<path d="M11.9999 13.9999C11.4476 13.9999 10.9999 13.5522 10.9999 12.9999V9.99988C10.9999 9.4476 11.4476 8.99988 11.9999 8.99988C12.5522 8.99988 12.9999 9.4476 12.9999 9.99988V12.9999C12.9999 13.5522 12.5522 13.9999 11.9999 13.9999Z" fill="#E2BD23"/>
<path d="M10.4999 16.4999C10.4999 15.6715 11.1715 14.9999 11.9999 14.9999C12.8284 14.9999 13.4999 15.6715 13.4999 16.4999C13.4999 17.3283 12.8284 17.9999 11.9999 17.9999C11.1715 17.9999 10.4999 17.3283 10.4999 16.4999Z" fill="#E2BD23"/>
<path d="M10.2301 3.21548C10.9799 1.79081 13.0199 1.7908 13.7698 3.21548L22.1134 19.0684C22.8144 20.4002 21.8486 21.9999 20.3436 21.9999H3.65629C2.15127 21.9999 1.18549 20.4002 1.88645 19.0684L10.2301 3.21548ZM20.3436 19.9999L11.9999 4.14697L3.65629 19.9999L20.3436 19.9999Z" fill="#E2BD23"/>
</svg>
