<svg width="34" height="41" viewBox="0 0 34 41" fill="none" xmlns="http://www.w3.org/2000/svg">
<path d="M25.0026 6.01338C26.5573 6.01338 27.8229 4.74645 27.8229 3.18039C27.8229 1.61433 26.5616 0.351807 25.0026 0.351807C23.4479 0.351807 22.1823 1.61873 22.1823 3.18479C22.1823 4.75085 23.4479 6.01338 25.0026 6.01338Z" fill="#1A1731"/>
<path d="M25.0026 6.01338C26.5573 6.01338 27.8229 4.74645 27.8229 3.18039C27.8229 1.61433 26.5616 0.351807 25.0026 0.351807C23.4479 0.351807 22.1823 1.61873 22.1823 3.18479C22.1823 4.75085 23.4479 6.01338 25.0026 6.01338Z" fill="black" fill-opacity="0.2"/>
<path d="M23.982 22.7205C23.8813 22.6457 23.7762 22.5753 23.6623 22.5137C23.6317 22.5005 23.5879 22.4697 23.5441 22.4566L21.9237 21.546L15.2803 17.688V17.7012L15.2496 17.688L4.8356 35.8077L4.35389 36.6303C4.29696 36.7183 4.23563 36.8194 4.1787 36.925C4.16557 36.9558 4.14806 36.9822 4.13492 37.0262L4.12177 37.0394C3.99039 37.3341 3.91595 37.6684 3.91595 38.0204C3.91595 39.3093 4.87939 40.3519 6.07933 40.3519C6.78002 40.3519 7.40628 39.9867 7.80042 39.4149L8.40038 38.3723L11.1594 33.5597L22.5193 30.5068C22.6507 30.476 22.7821 30.4496 22.9135 30.4056L23.0317 30.3748V30.3616C24.5951 29.7898 25.7206 28.1753 25.7206 26.2969C25.7206 25.4611 25.5016 24.6825 25.1206 24.0226C24.8448 23.4991 24.4506 23.0592 23.982 22.7205ZM17.8904 27.1987L14.2687 28.1665L16.87 23.6487L18.1969 24.4097L21.3676 26.2441L17.8904 27.1987Z" fill="#1A1731"/>
<path d="M23.982 22.7205C23.8813 22.6457 23.7762 22.5753 23.6623 22.5137C23.6317 22.5005 23.5879 22.4697 23.5441 22.4566L21.9237 21.546L15.2803 17.688V17.7012L15.2496 17.688L4.8356 35.8077L4.35389 36.6303C4.29696 36.7183 4.23563 36.8194 4.1787 36.925C4.16557 36.9558 4.14806 36.9822 4.13492 37.0262L4.12177 37.0394C3.99039 37.3341 3.91595 37.6684 3.91595 38.0204C3.91595 39.3093 4.87939 40.3519 6.07933 40.3519C6.78002 40.3519 7.40628 39.9867 7.80042 39.4149L8.40038 38.3723L11.1594 33.5597L22.5193 30.5068C22.6507 30.476 22.7821 30.4496 22.9135 30.4056L23.0317 30.3748V30.3616C24.5951 29.7898 25.7206 28.1753 25.7206 26.2969C25.7206 25.4611 25.5016 24.6825 25.1206 24.0226C24.8448 23.4991 24.4506 23.0592 23.982 22.7205ZM17.8904 27.1987L14.2687 28.1665L16.87 23.6487L18.1969 24.4097L21.3676 26.2441L17.8904 27.1987Z" fill="black" fill-opacity="0.2"/>
<path d="M5.07245 20.8306L5.42279 21.8115L6.39939 21.6488L6.66215 21.6048L11.4356 20.7998L9.39048 19.5988L13.2881 12.8067L18.7929 11.6322V11.619C19.6819 11.3858 20.3563 10.5192 20.3563 9.47662C20.3563 8.25809 19.4498 7.2771 18.3243 7.2771C18.1491 7.2771 17.974 7.30789 17.8119 7.35188L10.4941 8.90475L10.4809 8.89155L5.60235 17.3685L3.35138 16.0488L4.95859 20.5798L5.07245 20.8306Z" fill="#1A1731"/>
<path d="M5.07245 20.8306L5.42279 21.8115L6.39939 21.6488L6.66215 21.6048L11.4356 20.7998L9.39048 19.5988L13.2881 12.8067L18.7929 11.6322V11.619C19.6819 11.3858 20.3563 10.5192 20.3563 9.47662C20.3563 8.25809 19.4498 7.2771 18.3243 7.2771C18.1491 7.2771 17.974 7.30789 17.8119 7.35188L10.4941 8.90475L10.4809 8.89155L5.60235 17.3685L3.35138 16.0488L4.95859 20.5798L5.07245 20.8306Z" fill="black" fill-opacity="0.2"/>
<path d="M3.14193 16.1665L0.076416 21.419L4.71848 20.6271L3.14193 16.1665Z" fill="#1A1731"/>
<path d="M3.14193 16.1665L0.076416 21.419L4.71848 20.6271L3.14193 16.1665Z" fill="black" fill-opacity="0.2"/>
<path d="M8.35519 26.3585L11.4513 21.0488L6.74799 21.8539L8.35519 26.3585Z" fill="#1A1731"/>
<path d="M8.35519 26.3585L11.4513 21.0488L6.74799 21.8539L8.35519 26.3585Z" fill="black" fill-opacity="0.2"/>
<path d="M6.48746 21.9032L5.51087 22.0659L5.2481 22.1099L5.16053 21.8592L4.81017 20.8782L0.0805054 21.6832L8.09905 26.3902L6.48746 21.9032Z" fill="#1A1731"/>
<path d="M6.48746 21.9032L5.51087 22.0659L5.2481 22.1099L5.16053 21.8592L4.81017 20.8782L0.0805054 21.6832L8.09905 26.3902L6.48746 21.9032Z" fill="black" fill-opacity="0.2"/>
<path d="M31.8522 6.79248C31.077 6.79248 30.407 7.21919 30.0567 7.84825C29.9997 7.94943 29.9384 8.0682 29.9121 8.18698L29.7063 8.64008L28.2042 12.0273H23.7636L21.5433 16.0481V16.0613H30.9062V16.0305C30.9062 16.0305 30.9062 16.0173 30.9194 16.0305C30.9194 16.0305 30.9194 16.0305 30.9325 16.0305L33.2974 10.7032L33.836 9.4847C33.8929 9.29554 33.9236 9.08878 33.9236 8.88203C33.9148 7.72948 32.9952 6.79248 31.8522 6.79248Z" fill="#1A1731"/>
<path d="M31.8522 6.79248C31.077 6.79248 30.407 7.21919 30.0567 7.84825C29.9997 7.94943 29.9384 8.0682 29.9121 8.18698L29.7063 8.64008L28.2042 12.0273H23.7636L21.5433 16.0481V16.0613H30.9062V16.0305C30.9062 16.0305 30.9062 16.0173 30.9194 16.0305C30.9194 16.0305 30.9194 16.0305 30.9325 16.0305L33.2974 10.7032L33.836 9.4847C33.8929 9.29554 33.9236 9.08878 33.9236 8.88203C33.9148 7.72948 32.9952 6.79248 31.8522 6.79248Z" fill="black" fill-opacity="0.2"/>
</svg>
