<svg width="31" height="23" viewBox="0 0 31 23" fill="none" xmlns="http://www.w3.org/2000/svg">
<path d="M22.1406 18.7385V11.8588C22.1406 11.7225 22.0615 11.5984 21.9374 11.541L15.6725 8.62985C15.578 8.58619 15.4693 8.58619 15.3753 8.62985L9.11046 11.541C8.98641 11.5989 8.90723 11.7225 8.90723 11.8588V18.7385C8.90723 18.8747 8.98641 18.9989 9.11046 19.0562L15.3753 21.9674C15.4223 21.9895 15.4735 22 15.5242 22C15.5749 22 15.6256 21.989 15.6731 21.9674L21.9379 19.0562C22.0615 18.9989 22.1406 18.8747 22.1406 18.7385ZM15.5237 9.33424L20.9561 11.8588L15.5237 14.3833L10.0913 11.8588L15.5237 9.33424ZM9.61089 12.409L15.1721 14.9935V21.0994L9.61089 18.5154V12.409V12.409ZM15.8758 21.0994V14.9935L21.437 12.409V18.5149L15.8758 21.0994Z" fill="#E76100" stroke="#E76100" stroke-width="0.8"/>
<path d="M29.8449 3.94392L23.5795 1.03275C23.485 0.989084 23.3762 0.989084 23.2823 1.03275L17.0174 3.94392C16.8933 4.00126 16.8141 4.12541 16.8141 4.26166V7.86406C16.8141 8.05765 16.9715 8.21494 17.1662 8.21494C17.3605 8.21494 17.5183 8.05817 17.5183 7.86406V4.81191L23.0796 7.3964V14.0525C23.0796 14.1725 23.1408 14.284 23.2422 14.3482C23.2997 14.3845 23.3651 14.4029 23.4311 14.4029C23.4818 14.4029 23.5325 14.3918 23.58 14.3703L29.8449 11.4591C29.9689 11.4012 30.0481 11.2776 30.0481 11.1414V4.26166C30.0476 4.12541 29.9684 4.00126 29.8449 3.94392ZM23.4311 1.73713L28.8636 4.26166L23.4311 6.78618L17.9987 4.26166L23.4311 1.73713ZM23.7827 13.5023V7.3964L29.3439 4.81243V10.9183L23.7827 13.5023Z" fill="#E76100" stroke="#E76100" stroke-width="0.8"/>
<path d="M7.61698 14.4115C7.68296 14.4115 7.74895 14.3931 7.80596 14.3568C7.90731 14.2921 7.96855 14.1811 7.96855 14.0612V7.40452L13.5298 4.82003V7.87165C13.5298 8.06524 13.6871 8.22253 13.8819 8.22253C14.0761 8.22253 14.234 8.06577 14.234 7.87165V4.26977C14.234 4.13353 14.1548 4.00938 14.0307 3.95204L7.76531 1.04086C7.67082 0.997202 7.56208 0.997202 7.46812 1.04086L1.20323 3.95204C1.07918 4.00938 1 4.13353 1 4.26977V11.1495C1 11.2857 1.07918 11.4099 1.20323 11.4672L7.46812 14.3784C7.51563 14.4005 7.5663 14.4115 7.61698 14.4115ZM7.61698 1.74525L13.0494 4.26977L7.61698 6.7943L2.18456 4.26977L7.61698 1.74525ZM1.70366 10.9259V4.82003L7.26488 7.40399V13.5099L1.70366 10.9259Z" fill="#E76100" stroke="#E76100" stroke-width="0.8"/>
</svg>
