<svg width="25" height="24" viewBox="0 0 25 24" fill="none" xmlns="http://www.w3.org/2000/svg">
<path d="M12.4912 21.0409C10.0312 21.0409 9.74121 21.0279 8.78121 20.9859C8.03258 20.9613 7.29364 20.8091 6.59621 20.5359C5.38952 20.0663 4.43535 19.1117 3.96621 17.9049C3.70352 17.2049 3.56183 16.4654 3.54721 15.7179C3.49121 14.7599 3.49121 14.4459 3.49121 12.0049C3.49121 9.53788 3.50421 9.24988 3.54721 8.29488C3.56215 7.5484 3.70383 6.80989 3.96621 6.11088C4.43484 4.90241 5.39056 3.94706 6.59921 3.47888C7.29785 3.21509 8.03656 3.07303 8.78321 3.05888C9.73821 3.00488 10.0522 3.00488 12.4912 3.00488C14.9712 3.00488 15.2562 3.01788 16.2012 3.05888C16.9498 3.07315 17.6905 3.21519 18.3912 3.47888C19.5995 3.94759 20.555 4.90276 21.0242 6.11088C21.2913 6.82008 21.4338 7.57013 21.4452 8.32788C21.5012 9.28588 21.5012 9.59888 21.5012 12.0389C21.5012 14.4789 21.4872 14.7989 21.4452 15.7459C21.4303 16.4941 21.2883 17.2343 21.0252 17.9349C20.5549 19.1426 19.5993 20.0975 18.3912 20.5669C17.6915 20.8291 16.9523 20.9707 16.2052 20.9859C15.2502 21.0409 14.9372 21.0409 12.4912 21.0409ZM12.4572 4.58788C10.0112 4.58788 9.75721 4.59988 8.80221 4.64288C8.2322 4.65043 7.66769 4.75562 7.13321 4.95388C6.34396 5.25589 5.71944 5.87787 5.41421 6.66588C5.21442 7.20618 5.10922 7.77686 5.10321 8.35288C5.05021 9.32188 5.05021 9.57588 5.05021 12.0049C5.05021 14.4049 5.05921 14.6959 5.10321 15.6589C5.11216 16.2291 5.21731 16.7937 5.41421 17.3289C5.71989 18.1164 6.34431 18.7379 7.13321 19.0399C7.66733 19.2395 8.23206 19.3447 8.80221 19.3509C9.77021 19.4069 10.0252 19.4069 12.4572 19.4069C14.9102 19.4069 15.1642 19.3949 16.1112 19.3509C16.6816 19.3439 17.2465 19.2387 17.7812 19.0399C18.5657 18.7353 19.1861 18.1152 19.4912 17.3309C19.6906 16.7901 19.7958 16.2192 19.8022 15.6429H19.8132C19.8562 14.6869 19.8562 14.4319 19.8562 11.9889C19.8562 9.54588 19.8452 9.28888 19.8022 8.33388C19.7932 7.76433 19.6881 7.20039 19.4912 6.66588C19.1868 5.88046 18.5663 5.25918 17.7812 4.95388C17.2467 4.75462 16.6817 4.6494 16.1112 4.64288C15.1442 4.58788 14.8912 4.58788 12.4572 4.58788ZM12.4912 16.6239C10.6212 16.6251 8.93463 15.4996 8.21807 13.7723C7.50152 12.0451 7.89612 10.0562 9.21784 8.73334C10.5396 7.41047 12.5281 7.01415 14.256 7.72921C15.9839 8.44428 17.1108 10.1299 17.1112 11.9999C17.1085 14.5509 15.0423 16.6189 12.4912 16.6239ZM12.4912 8.99788C10.8344 8.99788 9.49121 10.341 9.49121 11.9979C9.49121 13.6547 10.8344 14.9979 12.4912 14.9979C14.1481 14.9979 15.4912 13.6547 15.4912 11.9979C15.4874 10.3426 14.1465 9.00173 12.4912 8.99788ZM17.2912 8.28489C16.6966 8.28268 16.2161 7.79947 16.2172 7.20489C16.2183 6.61031 16.7006 6.12889 17.2952 6.12889C17.8898 6.12889 18.3721 6.6103 18.3732 7.20488C18.3735 7.49174 18.2595 7.76691 18.0565 7.96956C17.8534 8.17222 17.5781 8.28568 17.2912 8.28489Z" fill="white"/>
</svg>
