<svg width="26" height="24" viewBox="0 0 26 24" fill="none" xmlns="http://www.w3.org/2000/svg">
<path d="M19.21 6C19.6298 6.00418 20.0356 6.15099 20.3609 6.4163C20.6862 6.68162 20.9116 7.04967 21 7.46L23 16.89C23.0301 17.0259 23.0286 17.1669 22.9957 17.3021C22.9628 17.4373 22.8992 17.5632 22.81 17.67C22.7293 17.7732 22.6261 17.8565 22.5082 17.9137C22.3904 17.9709 22.261 18.0004 22.13 18C21.9517 17.9993 21.7778 17.9444 21.6313 17.8426C21.4849 17.7408 21.3729 17.5969 21.31 17.43L20 14.58C19.8272 14.1647 19.5358 13.8095 19.1624 13.5588C18.7889 13.308 18.3499 13.1728 17.9 13.17H8.07003C7.62639 13.1718 7.19319 13.3047 6.82488 13.552C6.45657 13.7994 6.1696 14.15 6.00003 14.56L4.73003 17.38C4.67267 17.5211 4.57924 17.6447 4.45911 17.7384C4.33897 17.8321 4.19634 17.8926 4.04548 17.9139C3.89462 17.9352 3.74082 17.9164 3.59947 17.8596C3.45812 17.8027 3.33417 17.7098 3.24003 17.59C3.15323 17.4966 3.08701 17.3861 3.04567 17.2655C3.00432 17.1449 2.98877 17.017 3.00003 16.89L5.00003 7.46C5.0885 7.04967 5.31389 6.68162 5.63917 6.4163C5.96445 6.15099 6.37029 6.00418 6.79003 6H19.21ZM19.21 4H6.79003C5.91357 4.00636 5.06567 4.31237 4.38715 4.86719C3.70863 5.42202 3.24033 6.19226 3.06003 7.05L1.06003 16.48C0.969189 16.9065 0.975031 17.348 1.07713 17.7719C1.17922 18.1959 1.37498 18.5916 1.65003 18.93C1.96591 19.3198 2.37813 19.6203 2.84586 19.8017C3.3136 19.9832 3.82062 20.0393 4.31671 19.9645C4.81281 19.8898 5.28076 19.6867 5.67424 19.3754C6.06772 19.0642 6.37306 18.6556 6.56003 18.19L7.82003 15.34C7.83999 15.29 7.87446 15.247 7.91901 15.2167C7.96356 15.1864 8.01616 15.1702 8.07003 15.17H17.93C17.9889 15.1718 18.0457 15.192 18.0924 15.2279C18.1391 15.2638 18.1732 15.3136 18.19 15.37L19.43 18.17C19.614 18.6391 19.9178 19.0517 20.3112 19.3666C20.7045 19.6815 21.1736 19.8877 21.6715 19.9646C22.1695 20.0416 22.6789 19.9865 23.1489 19.8049C23.6189 19.6234 24.0331 19.3217 24.35 18.93C24.6251 18.5916 24.8208 18.1959 24.9229 17.7719C25.025 17.348 25.0309 16.9065 24.94 16.48L22.94 7.05C22.7498 6.2015 22.2773 5.44268 21.5997 4.8977C20.9221 4.35272 20.0796 4.00385 19.21 4Z" fill="#E76100"/>
<path fill-rule="evenodd" clip-rule="evenodd" d="M8.4 10.9C8.4 11.2312 8.6688 11.5 9 11.5C9.3312 11.5 9.6 11.2312 9.6 10.9V10.1H10.4C10.7312 10.1 11 9.8312 11 9.5C11 9.1688 10.7312 8.9 10.4 8.9H9.6V8.1C9.6 7.7688 9.3312 7.5 9 7.5C8.6688 7.5 8.4 7.7688 8.4 8.1V8.9H7.6C7.2688 8.9 7 9.1688 7 9.5C7 9.8312 7.2688 10.1 7.6 10.1H8.4V10.9Z" fill="#E76100"/>
<path d="M17.5 8C16.6735 8 16 8.6735 16 9.5C16 10.3265 16.6735 11 17.5 11C18.3265 11 19 10.3265 19 9.5C19 8.6735 18.3265 8 17.5 8Z" fill="#E76100"/>
</svg>
