<svg width="24" height="25" viewBox="0 0 24 25" fill="none" xmlns="http://www.w3.org/2000/svg">
<path d="M9.02388 8.90076H6.2864L5.74673 10.1678H4.69867L7.16239 4.69287H8.16353L10.6351 10.1678H9.57137L9.02388 8.90076ZM8.68756 8.10298L7.65514 5.70965L6.63054 8.10298H8.68756Z" fill="#E76100"/>
<path d="M19.2348 18.038L18.5465 17.3732C18.0355 17.8112 17.4229 18.0302 16.7085 18.0302C16.3279 18.0302 15.9863 17.9676 15.6839 17.8425C15.3815 17.7174 15.1442 17.5453 14.9722 17.3263C14.8001 17.1021 14.7141 16.8492 14.7141 16.5676C14.7141 16.2287 14.8131 15.9315 15.0113 15.676C15.2094 15.4153 15.5327 15.1598 15.9811 14.9095C15.7621 14.6905 15.6057 14.4871 15.5118 14.2994C15.418 14.1065 15.3711 13.9084 15.3711 13.705C15.3711 13.3192 15.5144 13.0089 15.8012 12.7743C16.0932 12.5344 16.4791 12.4145 16.9588 12.4145C17.402 12.4145 17.7566 12.524 18.0225 12.743C18.2884 12.9568 18.4214 13.2488 18.4214 13.619C18.4214 13.9005 18.3327 14.1508 18.1555 14.3698C17.9834 14.5888 17.6992 14.8104 17.3029 15.0346L18.4839 16.1609C18.6143 15.9054 18.716 15.5978 18.789 15.238L19.5789 15.4961C19.4747 15.981 19.3104 16.3982 19.0862 16.7475L19.7745 17.4045L19.2348 18.038ZM16.9588 13.1106C16.745 13.1106 16.5755 13.1653 16.4504 13.2748C16.3253 13.3791 16.2627 13.5173 16.2627 13.6894C16.2627 13.8145 16.2966 13.9344 16.3644 14.0491C16.4321 14.1586 16.5625 14.3099 16.7554 14.5028C17.0683 14.3307 17.2847 14.1821 17.4046 14.057C17.5297 13.9266 17.5923 13.7858 17.5923 13.6346C17.5923 13.473 17.535 13.3452 17.4202 13.2514C17.3107 13.1575 17.1569 13.1106 16.9588 13.1106ZM16.7789 17.2324C17.2325 17.2324 17.6288 17.0943 17.9677 16.8179L16.5208 15.4335C16.2079 15.6056 15.9863 15.7724 15.856 15.9341C15.7308 16.0905 15.6683 16.2678 15.6683 16.4659C15.6683 16.6954 15.7699 16.8805 15.9733 17.0213C16.1767 17.162 16.4452 17.2324 16.7789 17.2324Z" fill="#E76100"/>
<path d="M23.9963 10.5981C23.9963 9.17631 23.1061 8.29011 21.6806 8.29011C20.3428 8.29011 18.9806 8.29011 17.6622 8.29011C17.0833 8.29011 16.5092 8.29011 15.9303 8.29011H15.6238V7.82753C15.6238 5.09101 14.2325 2.60283 11.8973 1.1664C9.57186 -0.265162 6.72588 -0.386893 4.29342 0.845027C4.26423 0.859635 4.23018 0.879112 4.19612 0.89372C3.97234 1.00084 3.69504 1.13718 3.6026 1.40499C3.54909 1.56568 3.56855 1.74097 3.66585 1.93087C3.76315 2.12077 3.88963 2.2425 4.05018 2.29606C4.31775 2.37884 4.57559 2.23763 4.78964 2.12077C4.82856 2.10129 4.86748 2.07695 4.9064 2.05747C6.90102 1.04954 9.25078 1.14692 11.1821 2.31554C13.0697 3.45981 14.2179 5.43186 14.2568 7.59868C14.3006 10.306 13.133 12.3024 10.793 13.5246C8.47725 14.737 6.16155 14.552 3.90909 12.9743C3.6172 12.7698 3.18909 12.7747 3.01881 12.7844C2.80476 12.799 2.60043 12.8526 2.38151 12.9159C2.40097 12.8721 2.42043 12.838 2.43989 12.8039C2.85341 12.1563 2.62962 11.645 2.35718 11.2311C1.4815 9.88722 1.17501 8.45079 1.44744 6.95593C1.55934 6.35215 1.78799 5.74836 2.00691 5.16892C2.07015 4.9985 2.13826 4.8232 2.20151 4.64791C2.27935 4.43366 2.45935 3.93213 1.9534 3.66432C1.57393 3.46468 1.21393 3.60589 0.985277 4.03439C0.970682 4.05873 0.956088 4.08308 0.946358 4.10742C0.922033 4.15125 0.897708 4.19507 0.873384 4.23889C-0.192034 6.39597 -0.284467 8.61148 0.605813 10.827C0.678787 11.012 0.78095 11.1922 0.878249 11.3675C1.04366 11.6548 1.19933 11.9323 1.19447 12.1806C1.19447 12.4387 1.03879 12.7163 0.878249 13.0084C0.78095 13.1886 0.673922 13.3785 0.600948 13.5732C0.52311 13.7778 0.49392 14.1624 0.669057 14.3718C0.849059 14.586 1.23825 14.6104 1.44258 14.5763C1.87069 14.4984 2.31827 14.3864 2.84854 14.216C3.0626 14.1478 3.22314 14.1722 3.48585 14.3182C4.12315 14.664 4.86262 15.0535 5.63128 15.3213C6.51669 15.6281 7.47995 15.7206 8.64753 15.6086V16.5435C8.64753 17.4248 8.64753 18.2964 8.64753 19.168C8.64753 20.6531 9.52808 21.5345 10.9973 21.5393C11.5713 21.5393 12.1454 21.5393 12.7146 21.5393C14.0816 21.5393 15.4925 21.5393 16.879 21.5539C17.0784 21.5539 17.3217 21.6416 17.4822 21.7682C18.173 22.3038 18.859 22.8686 19.5206 23.4189C19.6714 23.5455 19.8222 23.6721 19.9779 23.7938C20.1677 23.9496 20.3477 24.0275 20.5228 24.0275C20.5423 24.0275 20.5617 24.0275 20.586 24.0227C20.7514 24.0032 20.8925 23.9204 21.0142 23.7695C21.1552 23.5893 21.1796 23.3263 21.1844 23.1218C21.1942 22.6933 21.1942 22.2746 21.1893 21.8315C21.1893 21.7341 21.1893 21.6367 21.1893 21.5393H21.2136C21.3547 21.5393 21.4763 21.5393 21.5979 21.5393C23.145 21.5345 23.9963 20.6775 23.9963 19.1242V18.3548C24.0012 15.8082 24.0012 13.1837 23.9963 10.5981ZM19.832 21.8899C19.832 21.8948 19.832 21.8997 19.832 21.8997C19.7493 21.8315 19.6666 21.7633 19.5839 21.7C19.1509 21.3494 18.7374 21.0232 18.353 20.6775C17.959 20.322 17.526 20.1613 16.9617 20.1613C16.9471 20.1613 16.9325 20.1613 16.9228 20.1613C15.4438 20.1808 13.9357 20.1759 12.4762 20.1759C11.9995 20.1759 11.5178 20.1759 11.0411 20.1711C10.2967 20.1711 10.0194 19.8984 10.0194 19.168C10.0194 18.2429 10.0194 17.3226 10.0194 16.3828V15.3359C11.4205 14.8636 12.5881 14.1478 13.4833 13.2032C14.3784 12.2634 15.0303 11.0656 15.4292 9.6535C15.979 9.6535 16.5287 9.6535 17.0784 9.6535C18.6547 9.6535 20.2893 9.64863 21.8898 9.66324C22.352 9.66811 22.639 10.009 22.639 10.564C22.6439 12.4338 22.639 14.3328 22.639 16.1686V18.1552C22.639 18.2769 22.639 18.3987 22.639 18.5204C22.639 18.7931 22.6439 19.0706 22.6342 19.3482C22.6196 19.8594 22.3131 20.1613 21.7974 20.1759C21.5882 20.1808 21.3693 20.1808 21.1601 20.1808C21.0093 20.1808 20.8536 20.1808 20.6979 20.1808C20.0606 20.1857 19.8417 20.4097 19.832 21.0573C19.8271 21.3154 19.8271 21.5832 19.832 21.8899Z" fill="#E76100"/>
<path d="M2.77559 3.42086C2.97991 3.42086 3.14532 3.27478 3.29127 3.14818C3.33992 3.10436 3.38857 3.06054 3.43235 3.03132L3.52965 2.96315L3.50532 2.51031L3.3983 2.45188C3.34965 2.42753 3.301 2.38858 3.24262 2.34963C3.08694 2.2425 2.90694 2.1159 2.70748 2.14025C2.44477 2.16946 2.11882 2.54927 2.13828 2.81221C2.16261 3.08488 2.50802 3.42086 2.77559 3.42086Z" fill="#E76100"/>
</svg>
