<svg width="25" height="24" viewBox="0 0 25 24" fill="none" xmlns="http://www.w3.org/2000/svg">
<path d="M13.4893 21H9.48926V9H13.4893V11C14.3419 9.91525 15.6349 9.26857 17.0143 9.237C19.4949 9.25077 21.4965 11.2694 21.4893 13.75V21H17.4893V14.25C17.3293 13.1326 16.371 12.3036 15.2423 12.306C14.7485 12.3216 14.2825 12.5378 13.9517 12.9046C13.6209 13.2715 13.4539 13.7573 13.4893 14.25V21ZM7.48926 21H3.48926V9H7.48926V21ZM5.48926 7C4.38469 7 3.48926 6.10457 3.48926 5C3.48926 3.89543 4.38469 3 5.48926 3C6.59383 3 7.48926 3.89543 7.48926 5C7.48926 5.53043 7.27854 6.03914 6.90347 6.41421C6.5284 6.78929 6.01969 7 5.48926 7Z" fill="white"/>
</svg>
