<svg width="25" height="24" viewBox="0 0 25 24" fill="none" xmlns="http://www.w3.org/2000/svg">
<path d="M13.5 21H9.5V9H13.5V11C14.3526 9.91525 15.6456 9.26857 17.025 9.237C19.5056 9.25077 21.5072 11.2694 21.5 13.75V21H17.5V14.25C17.34 13.1326 16.3818 12.3036 15.253 12.306C14.7593 12.3216 14.2932 12.5378 13.9624 12.9046C13.6316 13.2715 13.4646 13.7573 13.5 14.25V21ZM7.5 21H3.5V9H7.5V21ZM5.5 7C4.39543 7 3.5 6.10457 3.5 5C3.5 3.89543 4.39543 3 5.5 3C6.60457 3 7.5 3.89543 7.5 5C7.5 5.53043 7.28929 6.03914 6.91421 6.41421C6.53914 6.78929 6.03043 7 5.5 7Z" fill="#1A1731"/>
<path d="M13.5 21H9.5V9H13.5V11C14.3526 9.91525 15.6456 9.26857 17.025 9.237C19.5056 9.25077 21.5072 11.2694 21.5 13.75V21H17.5V14.25C17.34 13.1326 16.3818 12.3036 15.253 12.306C14.7593 12.3216 14.2932 12.5378 13.9624 12.9046C13.6316 13.2715 13.4646 13.7573 13.5 14.25V21ZM7.5 21H3.5V9H7.5V21ZM5.5 7C4.39543 7 3.5 6.10457 3.5 5C3.5 3.89543 4.39543 3 5.5 3C6.60457 3 7.5 3.89543 7.5 5C7.5 5.53043 7.28929 6.03914 6.91421 6.41421C6.53914 6.78929 6.03043 7 5.5 7Z" fill="black" fill-opacity="0.2"/>
</svg>
