<svg width="25" height="24" viewBox="0 0 25 24" fill="none" xmlns="http://www.w3.org/2000/svg">
<path d="M21.3712 10C21.3712 17 12.2121 23 12.2121 23C12.2121 23 3.05304 17 3.05304 10C3.05304 7.61305 4.01801 5.32387 5.73567 3.63604C7.45333 1.94821 9.78297 1 12.2121 1C14.6412 1 16.9709 1.94821 18.6885 3.63604C20.4062 5.32387 21.3712 7.61305 21.3712 10Z" stroke="#112350" stroke-width="2" stroke-linecap="round" stroke-linejoin="round"/>
<path d="M12.2121 13C13.8982 13 15.2651 11.6569 15.2651 10C15.2651 8.34315 13.8982 7 12.2121 7C10.5259 7 9.15906 8.34315 9.15906 10C9.15906 11.6569 10.5259 13 12.2121 13Z" stroke="#112350" stroke-width="2" stroke-linecap="round" stroke-linejoin="round"/>
</svg>
