<svg width="25" height="25" viewBox="0 0 25 25" fill="none" xmlns="http://www.w3.org/2000/svg">
<g clip-path="url(#clip0_793:9975)">
<path d="M21.3712 10.4082C21.3712 17.4082 12.2121 23.4082 12.2121 23.4082C12.2121 23.4082 3.05304 17.4082 3.05304 10.4082C3.05304 8.02125 4.01801 5.73207 5.73567 4.04424C7.45333 2.35641 9.78297 1.4082 12.2121 1.4082C14.6412 1.4082 16.9709 2.35641 18.6885 4.04424C20.4062 5.73207 21.3712 8.02125 21.3712 10.4082Z" stroke="#F87C22" stroke-width="2" stroke-linecap="round" stroke-linejoin="round"/>
<path d="M12.2121 13.4082C13.8982 13.4082 15.2651 12.0651 15.2651 10.4082C15.2651 8.75135 13.8982 7.4082 12.2121 7.4082C10.5259 7.4082 9.15906 8.75135 9.15906 10.4082C9.15906 12.0651 10.5259 13.4082 12.2121 13.4082Z" stroke="#F87C22" stroke-width="2" stroke-linecap="round" stroke-linejoin="round"/>
</g>
<defs>
<clipPath id="clip0_793:9975">
<rect width="24.4242" height="24" fill="white" transform="translate(0 0.408203)"/>
</clipPath>
</defs>
</svg>
