<svg width="155" height="32" viewBox="0 0 155 32" fill="none" xmlns="http://www.w3.org/2000/svg">
<path d="M34.2508 19.8692L38.7597 19.9044C40.5605 19.9044 41.9829 19.3765 43.0234 18.3207C43.6891 17.6626 44.2847 16.7934 44.7997 15.7165C45.08 15.2238 45.3147 14.7909 45.5109 14.4038H41.8778C41.9128 14.4636 41.9374 14.5199 41.9584 14.5903V14.6255C41.9584 14.8965 41.6886 15.4103 41.1631 16.174C40.8583 16.6772 39.9964 16.9377 38.5565 16.9377H35.8799L37.2708 14.4038H34.0125L29.2969 22.8852H32.5691C32.7198 22.6951 33.2803 21.6886 34.2508 19.8692Z" fill="#1A1731"/>
<path d="M34.2508 19.8692L38.7597 19.9044C40.5605 19.9044 41.9829 19.3765 43.0234 18.3207C43.6891 17.6626 44.2847 16.7934 44.7997 15.7165C45.08 15.2238 45.3147 14.7909 45.5109 14.4038H41.8778C41.9128 14.4636 41.9374 14.5199 41.9584 14.5903V14.6255C41.9584 14.8965 41.6886 15.4103 41.1631 16.174C40.8583 16.6772 39.9964 16.9377 38.5565 16.9377H35.8799L37.2708 14.4038H34.0125L29.2969 22.8852H32.5691C32.7198 22.6951 33.2803 21.6886 34.2508 19.8692Z" fill="black" fill-opacity="0.2"/>
<path d="M35.9433 10.9028L34.5068 13.486H45.9211C46.0718 13.1094 46.1558 12.8067 46.1418 12.6061C46.1313 12.3352 46.0718 12.1381 46.0017 11.9973C45.6163 11.2688 44.9051 10.9521 44.0608 10.9521H43.4056L35.9748 10.9169H35.9398V10.9028H35.9433Z" fill="#1A1731"/>
<path d="M35.9433 10.9028L34.5068 13.486H45.9211C46.0718 13.1094 46.1558 12.8067 46.1418 12.6061C46.1313 12.3352 46.0718 12.1381 46.0017 11.9973C45.6163 11.2688 44.9051 10.9521 44.0608 10.9521H43.4056L35.9748 10.9169H35.9398V10.9028H35.9433Z" fill="black" fill-opacity="0.2"/>
<path d="M46.7515 22.8606L51.5057 14.4004H48.1879L43.4688 22.8853H46.727L46.7515 22.8606Z" fill="#1A1731"/>
<path d="M46.7515 22.8606L51.5057 14.4004H48.1879L43.4688 22.8853H46.727L46.7515 22.8606Z" fill="black" fill-opacity="0.2"/>
<path d="M53.3528 11.0181H50.0105L48.6792 13.4815H51.997L53.3528 11.0181Z" fill="#1A1731"/>
<path d="M53.3528 11.0181H50.0105L48.6792 13.4815H51.997L53.3528 11.0181Z" fill="black" fill-opacity="0.2"/>
<path d="M66.8828 22.8606L71.637 14.4004H68.3192L63.6001 22.8853H66.8583L66.8828 22.8606Z" fill="#1A1731"/>
<path d="M66.8828 22.8606L71.637 14.4004H68.3192L63.6001 22.8853H66.8583L66.8828 22.8606Z" fill="black" fill-opacity="0.2"/>
<path d="M73.4827 11.0181H70.1404L68.8091 13.4815H72.1269L73.4827 11.0181Z" fill="#1A1731"/>
<path d="M73.4827 11.0181H70.1404L68.8091 13.4815H72.1269L73.4827 11.0181Z" fill="black" fill-opacity="0.2"/>
<path d="M86.3091 22.8606L91.0528 14.4004H87.735L83.0264 22.8853H86.2846L86.3091 22.8606Z" fill="#1A1731"/>
<path d="M86.3091 22.8606L91.0528 14.4004H87.735L83.0264 22.8853H86.2846L86.3091 22.8606Z" fill="black" fill-opacity="0.2"/>
<path d="M92.8997 11.0181H89.5574L88.2261 13.4815H91.5438L92.8997 11.0181Z" fill="#1A1731"/>
<path d="M92.8997 11.0181H89.5574L88.2261 13.4815H91.5438L92.8997 11.0181Z" fill="black" fill-opacity="0.2"/>
<path d="M58.0363 22.8606C58.5618 22.8149 58.9822 22.7445 59.287 22.6495C60.5482 22.2518 61.5537 21.548 62.279 20.5133L65.0957 15.421C65.3165 15.0444 65.5056 14.7066 65.6668 14.4004H62.0933C62.1038 14.4356 62.1178 14.4708 62.1178 14.5165C62.1178 14.8227 61.6028 15.7131 60.6919 17.4868C59.7705 19.1654 58.9507 19.8693 57.805 19.8693H54.4067V19.8341L57.3986 14.4004H54.0703L49.4072 22.8853H52.69L58.0363 22.8606Z" fill="#1A1731"/>
<path d="M58.0363 22.8606C58.5618 22.8149 58.9822 22.7445 59.287 22.6495C60.5482 22.2518 61.5537 21.548 62.279 20.5133L65.0957 15.421C65.3165 15.0444 65.5056 14.7066 65.6668 14.4004H62.0933C62.1038 14.4356 62.1178 14.4708 62.1178 14.5165C62.1178 14.8227 61.6028 15.7131 60.6919 17.4868C59.7705 19.1654 58.9507 19.8693 57.805 19.8693H54.4067V19.8341L57.3986 14.4004H54.0703L49.4072 22.8853H52.69L58.0363 22.8606Z" fill="black" fill-opacity="0.2"/>
<path d="M66.3439 12.6062C66.3439 12.3493 66.2984 12.1382 66.2038 11.9622C65.8289 11.2689 65.0126 10.917 63.7724 10.917H56.0263L55.9912 10.9522L54.5898 13.5001H66.1092C66.2739 13.12 66.3439 12.8174 66.3439 12.6062Z" fill="#1A1731"/>
<path d="M66.3439 12.6062C66.3439 12.3493 66.2984 12.1382 66.2038 11.9622C65.8289 11.2689 65.0126 10.917 63.7724 10.917H56.0263L55.9912 10.9522L54.5898 13.5001H66.1092C66.2739 13.12 66.3439 12.8174 66.3439 12.6062Z" fill="black" fill-opacity="0.2"/>
<path d="M78.8927 22.5331C80.0243 22.1706 81.0193 21.3964 81.8847 20.1857C82.8306 18.6725 83.3106 17.6976 83.3106 17.2648V17.0079L83.2405 16.6806C82.9602 16.0823 82.27 15.7761 81.1594 15.7761H76.3001C76.4403 15.5403 76.626 14.9561 77.4107 14.3931H73.648C72.9473 15.5087 72.4323 16.6102 72.6916 17.2929C72.9018 17.856 73.7531 18.1622 75.4033 18.1622H79.737C79.6915 18.4332 79.4112 18.866 78.8016 19.313C78.2761 19.7001 77.7611 19.8162 77.3407 19.8162H71.5354C71.4549 19.8162 71.0695 19.8162 70.6596 19.8162L68.9429 22.8674H77.3652C77.7821 22.8498 78.2971 22.7442 78.8927 22.5331Z" fill="#1A1731"/>
<path d="M78.8927 22.5331C80.0243 22.1706 81.0193 21.3964 81.8847 20.1857C82.8306 18.6725 83.3106 17.6976 83.3106 17.2648V17.0079L83.2405 16.6806C82.9602 16.0823 82.27 15.7761 81.1594 15.7761H76.3001C76.4403 15.5403 76.626 14.9561 77.4107 14.3931H73.648C72.9473 15.5087 72.4323 16.6102 72.6916 17.2929C72.9018 17.856 73.7531 18.1622 75.4033 18.1622H79.737C79.6915 18.4332 79.4112 18.866 78.8016 19.313C78.2761 19.7001 77.7611 19.8162 77.3407 19.8162H71.5354C71.4549 19.8162 71.0695 19.8162 70.6596 19.8162L68.9429 22.8674H77.3652C77.7821 22.8498 78.2971 22.7442 78.8927 22.5331Z" fill="black" fill-opacity="0.2"/>
<path d="M86.989 10.938H79.1027C77.0707 10.938 75.5047 11.7017 74.4186 13.2149C74.3485 13.31 74.303 13.3909 74.2329 13.4859H85.6016L86.989 10.938Z" fill="#1A1731"/>
<path d="M86.989 10.938H79.1027C77.0707 10.938 75.5047 11.7017 74.4186 13.2149C74.3485 13.31 74.303 13.3909 74.2329 13.4859H85.6016L86.989 10.938Z" fill="black" fill-opacity="0.2"/>
<path d="M112.845 12.5357C112.835 12.4302 112.8 12.2084 112.775 12.1029C112.635 11.3744 111.749 11.0225 110.169 11.0225H95.5522L94.1753 13.5H112.61C112.775 13.0847 112.866 12.768 112.845 12.5357Z" fill="#1A1731"/>
<path d="M112.845 12.5357C112.835 12.4302 112.8 12.2084 112.775 12.1029C112.635 11.3744 111.749 11.0225 110.169 11.0225H95.5522L94.1753 13.5H112.61C112.775 13.0847 112.866 12.768 112.845 12.5357Z" fill="black" fill-opacity="0.2"/>
<path d="M112.13 14.4004H108.672C108.682 14.4356 108.707 14.4708 108.707 14.5165V14.6573C108.556 15.0339 106.906 17.8246 104.149 22.8712H107.421L112.13 14.4004Z" fill="#1A1731"/>
<path d="M112.13 14.4004H108.672C108.682 14.4356 108.707 14.4708 108.707 14.5165V14.6573C108.556 15.0339 106.906 17.8246 104.149 22.8712H107.421L112.13 14.4004Z" fill="black" fill-opacity="0.2"/>
<path d="M96.9774 14.4004H93.6841L89 22.8853H92.2232L96.9774 14.4004Z" fill="#1A1731"/>
<path d="M96.9774 14.4004H93.6841L89 22.8853H92.2232L96.9774 14.4004Z" fill="black" fill-opacity="0.2"/>
<path d="M104.664 14.4004H101.356L96.6724 22.8853H99.9096L104.664 14.4004Z" fill="#1A1731"/>
<path d="M104.664 14.4004H101.356L96.6724 22.8853H99.9096L104.664 14.4004Z" fill="black" fill-opacity="0.2"/>
<path d="M122.738 14.5521V14.6577C122.738 14.9744 122.293 16.0056 121.547 17.4027C120.811 18.93 119.746 19.8556 118.569 19.8556H116.383C115.776 19.8556 115.482 19.655 115.482 19.2468V19.1764C115.482 18.835 116.183 17.6737 116.719 16.6777C117.094 15.9985 117.97 14.8231 118.625 14.4008H114.767C114.312 15.1856 113.681 16.3012 112.886 17.7687C111.8 19.553 111.25 20.7495 111.25 21.3478C111.25 21.4991 111.285 21.6997 111.355 21.9214C111.646 22.495 112.196 22.8118 113.016 22.8821H118.285C119.255 22.8364 120.016 22.6956 120.552 22.4246C121.242 22.1537 121.978 21.58 122.773 20.6861C123.088 20.2533 124.01 18.5852 125.555 15.6994C125.845 15.2067 126.08 14.7738 126.28 14.3867H122.682C122.717 14.4465 122.738 14.4923 122.738 14.5521Z" fill="#1A1731"/>
<path d="M122.738 14.5521V14.6577C122.738 14.9744 122.293 16.0056 121.547 17.4027C120.811 18.93 119.746 19.8556 118.569 19.8556H116.383C115.776 19.8556 115.482 19.655 115.482 19.2468V19.1764C115.482 18.835 116.183 17.6737 116.719 16.6777C117.094 15.9985 117.97 14.8231 118.625 14.4008H114.767C114.312 15.1856 113.681 16.3012 112.886 17.7687C111.8 19.553 111.25 20.7495 111.25 21.3478C111.25 21.4991 111.285 21.6997 111.355 21.9214C111.646 22.495 112.196 22.8118 113.016 22.8821H118.285C119.255 22.8364 120.016 22.6956 120.552 22.4246C121.242 22.1537 121.978 21.58 122.773 20.6861C123.088 20.2533 124.01 18.5852 125.555 15.6994C125.845 15.2067 126.08 14.7738 126.28 14.3867H122.682C122.717 14.4465 122.738 14.4923 122.738 14.5521Z" fill="black" fill-opacity="0.2"/>
<path d="M126.922 12.2753C126.666 11.3849 125.931 10.938 124.736 10.938H119.912C118.3 10.938 116.829 11.7122 115.508 13.2501C115.462 13.31 115.403 13.3909 115.343 13.4859H126.712C126.877 13.0882 126.957 12.7574 126.957 12.5252L126.922 12.2753Z" fill="#1A1731"/>
<path d="M126.922 12.2753C126.666 11.3849 125.931 10.938 124.736 10.938H119.912C118.3 10.938 116.829 11.7122 115.508 13.2501C115.462 13.31 115.403 13.3909 115.343 13.4859H126.712C126.877 13.0882 126.957 12.7574 126.957 12.5252L126.922 12.2753Z" fill="black" fill-opacity="0.2"/>
<path d="M18.4439 22.8606C19.4354 20.9814 19.9854 19.996 20.08 19.9045H25.0094L23.4433 22.8606H26.6315C26.7261 22.7551 28.0679 20.3479 30.6605 15.6427C30.9302 15.1852 31.1615 14.7734 31.3506 14.4004H27.8262C27.8367 14.4461 27.8507 14.4954 27.8507 14.5517V14.6925C27.8507 14.8579 27.4303 15.618 26.6 16.9694H21.6671C21.6671 16.899 22.7777 14.5869 23.5379 14.4004H19.8243L16.5415 20.3022C16.1106 21.0869 15.6411 21.9351 15.1401 22.8606V22.8853H18.4124L18.4439 22.8606Z" fill="#1A1731"/>
<path d="M18.4439 22.8606C19.4354 20.9814 19.9854 19.996 20.08 19.9045H25.0094L23.4433 22.8606H26.6315C26.7261 22.7551 28.0679 20.3479 30.6605 15.6427C30.9302 15.1852 31.1615 14.7734 31.3506 14.4004H27.8262C27.8367 14.4461 27.8507 14.4954 27.8507 14.5517V14.6925C27.8507 14.8579 27.4303 15.618 26.6 16.9694H21.6671C21.6671 16.899 22.7777 14.5869 23.5379 14.4004H19.8243L16.5415 20.3022C16.1106 21.0869 15.6411 21.9351 15.1401 22.8606V22.8853H18.4124L18.4439 22.8606Z" fill="black" fill-opacity="0.2"/>
<path d="M31.9852 12.6414C31.9852 12.5006 31.9501 12.2296 31.9151 12.1029C31.6804 11.283 30.759 10.9521 29.5187 10.9521L24.5543 10.9873C23.8291 11.0472 23.1424 11.2583 22.4733 11.6314C21.9478 11.8425 21.2471 12.4654 20.3572 13.4754C20.3572 13.4754 20.3467 13.486 20.3467 13.5001H31.7715C31.9011 13.1341 31.9852 12.9229 31.9852 12.6414Z" fill="#1A1731"/>
<path d="M31.9852 12.6414C31.9852 12.5006 31.9501 12.2296 31.9151 12.1029C31.6804 11.283 30.759 10.9521 29.5187 10.9521L24.5543 10.9873C23.8291 11.0472 23.1424 11.2583 22.4733 11.6314C21.9478 11.8425 21.2471 12.4654 20.3572 13.4754C20.3572 13.4754 20.3467 13.486 20.3467 13.5001H31.7715C31.9011 13.1341 31.9852 12.9229 31.9852 12.6414Z" fill="black" fill-opacity="0.2"/>
<path d="M5.60355 19.7634H10.7081L9.01242 22.885H12.4808L14.1625 19.8443C14.173 19.8197 14.187 19.7986 14.1975 19.7739C14.4533 19.2461 14.4778 19.2003 14.4533 18.9645C14.4078 18.4718 11.6961 18.2712 11.2056 18.2712L11.2301 18.1199C11.2301 18.1199 13.9873 18.1199 14.5234 17.9791C15.0594 17.8384 15.5289 17.321 15.9738 16.582L17.1194 14.4705H16.3942H13.5424C13.5424 14.4705 13.3672 14.9737 13.0624 15.4664C12.6525 16.1104 11.9763 16.5679 10.561 16.6277C10.4313 16.6277 10.3157 16.6383 10.1861 16.6383H7.29923C7.29923 16.5574 7.69512 15.8289 8.4799 14.4669C8.53945 14.3614 8.59551 14.2558 8.66558 14.1396H5.27773L0.439453 22.885H3.8273L5.60355 19.7634Z" fill="#1A1731"/>
<path d="M5.60355 19.7634H10.7081L9.01242 22.885H12.4808L14.1625 19.8443C14.173 19.8197 14.187 19.7986 14.1975 19.7739C14.4533 19.2461 14.4778 19.2003 14.4533 18.9645C14.4078 18.4718 11.6961 18.2712 11.2056 18.2712L11.2301 18.1199C11.2301 18.1199 13.9873 18.1199 14.5234 17.9791C15.0594 17.8384 15.5289 17.321 15.9738 16.582L17.1194 14.4705H16.3942H13.5424C13.5424 14.4705 13.3672 14.9737 13.0624 15.4664C12.6525 16.1104 11.9763 16.5679 10.561 16.6277C10.4313 16.6277 10.3157 16.6383 10.1861 16.6383H7.29923C7.29923 16.5574 7.69512 15.8289 8.4799 14.4669C8.53945 14.3614 8.59551 14.2558 8.66558 14.1396H5.27773L0.439453 22.885H3.8273L5.60355 19.7634Z" fill="black" fill-opacity="0.2"/>
<path d="M17.6941 13.496L17.7186 13.4608C17.9638 12.9082 18.0794 12.4859 18.0794 12.229L18.0444 11.9581C17.9638 11.6167 17.7886 11.3492 17.5539 11.124C17.0985 10.6911 16.3733 10.48 15.3818 10.48H7.33082L5.65967 13.496H9.07204H17.6941Z" fill="#1A1731"/>
<path d="M17.6941 13.496L17.7186 13.4608C17.9638 12.9082 18.0794 12.4859 18.0794 12.229L18.0444 11.9581C17.9638 11.6167 17.7886 11.3492 17.5539 11.124C17.0985 10.6911 16.3733 10.48 15.3818 10.48H7.33082L5.65967 13.496H9.07204H17.6941Z" fill="black" fill-opacity="0.2"/>
<path d="M17.6938 13.4968C17.6938 13.4862 17.7043 13.472 17.7043 13.4614L17.6938 13.4968Z" fill="#1A1731"/>
<path d="M17.6938 13.4968C17.6938 13.4862 17.7043 13.472 17.7043 13.4614L17.6938 13.4968Z" fill="black" fill-opacity="0.2"/>
<path d="M14.5757 8.77606H16.2714C16.422 8.52972 18.6782 4.40869 18.6782 4.40869H16.8775C16.8669 4.47908 16.8529 4.5741 16.8074 4.70079L14.5757 8.77606Z" fill="#E76100"/>
<path d="M23.9682 3.93099L24.6688 2.66406L20.5207 2.67462L19.8306 3.93099C20.4367 3.93099 21.1163 3.94154 21.747 3.94154C22.9521 3.93099 23.9682 3.93099 23.9682 3.93099Z" fill="#E76100"/>
<path d="M28.3174 8.77783L29.1828 7.25048H24.8805L25.3465 6.38123H27.7289L28.4295 5.13894H26.0577C26.1978 4.86796 26.3625 4.57586 26.4536 4.3999H24.7544C24.2044 5.40992 23.3635 6.93375 22.3721 8.76727H28.3174V8.77783Z" fill="#E76100"/>
<path d="M31.0843 8.74178L31.9707 7.18276H34.4932L33.6419 8.75586L35.3586 8.73122L36.1994 7.21795C36.2099 7.2074 36.2099 7.19332 36.2099 7.18276C36.3395 6.92586 36.3501 6.90122 36.3395 6.78509C36.315 6.53874 34.9732 6.44372 34.7385 6.44372L34.749 6.36278C34.749 6.36278 36.1153 6.36278 36.3746 6.29239C36.6443 6.22201 36.8756 5.96511 37.0858 5.5991L37.7059 4.39201H35.9402C35.9402 4.39201 35.8 4.80376 35.6353 5.0501C35.4357 5.36684 35.0993 5.58855 34.3986 5.62374C34.3391 5.62374 34.283 5.62374 34.2129 5.62374H32.787C32.787 5.58855 32.9867 5.22607 33.3721 4.54333C33.4071 4.48351 33.4317 4.43776 33.4667 4.37793H31.7956L29.3887 8.71011H31.0843V8.74178Z" fill="#E76100"/>
<path d="M38.0259 3.56866L38.0014 3.43844C37.9559 3.27304 37.8718 3.13227 37.7562 3.02669C37.5354 2.81554 37.1711 2.70996 36.6806 2.70996H32.6972L32.021 3.94169H37.9313C37.9909 3.77981 38.0259 3.66016 38.0259 3.56866Z" fill="#E76100"/>
<path d="M9.98278 8.75564L12.4247 4.40234H10.7185L8.28711 8.78027H9.96877L9.98278 8.75564Z" fill="#E76100"/>
<path d="M13.3753 2.66406H11.6586L10.9824 3.93099H12.6886L13.3753 2.66406Z" fill="#E76100"/>
<path d="M18.8041 3.93099L18.8147 3.92043C18.9198 3.68464 18.9653 3.50868 18.9653 3.4031L18.9548 3.28697C18.9198 3.1462 18.8497 3.03006 18.7446 2.93504C18.5589 2.75908 18.2541 2.66406 17.8232 2.66406H14.4248L13.7241 3.93099H15.1605H18.8041Z" fill="#E76100"/>
<path d="M20.7903 4.40234L18.3589 8.78027H20.03L20.0405 8.75564L22.4825 4.40234H20.7903Z" fill="#E76100"/>
<path d="M12.7649 8.77783L12.7894 8.7532L15.2313 4.3999H13.5252L11.0938 8.77783H12.7649Z" fill="#E76100"/>
<path d="M31.7049 2.66406H25.7C25.6754 2.6887 25.4442 3.11101 24.9888 3.93099H31.0042L31.7049 2.66406Z" fill="#E76100"/>
<path d="M147.424 4.52926C148.667 4.52926 149.68 3.51572 149.68 2.26287C149.68 1.01002 148.671 0 147.424 0C146.18 0 145.167 1.01354 145.167 2.26639C145.167 3.51924 146.18 4.52926 147.424 4.52926Z" fill="#1A1731"/>
<path d="M147.424 4.52926C148.667 4.52926 149.68 3.51572 149.68 2.26287C149.68 1.01002 148.671 0 147.424 0C146.18 0 145.167 1.01354 145.167 2.26639C145.167 3.51924 146.18 4.52926 147.424 4.52926Z" fill="black" fill-opacity="0.2"/>
<path d="M146.607 17.8951C146.526 17.8353 146.442 17.779 146.351 17.7297C146.327 17.7192 146.292 17.6946 146.257 17.684L144.96 16.9555L139.646 13.8691V13.8797L139.621 13.8691L131.29 28.3649L130.905 29.023C130.859 29.0934 130.81 29.1743 130.764 29.2588C130.754 29.2834 130.74 29.3045 130.729 29.3397L130.719 29.3503C130.614 29.586 130.554 29.8535 130.554 30.135C130.554 31.1662 131.325 32.0002 132.285 32.0002C132.845 32.0002 133.346 31.7081 133.662 31.2506L134.142 30.4166L136.349 26.5665L145.437 24.1242C145.542 24.0996 145.647 24.0784 145.752 24.0433L145.847 24.0186V24.0081C147.098 23.5506 147.998 22.259 147.998 20.7563C147.998 20.0876 147.823 19.4647 147.518 18.9368C147.297 18.5181 146.982 18.1661 146.607 17.8951ZM141.734 21.4777L138.836 22.252L140.917 18.6377L141.979 19.2465L144.515 20.7141L141.734 21.4777Z" fill="#1A1731"/>
<path d="M146.607 17.8951C146.526 17.8353 146.442 17.779 146.351 17.7297C146.327 17.7192 146.292 17.6946 146.257 17.684L144.96 16.9555L139.646 13.8691V13.8797L139.621 13.8691L131.29 28.3649L130.905 29.023C130.859 29.0934 130.81 29.1743 130.764 29.2588C130.754 29.2834 130.74 29.3045 130.729 29.3397L130.719 29.3503C130.614 29.586 130.554 29.8535 130.554 30.135C130.554 31.1662 131.325 32.0002 132.285 32.0002C132.845 32.0002 133.346 31.7081 133.662 31.2506L134.142 30.4166L136.349 26.5665L145.437 24.1242C145.542 24.0996 145.647 24.0784 145.752 24.0433L145.847 24.0186V24.0081C147.098 23.5506 147.998 22.259 147.998 20.7563C147.998 20.0876 147.823 19.4647 147.518 18.9368C147.297 18.5181 146.982 18.1661 146.607 17.8951ZM141.734 21.4777L138.836 22.252L140.917 18.6377L141.979 19.2465L144.515 20.7141L141.734 21.4777Z" fill="black" fill-opacity="0.2"/>
<path d="M131.479 16.3828L131.76 17.1676L132.541 17.0374L132.751 17.0022L136.57 16.3582L134.934 15.3974L138.052 9.96372L142.456 9.02408V9.01353C143.167 8.82701 143.706 8.13372 143.706 7.29966C143.706 6.32483 142.981 5.54004 142.081 5.54004C141.941 5.54004 141.801 5.56467 141.671 5.59987L135.817 6.84216L135.806 6.8316L131.903 13.6132L130.103 12.5574L131.388 16.1822L131.479 16.3828Z" fill="#1A1731"/>
<path d="M131.479 16.3828L131.76 17.1676L132.541 17.0374L132.751 17.0022L136.57 16.3582L134.934 15.3974L138.052 9.96372L142.456 9.02408V9.01353C143.167 8.82701 143.706 8.13372 143.706 7.29966C143.706 6.32483 142.981 5.54004 142.081 5.54004C141.941 5.54004 141.801 5.56467 141.671 5.59987L135.817 6.84216L135.806 6.8316L131.903 13.6132L130.103 12.5574L131.388 16.1822L131.479 16.3828Z" fill="black" fill-opacity="0.2"/>
<path d="M129.935 12.6519L127.483 16.8538L131.197 16.2204L129.935 12.6519Z" fill="#1A1731"/>
<path d="M129.935 12.6519L127.483 16.8538L131.197 16.2204L129.935 12.6519Z" fill="black" fill-opacity="0.2"/>
<path d="M134.106 20.8053L136.582 16.5576L132.82 17.2016L134.106 20.8053Z" fill="#1A1731"/>
<path d="M134.106 20.8053L136.582 16.5576L132.82 17.2016L134.106 20.8053Z" fill="black" fill-opacity="0.2"/>
<path d="M132.611 17.2409L131.83 17.3711L131.62 17.4063L131.55 17.2057L131.27 16.4209L127.486 17.0649L133.901 20.8305L132.611 17.2409Z" fill="#1A1731"/>
<path d="M132.611 17.2409L131.83 17.3711L131.62 17.4063L131.55 17.2057L131.27 16.4209L127.486 17.0649L133.901 20.8305L132.611 17.2409Z" fill="black" fill-opacity="0.2"/>
<path d="M152.903 5.15234C152.283 5.15234 151.747 5.49371 151.467 5.99696C151.421 6.0779 151.372 6.17292 151.351 6.26794L151.187 6.63042L149.985 9.34024H146.432L144.656 12.5568V12.5674H152.147V12.5427C152.147 12.5427 152.147 12.5322 152.157 12.5427C152.157 12.5427 152.157 12.5427 152.168 12.5427L154.06 8.28095L154.49 7.30612C154.536 7.15479 154.561 6.98939 154.561 6.82398C154.554 5.90194 153.818 5.15234 152.903 5.15234Z" fill="#1A1731"/>
<path d="M152.903 5.15234C152.283 5.15234 151.747 5.49371 151.467 5.99696C151.421 6.0779 151.372 6.17292 151.351 6.26794L151.187 6.63042L149.985 9.34024H146.432L144.656 12.5568V12.5674H152.147V12.5427C152.147 12.5427 152.147 12.5322 152.157 12.5427C152.157 12.5427 152.157 12.5427 152.168 12.5427L154.06 8.28095L154.49 7.30612C154.536 7.15479 154.561 6.98939 154.561 6.82398C154.554 5.90194 153.818 5.15234 152.903 5.15234Z" fill="black" fill-opacity="0.2"/>
</svg>
