<svg width="250" height="53" viewBox="0 0 250 53" fill="none" xmlns="http://www.w3.org/2000/svg">
<path d="M54.8417 32.8364L62.1571 32.8926C65.0753 32.8926 67.3889 32.0182 69.0728 30.2743C70.1522 29.1901 71.1216 27.7531 71.9511 25.9684C72.4058 25.1552 72.7855 24.4342 73.1053 23.7949H67.214C67.269 23.8921 67.3089 23.9893 67.3489 24.1069V24.1631C67.3489 24.608 66.9142 25.4621 66.0597 26.7252C65.565 27.5588 64.1659 27.9884 61.8323 27.9884H57.495L59.7486 23.8H54.4669L46.8066 37.8174H52.1134C52.3632 37.5105 53.2726 35.8383 54.8417 32.8364Z" fill="white"/>
<path d="M57.5903 18.0166L55.2617 22.2816H73.7753C74.0201 21.6629 74.155 21.1566 74.135 20.8293C74.1151 20.3844 74.0201 20.052 73.9052 19.8218C73.2806 18.62 72.1263 18.0933 70.7571 18.0933H69.6978L57.6452 18.0371H57.5903V18.0166V18.0166Z" fill="white"/>
<path d="M75.1186 37.7823L82.8338 23.8008H77.4521L69.7969 37.8232H75.0836L75.1186 37.7823Z" fill="white"/>
<path d="M85.8264 18.2109H80.4048L78.2461 22.2816H83.6278L85.8264 18.2109Z" fill="white"/>
<path d="M107.773 37.7823L115.488 23.8008H110.106L102.451 37.8232H107.738L107.773 37.7823Z" fill="white"/>
<path d="M118.481 18.2109H113.059L110.9 22.2816H116.282L118.481 18.2109Z" fill="white"/>
<path d="M139.288 37.7823L146.984 23.8008H141.602L133.967 37.8232H139.254L139.288 37.7823Z" fill="white"/>
<path d="M149.977 18.2109H144.555L142.396 22.2816H147.778L149.977 18.2109Z" fill="white"/>
<path d="M93.4271 37.7823C94.2816 37.7056 94.9611 37.588 95.4558 37.4346C97.5046 36.7749 99.1336 35.614 100.308 33.906L104.875 25.4884C105.235 24.8696 105.54 24.3071 105.804 23.8008H100.008C100.028 23.857 100.048 23.9184 100.048 23.9951C100.048 24.5014 99.2135 25.9742 97.7344 28.8994C96.2353 31.6712 94.9112 32.8371 93.0523 32.8371H87.5357V32.7809L92.3877 23.8008H86.9861L79.4258 37.8232H84.7525L93.4271 37.7823Z" fill="white"/>
<path d="M106.899 20.8286C106.899 20.4041 106.824 20.0513 106.669 19.7598C106.065 18.6142 104.735 18.0312 102.727 18.0312H90.1645L90.1095 18.0875L87.8359 22.2963H106.519C106.789 21.6826 106.899 21.1763 106.899 20.8286Z" fill="white"/>
<path d="M127.251 37.24C129.09 36.6365 130.699 35.358 132.103 33.3636C133.637 30.8629 134.417 29.252 134.417 28.536V28.1116L134.302 27.5695C133.847 26.5825 132.728 26.0762 130.929 26.0762H123.044C123.274 25.6875 123.574 24.721 124.843 23.7852H118.742C117.602 25.6262 116.773 27.4519 117.188 28.5769C117.527 29.5077 118.912 30.014 121.585 30.014H128.615C128.541 30.4589 128.086 31.1799 127.101 31.9163C126.247 32.5556 125.412 32.7499 124.733 32.7499H115.314C115.179 32.7499 114.554 32.7499 113.895 32.7499L111.111 37.7923H124.773C125.452 37.7616 126.287 37.5877 127.251 37.24Z" fill="white"/>
<path d="M140.389 18.0781H127.597C124.299 18.0781 121.76 19.3413 119.996 21.842C119.881 21.9954 119.806 22.1335 119.691 22.2869H138.13L140.389 18.0781Z" fill="white"/>
<path d="M182.321 20.7117C182.301 20.5378 182.246 20.1696 182.206 19.9957C181.977 18.7939 180.537 18.2109 177.979 18.2109H154.274L152.035 22.3021H181.942C182.211 21.6271 182.361 21.1003 182.321 20.7117Z" fill="white"/>
<path d="M181.168 23.7949H175.556C175.576 23.8512 175.611 23.9125 175.611 23.9893V24.2245C175.366 24.8433 172.693 29.4612 168.221 37.8021H173.527L181.168 23.7949Z" fill="white"/>
<path d="M156.588 23.7949H151.247L143.646 37.8174H148.878L156.588 23.7949Z" fill="white"/>
<path d="M169.06 23.7949H163.698L156.098 37.8174H161.349L169.06 23.7949Z" fill="white"/>
<path d="M198.378 24.0506V24.2244C198.378 24.7461 197.658 26.4541 196.444 28.7605C195.25 31.2817 193.526 32.8159 191.612 32.8159H188.069C187.085 32.8159 186.61 32.4886 186.61 31.8084V31.6908C186.61 31.1283 187.749 29.2105 188.619 27.5587C189.223 26.4337 190.647 24.4955 191.707 23.7949H185.451C184.711 25.0938 183.687 26.9348 182.397 29.3588C180.634 32.3045 179.744 34.2836 179.744 35.2757C179.744 35.5263 179.799 35.8587 179.914 36.2269C180.389 37.1781 181.278 37.6997 182.607 37.8173H191.152C192.726 37.7406 193.955 37.5054 194.83 37.0605C195.949 36.6155 197.143 35.6643 198.433 34.1915C198.942 33.4756 200.441 30.7192 202.945 25.9478C203.42 25.1347 203.799 24.4137 204.119 23.7744H198.283C198.338 23.8767 198.378 23.9534 198.378 24.0506Z" fill="white"/>
<path d="M205.157 20.2874C204.743 18.8145 203.548 18.0781 201.614 18.0781H193.789C191.176 18.0781 188.787 19.3566 186.644 21.8982C186.569 21.9954 186.474 22.1335 186.379 22.2869H204.818C205.082 21.6272 205.217 21.0851 205.217 20.6965L205.157 20.2874Z" fill="white"/>
<path d="M29.2015 37.7823C30.8105 34.6782 31.705 33.0519 31.8549 32.8934H39.8499L37.3115 37.7823H42.4833C42.6332 37.6085 44.8118 33.6298 49.0192 25.8566C49.454 25.0997 49.8337 24.4196 50.1385 23.8008H44.4221C44.4421 23.8775 44.4621 23.9542 44.4621 24.0514V24.2866C44.4621 24.5576 43.7775 25.8208 42.4333 28.0505H34.4383C34.4383 27.9329 36.2372 24.1127 37.4714 23.8008H31.4401L26.1134 33.5531C25.4139 34.852 24.6543 36.2481 23.8398 37.7823V37.8232H29.1466L29.2015 37.7823Z" fill="white"/>
<path d="M51.1682 20.886C51.1682 20.6507 51.1133 20.2058 51.0533 19.9961C50.6735 18.6409 49.1795 18.0938 47.1707 18.0938L39.1157 18.1551C37.9414 18.2523 36.8221 18.6 35.7428 19.2239C34.8883 19.5717 33.754 20.5996 32.3149 22.2667C32.3149 22.2667 32.2949 22.2872 32.2949 22.3076H50.8284C51.0333 21.7042 51.1682 21.3564 51.1682 20.886Z" fill="white"/>
<path d="M8.37481 32.6624H16.6547L13.9064 37.8224H19.5379L22.2662 32.8005C22.2862 32.7596 22.3062 32.7238 22.3212 32.6829C22.7359 31.8084 22.7759 31.7317 22.7359 31.343C22.661 30.5299 18.2637 30.1975 17.4692 30.1975L17.5092 29.9469C17.5092 29.9469 21.9814 29.9469 22.8508 29.7116C23.7203 29.4764 24.4798 28.6275 25.1994 27.4053L27.0582 23.9124H25.884H21.2618C21.2618 23.9124 20.977 24.746 20.4873 25.5591C19.8227 26.6279 18.7234 27.3797 16.4298 27.4769C16.22 27.4769 16.0301 27.4973 15.8252 27.4973H11.1431C11.1431 27.3592 11.7877 26.1575 13.0569 23.9073C13.1519 23.7334 13.2468 23.5596 13.3617 23.3652H7.86513L0 37.8173H5.49659L8.37481 32.6624Z" fill="white"/>
<path d="M27.9875 22.3023L28.0275 22.246C28.4272 21.3357 28.6171 20.6351 28.6171 20.2107L28.5622 19.7658C28.4272 19.2032 28.1474 18.7583 27.7677 18.3901C27.0281 17.6742 25.8538 17.3213 24.2448 17.3213H11.1829L8.47461 22.3074H14.0062H27.9875V22.3023Z" fill="white"/>
<path d="M27.9883 22.3034C27.9883 22.2825 28.0086 22.2617 28.0086 22.2461L27.9883 22.3034Z" fill="white"/>
<path d="M22.9316 14.5088H25.6799C25.9248 14.0996 29.5825 7.29297 29.5825 7.29297H26.6643C26.6443 7.41059 26.6244 7.56401 26.5494 7.77879L22.9316 14.5088Z" fill="white"/>
<path d="M38.1659 6.49418L39.3052 4.39746L32.5744 4.42303L31.4551 6.49929C32.4395 6.49929 33.5388 6.51975 34.5631 6.51975C36.5169 6.49418 38.1659 6.49418 38.1659 6.49418Z" fill="white"/>
<path d="M45.2163 14.5077L46.6204 11.9866H39.6447L40.4043 10.5495H44.2719L45.4112 8.49372H41.5636C41.7934 8.04881 42.0582 7.56298 42.2082 7.27148H39.4399C38.5504 8.93863 37.1863 11.4598 35.5723 14.4873H45.2163V14.5077Z" fill="white"/>
<path d="M49.7095 14.4475L51.1486 11.87H55.241L53.8569 14.4679L56.6402 14.427L58.0043 11.9263C58.0243 11.9058 58.0243 11.8854 58.0243 11.87C58.2342 11.4456 58.2542 11.4047 58.2342 11.2103C58.1942 10.8012 56.0155 10.6478 55.6358 10.6478L55.6558 10.5097C55.6558 10.5097 57.8744 10.5097 58.2891 10.3921C58.7239 10.2745 59.1036 9.85002 59.4434 9.24657L60.4478 7.24702H57.5846C57.5846 7.24702 57.3547 7.92717 57.0899 8.33118C56.7701 8.8528 56.2204 9.221 55.0811 9.28237C54.9862 9.28237 54.8913 9.28237 54.7763 9.28237H52.4628C52.4628 9.22612 52.7826 8.62267 53.4122 7.4976C53.4671 7.40044 53.5071 7.32373 53.5621 7.22656H50.8538L46.9512 14.381H49.6995V14.4475H49.7095Z" fill="white"/>
<path d="M60.9627 5.89606L60.9227 5.68127C60.8478 5.41023 60.7129 5.17499 60.523 5.00112C60.1632 4.65337 59.5736 4.47949 58.7791 4.47949H52.3181L51.2188 6.51485H60.8078C60.9077 6.24381 60.9627 6.04948 60.9627 5.89606Z" fill="white"/>
<path d="M15.4807 14.4668L19.4433 7.27148H16.675L12.7324 14.5077H15.4607L15.4807 14.4668Z" fill="white"/>
<path d="M20.9763 4.40332H18.1931L17.0938 6.50004H19.862L20.9763 4.40332Z" fill="white"/>
<path d="M29.7918 6.49418L29.8118 6.47373C29.9817 6.08507 30.0566 5.79357 30.0566 5.6197L30.0366 5.42537C29.9817 5.19012 29.8667 5.00091 29.6968 4.84237C29.392 4.55088 28.9023 4.39746 28.1978 4.39746H22.6862L21.5469 6.49418H23.8754H29.7918Z" fill="white"/>
<path d="M33.0148 7.27148L29.0723 14.5077H31.7806L31.8006 14.4668L35.7631 7.27148H33.0148Z" fill="white"/>
<path d="M19.9915 14.5077L20.0315 14.4668L23.994 7.27148H21.2258L17.2832 14.5077H19.9915V14.5077Z" fill="white"/>
<path d="M50.7146 4.40332H40.9707C40.9307 4.44423 40.5559 5.13973 39.8164 6.50004H49.5754L50.7146 4.40332Z" fill="white"/>
<path d="M238.418 7.48683C240.436 7.48683 242.075 5.80945 242.075 3.74341C242.075 1.67738 240.436 0 238.418 0C236.399 0 234.76 1.67738 234.76 3.74341C234.76 5.80945 236.399 7.48683 238.418 7.48683Z" fill="white"/>
<path d="M237.094 29.5788C236.959 29.4816 236.829 29.3845 236.679 29.3078C236.639 29.2873 236.584 29.2515 236.529 29.2311L234.425 28.0293L225.801 22.9307V22.9511L225.761 22.9307L212.249 46.8844L211.624 47.9686C211.549 48.0862 211.474 48.2192 211.394 48.3572C211.374 48.3981 211.355 48.4339 211.34 48.4953L211.32 48.5158C211.15 48.9044 211.055 49.3493 211.055 49.8147C211.055 51.5228 212.304 52.8984 213.858 52.8984C214.767 52.8984 215.582 52.4126 216.097 51.6557L216.871 50.2801L220.454 43.9183L235.2 39.8834C235.37 39.8425 235.539 39.8067 235.709 39.7453L235.859 39.7044V39.684C237.888 38.9271 239.347 36.7946 239.347 34.3092C239.347 33.2046 239.062 32.1767 238.573 31.3022C238.208 30.6067 237.698 30.0237 237.094 29.5788ZM229.188 35.4905L224.486 36.769L227.859 30.7959L229.583 31.8034L233.696 34.2274L229.188 35.4905Z" fill="white"/>
<path d="M212.549 27.0728L213.003 28.3718L214.273 28.157L214.612 28.1007L220.809 27.0319L218.155 25.4415L223.217 16.4614L230.363 14.9119V14.8914C231.517 14.5795 232.391 13.439 232.391 12.0583C232.391 10.4474 231.217 9.14844 229.758 9.14844C229.528 9.14844 229.303 9.18935 229.093 9.2456L219.599 11.3014L219.579 11.281L213.248 22.4907L210.33 20.7469L212.414 26.7404L212.549 27.0728Z" fill="white"/>
<path d="M210.05 20.9062L206.072 27.851L212.099 26.8026L210.05 20.9062Z" fill="white"/>
<path d="M216.816 34.3857L220.834 27.3643L214.732 28.4331L216.816 34.3857Z" fill="white"/>
<path d="M214.386 28.49L213.117 28.7047L212.777 28.761L212.662 28.4337L212.208 27.1348L206.066 28.2036L216.47 34.4273L214.386 28.49Z" fill="white"/>
<path d="M247.306 8.51465C246.302 8.51465 245.433 9.07718 244.978 9.91076C244.903 10.0488 244.828 10.2023 244.788 10.3557L244.523 10.9591L242.569 15.4389H236.808L233.93 20.7523V20.7728H246.077V20.7319C246.077 20.7319 246.077 20.7114 246.097 20.7319C246.097 20.7319 246.097 20.7319 246.117 20.7319L249.185 13.69L249.885 12.0791C249.96 11.8285 250 11.5575 250 11.2864C249.98 9.75734 248.786 8.51465 247.306 8.51465Z" fill="white"/>
</svg>
