<svg width="112" height="24" viewBox="0 0 112 24" fill="none" xmlns="http://www.w3.org/2000/svg">
<path d="M24.4583 14.3724L27.7199 14.3978C29.0225 14.3978 30.0515 14.016 30.8041 13.2523C31.2857 12.7762 31.7165 12.1474 32.089 11.3684C32.2918 11.012 32.4616 10.6989 32.6035 10.4189H29.9754C30.0008 10.4622 30.0185 10.5029 30.0337 10.5538V10.5793C30.0337 10.7753 29.8386 11.147 29.4584 11.6994C29.2379 12.0634 28.6145 12.2518 27.5729 12.2518H25.6367L26.6428 10.4189H24.2859L20.8748 16.554H23.2418C23.3508 16.4166 23.7563 15.6885 24.4583 14.3724Z" fill="white"/>
<path d="M25.6824 7.88715L24.6433 9.7557H32.9001C33.009 9.48331 33.0698 9.26437 33.0597 9.11927C33.0521 8.92325 33.009 8.78069 32.9583 8.67886C32.6796 8.1519 32.1651 7.92279 31.5543 7.92279H31.0804L25.7052 7.89733H25.6798V7.88715H25.6824Z" fill="white"/>
<path d="M33.5006 16.5364L36.9397 10.4165H34.5397L31.126 16.5542H33.4829L33.5006 16.5364Z" fill="white"/>
<path d="M38.2759 7.9707H35.8582L34.8951 9.7527H37.2951L38.2759 7.9707Z" fill="white"/>
<path d="M48.063 16.5364L51.5021 10.4165H49.1021L45.6884 16.5542H48.0453L48.063 16.5364Z" fill="white"/>
<path d="M52.8371 7.9707H50.4194L49.4564 9.7527H51.8563L52.8371 7.9707Z" fill="white"/>
<path d="M62.1154 16.5364L65.5469 10.4165H63.1469L59.7408 16.5542H62.0977L62.1154 16.5364Z" fill="white"/>
<path d="M66.883 7.9707H64.4653L63.5023 9.7527H65.9022L66.883 7.9707Z" fill="white"/>
<path d="M41.6637 16.5364C42.0439 16.5033 42.348 16.4524 42.5685 16.3836C43.4808 16.096 44.2082 15.5868 44.7328 14.8384L46.7703 11.1548C46.93 10.8824 47.0669 10.638 47.1834 10.4165H44.5985C44.6061 10.442 44.6162 10.4674 44.6162 10.5005C44.6162 10.722 44.2437 11.3661 43.5847 12.6491C42.9182 13.8634 42.3252 14.3725 41.4965 14.3725H39.0382V14.3471L41.2025 10.4165H38.7949L35.4218 16.5542H37.7964L41.6637 16.5364Z" fill="white"/>
<path d="M47.6733 9.11852C47.6733 8.93268 47.6404 8.77994 47.572 8.65265C47.3008 8.15115 46.7103 7.89658 45.8132 7.89658H40.2098L40.1845 7.92203L39.1708 9.76513H47.5035C47.6226 9.4902 47.6733 9.27126 47.6733 9.11852Z" fill="white"/>
<path d="M56.7509 16.3C57.5695 16.0378 58.2892 15.4778 58.9152 14.602C59.5994 13.5074 59.9466 12.8022 59.9466 12.4891V12.3033L59.8959 12.0665C59.6932 11.6337 59.1939 11.4123 58.3906 11.4123H54.8755C54.9769 11.2417 55.1112 10.8191 55.6789 10.4118H52.957C52.4502 11.2188 52.0776 12.0156 52.2652 12.5095C52.4172 12.9168 53.0331 13.1383 54.2267 13.1383H57.3616C57.3287 13.3343 57.126 13.6474 56.685 13.9707C56.3048 14.2507 55.9323 14.3347 55.6282 14.3347H51.4288C51.3706 14.3347 51.0918 14.3347 50.7953 14.3347L49.5535 16.5419H55.6459C55.9475 16.5292 56.32 16.4528 56.7509 16.3Z" fill="white"/>
<path d="M62.6073 7.91187H56.9026C55.4327 7.91187 54.2999 8.46428 53.5143 9.55894C53.4636 9.62767 53.4306 9.68623 53.3799 9.75496H61.6037L62.6073 7.91187Z" fill="white"/>
<path d="M81.311 9.06774C81.3034 8.99137 81.278 8.83099 81.2603 8.75462C81.1589 8.22765 80.5177 7.97308 79.3748 7.97308H68.8017L67.8057 9.76526H81.1412C81.2603 9.46487 81.3262 9.23575 81.311 9.06774Z" fill="white"/>
<path d="M80.7935 10.4165H78.2922C78.2998 10.442 78.3175 10.4674 78.3175 10.5005V10.6023C78.2085 10.8747 77.0149 12.8935 75.0204 16.544H77.3874L80.7935 10.4165Z" fill="white"/>
<path d="M69.8326 10.4165H67.4504L64.062 16.5542H66.3936L69.8326 10.4165Z" fill="white"/>
<path d="M75.3929 10.4165H73.0005L69.6122 16.5542H71.9539L75.3929 10.4165Z" fill="white"/>
<path d="M88.4669 10.5268V10.6031C88.4669 10.8322 88.145 11.5781 87.6052 12.5888C87.073 13.6936 86.3026 14.3631 85.4511 14.3631H83.8697C83.4312 14.3631 83.2183 14.218 83.2183 13.9227V13.8718C83.2183 13.6249 83.7252 12.7848 84.1129 12.0644C84.3841 11.573 85.0177 10.7228 85.4916 10.4173H82.7013C82.3719 10.985 81.9157 11.792 81.3404 12.8535C80.5548 14.1442 80.1569 15.0097 80.1569 15.4425C80.1569 15.552 80.1823 15.6971 80.2329 15.8575C80.4433 16.2724 80.8412 16.5015 81.4342 16.5524H85.2458C85.9478 16.5193 86.4977 16.4175 86.8855 16.2215C87.3847 16.0255 87.9169 15.6105 88.4922 14.9639C88.7203 14.6508 89.3868 13.4441 90.5044 11.3567C90.7148 11.0003 90.8846 10.6871 91.029 10.4071H88.4263C88.4517 10.4504 88.4669 10.4835 88.4669 10.5268Z" fill="white"/>
<path d="M91.4937 8.87924C91.3087 8.23517 90.7765 7.91187 89.9123 7.91187H86.4226C85.2568 7.91187 84.1924 8.47192 83.237 9.5844C83.204 9.62767 83.1609 9.68623 83.1179 9.75496H91.3417C91.4608 9.46729 91.5191 9.228 91.5191 9.05998L91.4937 8.87924Z" fill="white"/>
<path d="M13.0239 16.5364C13.7411 15.177 14.139 14.4642 14.2075 14.398H17.7732L16.6404 16.5364H18.9466C19.015 16.46 19.9856 14.7188 21.861 11.3151C22.0562 10.9842 22.2234 10.6863 22.3603 10.4165H19.8108C19.8184 10.4496 19.8285 10.4852 19.8285 10.526V10.6278C19.8285 10.7474 19.5244 11.2973 18.9238 12.2749H15.3555C15.3555 12.224 16.1589 10.5514 16.7088 10.4165H14.0224L11.6478 14.6857C11.3361 15.2534 10.9965 15.8669 10.6341 16.5364V16.5542H13.0011L13.0239 16.5364Z" fill="white"/>
<path d="M22.8192 9.14437C22.8192 9.04254 22.7939 8.84652 22.7685 8.75487C22.5987 8.16172 21.9322 7.92242 21.0351 7.92242L17.444 7.94788C16.9194 7.99116 16.4226 8.1439 15.9386 8.41375C15.5584 8.56649 15.0516 9.01708 14.4079 9.7477C14.4079 9.7477 14.4003 9.75534 14.4003 9.76552H22.6646C22.7584 9.50077 22.8192 9.34802 22.8192 9.14437Z" fill="white"/>
<path d="M3.73555 14.2963H7.42803L6.20143 16.5543H8.71038L9.92684 14.3548C9.93445 14.337 9.94458 14.3217 9.95219 14.3039C10.1372 13.922 10.1549 13.8889 10.1372 13.7184C10.1042 13.362 8.1427 13.2169 7.7879 13.2169L7.80564 13.1074C7.80564 13.1074 9.80013 13.1074 10.1879 13.0056C10.5756 12.9038 10.9152 12.5295 11.2371 11.9949L12.0658 10.4675H11.5412H9.47827C9.47827 10.4675 9.35156 10.8315 9.13107 11.1879C8.83456 11.6538 8.34544 11.9848 7.32159 12.028C7.22782 12.028 7.14418 12.0357 7.05042 12.0357H4.96215C4.96215 11.9771 5.24853 11.4502 5.81621 10.465C5.8593 10.3886 5.89984 10.3122 5.95053 10.2282H3.49986L0 16.5543H2.45067L3.73555 14.2963Z" fill="white"/>
<path d="M12.4816 9.76278L12.4993 9.73733C12.6767 9.33765 12.7603 9.03217 12.7603 8.84633L12.735 8.65031C12.6767 8.40338 12.55 8.2099 12.3802 8.04698C12.0507 7.73386 11.5261 7.58112 10.8089 7.58112H4.98511L3.77625 9.76278H6.24465H12.4816Z" fill="white"/>
<path d="M12.4814 9.76285C12.4814 9.75522 12.4889 9.74503 12.4889 9.7374L12.4814 9.76285Z" fill="white"/>
<path d="M10.2258 6.34892H11.4524C11.5614 6.17072 13.1935 3.1897 13.1935 3.1897H11.8909C11.8833 3.24061 11.8731 3.30935 11.8402 3.40099L10.2258 6.34892Z" fill="#E7630C"/>
<path d="M17.02 2.84321L17.5268 1.92676L14.5262 1.93439L14.027 2.84321C14.4654 2.84321 14.9571 2.85085 15.4132 2.85085C16.285 2.84321 17.02 2.84321 17.02 2.84321Z" fill="#E7630C"/>
<path d="M20.1661 6.34948L20.792 5.24464H17.6799L18.017 4.61585H19.7403L20.2471 3.71722H18.5314C18.6328 3.5212 18.7519 3.3099 18.8178 3.18262H17.5887C17.1908 3.91324 16.5826 5.01553 15.8654 6.34184H20.1661V6.34948Z" fill="#E7630C"/>
<path d="M22.1676 6.32401L22.8088 5.19626H24.6335L24.0176 6.33419L25.2594 6.31637L25.8677 5.22172C25.8753 5.21408 25.8753 5.2039 25.8753 5.19626C25.969 5.01042 25.9766 4.9926 25.969 4.90859C25.9513 4.73039 24.9807 4.66166 24.8109 4.66166L24.8185 4.60311C24.8185 4.60311 25.8068 4.60311 25.9944 4.55219C26.1895 4.50128 26.3568 4.31544 26.5088 4.05069L26.9574 3.17751H25.6801C25.6801 3.17751 25.5787 3.47536 25.4596 3.65356C25.3152 3.88267 25.0719 4.04305 24.565 4.06851C24.5219 4.06851 24.4814 4.06851 24.4307 4.06851H23.3993C23.3993 4.04305 23.5437 3.78084 23.8225 3.28698C23.8478 3.2437 23.8656 3.2106 23.8909 3.16733H22.682L20.941 6.3011H22.1676V6.32401Z" fill="#E7630C"/>
<path d="M27.1889 2.58203L27.1711 2.48784C27.1382 2.36819 27.0774 2.26636 26.9937 2.18999C26.8341 2.03725 26.5705 1.96088 26.2157 1.96088H23.3342L22.8451 2.85187H27.1205C27.1635 2.73477 27.1889 2.64822 27.1889 2.58203Z" fill="#E7630C"/>
<path d="M6.90342 6.33404L8.66982 3.185H7.43562L5.67682 6.35186H6.89328L6.90342 6.33404Z" fill="#E7630C"/>
<path d="M9.35739 1.92676H8.11558L7.62646 2.84321H8.86067L9.35739 1.92676Z" fill="#E7630C"/>
<path d="M13.2846 2.84321L13.2922 2.83558C13.3682 2.66501 13.4012 2.53773 13.4012 2.46136L13.3936 2.37735C13.3682 2.27552 13.3175 2.19151 13.2415 2.12278C13.1072 1.99549 12.8867 1.92676 12.575 1.92676H10.1167L9.60986 2.84321H10.6489H13.2846Z" fill="#E7630C"/>
<path d="M14.7213 3.185L12.9625 6.35186H14.1713L14.1789 6.33404L15.9453 3.185H14.7213Z" fill="#E7630C"/>
<path d="M8.91577 6.34948L8.93351 6.33166L10.6999 3.18262H9.46571L7.70691 6.34948H8.91577Z" fill="#E7630C"/>
<path d="M22.6164 1.92676H18.2726C18.2549 1.94458 18.0876 2.25006 17.7582 2.84321H22.1096L22.6164 1.92676Z" fill="#E7630C"/>
<path d="M106.324 3.27633C107.224 3.27633 107.956 2.54316 107.956 1.63689C107.956 0.730618 107.226 0 106.324 0C105.424 0 104.692 0.733164 104.692 1.63944C104.692 2.54571 105.424 3.27633 106.324 3.27633Z" fill="white"/>
<path d="M105.733 12.9451C105.675 12.9019 105.614 12.8611 105.548 12.8255C105.531 12.8178 105.505 12.8 105.48 12.7924L104.542 12.2654L100.698 10.0328V10.0405L100.68 10.0328L94.6534 20.5186L94.3746 20.9947C94.3416 21.0456 94.3062 21.1041 94.2732 21.1652C94.2656 21.183 94.2555 21.1983 94.2479 21.2238L94.2403 21.2314C94.1642 21.402 94.1212 21.5954 94.1212 21.7991C94.1212 22.545 94.6787 23.1483 95.3731 23.1483C95.7786 23.1483 96.141 22.937 96.3691 22.6061L96.7163 22.0028L98.3129 19.2178L104.887 17.451C104.963 17.4332 105.039 17.4179 105.115 17.3925L105.183 17.3747V17.367C106.088 17.0361 106.739 16.1018 106.739 15.0148C106.739 14.5311 106.613 14.0805 106.392 13.6987C106.233 13.3957 106.004 13.1411 105.733 12.9451ZM102.208 15.5367L100.112 16.0967L101.618 13.4823L102.385 13.9227L104.22 14.9842L102.208 15.5367Z" fill="white"/>
<path d="M94.7905 11.851L94.9933 12.4187L95.5584 12.3245L95.7105 12.2991L98.4729 11.8332L97.2894 11.1382L99.5449 7.20765L102.73 6.52794V6.52031C103.245 6.38538 103.635 5.88388 103.635 5.28054C103.635 4.57538 103.111 4.00769 102.459 4.00769C102.358 4.00769 102.257 4.02551 102.163 4.05097L97.928 4.9496L97.9204 4.94197L95.0972 9.84755L93.7946 9.08383L94.7246 11.7059L94.7905 11.851Z" fill="white"/>
<path d="M93.6733 9.1524L91.8993 12.192L94.5856 11.7338L93.6733 9.1524Z" fill="white"/>
<path d="M96.6903 15.0499L98.482 11.9772L95.7602 12.4431L96.6903 15.0499Z" fill="white"/>
<path d="M95.6093 12.4715L95.0442 12.5657L94.8921 12.5912L94.8415 12.446L94.6387 11.8784L91.9017 12.3442L96.542 15.0681L95.6093 12.4715Z" fill="white"/>
<path d="M110.288 3.7276C109.839 3.7276 109.452 3.97453 109.249 4.33857C109.216 4.39712 109.18 4.46586 109.165 4.53459L109.046 4.7968L108.177 6.75699H105.607L104.322 9.08377V9.09141H109.74V9.07359C109.74 9.07359 109.74 9.06595 109.748 9.07359C109.748 9.07359 109.748 9.07359 109.756 9.07359L111.124 5.99074L111.436 5.28557C111.469 5.17611 111.487 5.05646 111.487 4.93681C111.482 4.26984 110.949 3.7276 110.288 3.7276Z" fill="white"/>
</svg>
