<svg width="24" height="25" viewBox="0 0 24 25" fill="none" xmlns="http://www.w3.org/2000/svg">
<path d="M5.29289 5.43254C5.68342 5.04202 6.31658 5.04202 6.70711 5.43254L12 10.7254L17.2929 5.43254C17.6834 5.04202 18.3166 5.04202 18.7071 5.43254C19.0976 5.82307 19.0976 6.45623 18.7071 6.84676L13.4142 12.1396L18.7071 17.4325C19.0976 17.8231 19.0976 18.4562 18.7071 18.8468C18.3166 19.2373 17.6834 19.2373 17.2929 18.8468L12 13.5539L6.70711 18.8468C6.31658 19.2373 5.68342 19.2373 5.29289 18.8468C4.90237 18.4562 4.90237 17.8231 5.29289 17.4325L10.5858 12.1396L5.29289 6.84676C4.90237 6.45623 4.90237 5.82307 5.29289 5.43254Z" fill="white"/>
</svg>
