<svg width="81" height="79" viewBox="0 0 81 79" fill="none" xmlns="http://www.w3.org/2000/svg">
<g clip-path="url(#clip0_314_564)">
<path d="M40.472 51.8033C53.0936 51.8033 63.3254 41.5681 63.3254 28.9423C63.3254 16.3166 53.0936 6.08133 40.472 6.08133C27.8505 6.08133 17.6187 16.3166 17.6187 28.9423C17.6187 41.5681 27.8505 51.8033 40.472 51.8033Z" fill="#D8E0F0"/>
<path d="M4.10905 62.4455C2.19523 58.6166 1.12573 54.2809 1.12573 49.72C1.12573 34.179 13.7345 21.566 29.2703 21.566C44.8061 21.566 57.4148 34.179 57.4148 49.72C57.4148 65.2609 44.8061 77.8739 29.2703 77.8739C21.615 77.8739 14.6351 74.777 9.5691 69.8219" fill="white"/>
<path d="M29.2703 79.0001C21.5587 79.0001 14.2974 76.0158 8.7811 70.6102C8.33079 70.1597 8.33079 69.484 8.7811 69.0336C9.23141 68.5831 9.90688 68.5831 10.3572 69.0336C15.4232 74.045 22.1779 76.7477 29.2703 76.7477C44.1869 76.7477 56.2891 64.6416 56.2891 49.72C56.2891 34.7984 44.1869 22.6922 29.2703 22.6922C14.3537 22.6922 2.25156 34.7984 2.25156 49.72C2.25156 53.9994 3.20848 58.1098 5.12231 61.8825C5.40375 62.4455 5.1786 63.1212 4.61571 63.4028C4.05281 63.6843 3.37735 63.4591 3.0959 62.896C1.06949 58.8418 0 54.3935 0 49.72C0 33.5596 13.1154 20.4398 29.2703 20.4398C45.4253 20.4398 58.5407 33.5596 58.5407 49.72C58.5407 65.8803 45.369 79.0001 29.2703 79.0001Z" fill="#607697"/>
<path d="M45.9318 37.4449C44.1869 35.6993 41.2035 35.8682 39.2334 37.7827L24.2605 52.7606L19.3071 47.8055C17.3932 45.8911 14.3536 45.7221 12.6087 47.4677C10.8637 49.2132 11.0326 52.1975 12.9464 54.112L20.5454 61.7136C21.5586 62.7271 22.797 63.2339 24.0916 63.2339C24.1479 63.2339 24.2042 63.2339 24.2042 63.2339C24.2605 63.2339 24.3168 63.2339 24.4294 63.2339C25.6677 63.1776 26.9624 62.6708 27.9756 61.7136L45.5941 44.0892C47.5079 42.1747 47.6768 39.1904 45.9318 37.4449Z" fill="#607697"/>
<path d="M71.5996 50.3393H50.9978C49.7594 50.3393 48.8025 51.3529 48.8025 52.5353C48.8025 53.7741 49.8157 54.7313 50.9978 54.7313H71.5996C72.8379 54.7313 73.7948 53.7178 73.7948 52.5353C73.7948 51.2966 72.8379 50.3393 71.5996 50.3393Z" fill="#B6CDE2"/>
<path d="M78.7483 62.0512H43.8491C42.6107 62.0512 41.6538 63.0648 41.6538 64.2472C41.6538 65.486 42.667 66.4433 43.8491 66.4433H78.8046C80.043 66.4433 80.9999 65.4297 80.9999 64.2472C80.9999 63.0648 79.9867 62.0512 78.7483 62.0512Z" fill="#B6CDE2"/>
<path d="M20.8269 0H18.125V6.30649H20.8269V0Z" fill="#607697"/>
<path d="M20.8269 9.85388H18.125V16.1604H20.8269V9.85388Z" fill="#607697"/>
<path d="M27.5435 9.41414V6.71136L21.2391 6.71136V9.41414L27.5435 9.41414Z" fill="#607697"/>
<path d="M17.7148 9.44838V6.74561L11.4105 6.74561V9.44838L17.7148 9.44838Z" fill="#607697"/>
<path d="M7.26132 17.7932H5.51636V21.9037H7.26132V17.7932Z" fill="#607697"/>
<path d="M7.26132 24.2124H5.51636V28.3229H7.26132V24.2124Z" fill="#607697"/>
<path d="M11.623 23.9119V22.1664H7.51394V23.9119H11.623Z" fill="#607697"/>
<path d="M5.23242 23.9419V22.1963H1.12332V23.9419H5.23242Z" fill="#607697"/>
</g>
<defs>
<clipPath id="clip0_314_564">
<rect width="81" height="79" fill="white"/>
</clipPath>
</defs>
</svg>
