<svg width="24" height="25" viewBox="0 0 24 25" fill="none" xmlns="http://www.w3.org/2000/svg">
<path d="M11.2453 14.8582H6.54253C6.33352 14.8582 6.17676 15.0151 6.17676 15.2244C6.17676 15.4336 6.33352 15.5906 6.54253 15.5906H11.2453C11.4543 15.5906 11.6111 15.4336 11.6111 15.2244C11.6111 15.0151 11.4543 14.8582 11.2453 14.8582Z" fill="#607697"/>
<path d="M8.89391 16.4277H6.54253C6.33352 16.4277 6.17676 16.5847 6.17676 16.7939C6.17676 17.0032 6.33352 17.1601 6.54253 17.1601H8.89391C9.10293 17.1601 9.25969 17.0032 9.25969 16.7939C9.25969 16.5847 9.10293 16.4277 8.89391 16.4277Z" fill="#607697"/>
<path d="M8.89391 17.9448H6.54253C6.33352 17.9448 6.17676 18.1018 6.17676 18.311C6.17676 18.5203 6.33352 18.6772 6.54253 18.6772H8.89391C9.10293 18.6772 9.25969 18.5203 9.25969 18.311C9.25969 18.1541 9.10293 17.9448 8.89391 17.9448Z" fill="#607697"/>
<path d="M18.7695 16.7416H18.1424C18.1424 16.6892 18.1424 16.6369 18.0902 16.5846L17.6722 15.9568C17.5677 15.7999 17.5154 15.5906 17.5154 15.4337V14.5444C17.5154 14.0735 17.6722 13.6027 17.9857 13.1842C18.8217 12.0333 18.5605 10.4638 17.4109 9.62681C17.0451 9.36523 16.6794 9.20829 16.2613 9.15598V5.33703C16.2613 4.8662 15.8956 4.5 15.4253 4.5H5.23595C4.76567 4.5 4.3999 4.8662 4.3999 5.33703V19.5665C4.3999 20.0374 4.76567 20.4036 5.23595 20.4036H12.7081C12.7604 20.5082 12.8649 20.6128 13.0216 20.6128H18.7695C18.9262 20.6128 19.083 20.4559 19.083 20.2989V19.3573H19.3965C19.5533 19.3573 19.71 19.2003 19.71 19.0434V17.7878C19.71 17.1601 19.292 16.7416 18.7695 16.7416ZM17.7767 11.6671C17.7767 12.0856 17.6199 12.4518 17.4109 12.818C17.0451 13.3411 16.8361 13.9166 16.8361 14.5444V15.4337C16.8361 15.7476 16.9406 16.0615 17.0974 16.323L17.4109 16.7939H16.2613H15.373H14.3802L14.6937 16.323C14.8505 16.0615 14.955 15.7476 14.955 15.4337V14.5444C14.955 13.9166 14.746 13.3411 14.3802 12.818C14.119 12.5041 13.9622 12.0856 13.9622 11.6671C13.9622 10.7777 14.537 10.0453 15.3208 9.83606C15.4775 9.78375 15.6866 9.78375 15.8433 9.78375C15.9478 9.78375 16.1046 9.78375 16.2091 9.83606C17.1496 9.94069 17.7767 10.7254 17.7767 11.6671ZM5.2882 5.38934H15.373V9.15598C14.7983 9.26061 14.2235 9.62681 13.8577 10.1499C13.5442 10.5685 13.3874 11.0916 13.3874 11.6671C13.3874 12.2425 13.5442 12.7657 13.91 13.2365C14.1712 13.6027 14.328 14.0735 14.328 14.5444V15.4337C14.328 15.643 14.2757 15.7999 14.1712 15.9568L13.7532 16.5846C13.7009 16.6369 13.7009 16.6892 13.7009 16.7416H13.0739C12.5514 16.7416 12.1333 17.1601 12.1333 17.6832V18.9388C12.1333 19.0957 12.2901 19.2526 12.4469 19.2526H12.7604V19.4619H5.2882V5.38934ZM18.456 19.9327H16.1568H13.3352V19.4619V19.2526H15.373H16.2613H18.456V19.9327ZM19.083 18.6772H16.2613H15.373H12.7081V17.7355C12.7081 17.5786 12.8649 17.4216 13.0216 17.4216H15.373H16.2613H18.7695C18.9262 17.4216 19.083 17.5786 19.083 17.7355V18.6772Z" fill="#607697"/>
</svg>
