<svg width="24" height="25" viewBox="0 0 24 25" fill="none" xmlns="http://www.w3.org/2000/svg">
<path d="M15.2279 13.9929V16.5453H15.5678V13.9976C15.4543 13.986 15.3407 13.9841 15.2279 13.9929ZM15.1819 4.5H5.18569C4.97253 4.5 4.7998 4.67174 4.7998 4.88368V17.1613C4.7998 17.3733 4.97253 17.545 5.18569 17.545H12.2448C12.1584 17.3017 12.1022 17.0444 12.0802 16.7777H5.57157V5.26735H14.7961V13.4356C14.9265 13.4192 15.0599 13.4108 15.1948 13.4108C15.3209 13.4108 15.4454 13.4181 15.5678 13.4327V4.88368C15.5678 4.67174 15.3951 4.5 15.1819 4.5Z" fill="#607697"/>
<path d="M13.1239 7.3135H9.88979C9.67664 7.3135 9.50391 7.14176 9.50391 6.92982C9.50391 6.71788 9.67664 6.54614 9.88979 6.54614H13.1239C13.337 6.54614 13.5098 6.71788 13.5098 6.92982C13.5098 7.14176 13.337 7.3135 13.1239 7.3135Z" fill="#607697"/>
<path d="M11.9478 8.48293H9.88979C9.67664 8.48293 9.50391 8.31119 9.50391 8.09926C9.50391 7.88732 9.67664 7.71558 9.88979 7.71558H11.9478C12.161 7.71558 12.3337 7.88732 12.3337 8.09926C12.3337 8.31119 12.161 8.48293 11.9478 8.48293Z" fill="#607697"/>
<path d="M7.53768 8.77499C7.43588 8.77499 7.33775 8.73516 7.26499 8.66244L6.67697 8.07779C6.5263 7.92797 6.5263 7.68498 6.67697 7.53516C6.82765 7.38534 7.07205 7.38534 7.22272 7.53516L7.46124 7.77231L8.08894 6.73236C8.19846 6.55075 8.4355 6.49192 8.61852 6.60081C8.80117 6.7097 8.86071 6.94539 8.75082 7.12736L7.8688 8.58899C7.8078 8.69021 7.70306 8.75781 7.58509 8.77243C7.56892 8.77389 7.55348 8.77499 7.53768 8.77499Z" fill="#607697"/>
<path d="M17.7663 16.5452H15.2275V13.9928C15.3404 13.984 15.4539 13.9859 15.5675 13.9976C16.7012 14.1112 17.8218 15.1921 17.7663 16.5452Z" fill="#607697"/>
<path d="M18.1035 13.7886C18.1076 13.7828 18.1138 13.7751 18.1292 13.7597C18.4589 13.432 18.4027 13.4407 17.8849 12.9745C17.671 12.7816 17.5405 12.7856 17.3318 12.9939C17.2024 13.1228 17.2987 13.03 17.234 13.0965C16.8411 12.8641 16.4071 12.6957 15.9429 12.608C15.8941 12.5397 15.8977 12.434 15.9069 12.2188C15.9069 12.2115 15.9077 12.2046 15.9069 12.1973C15.8963 12.0873 15.9444 12.0409 16.0565 12.046C16.1859 12.0515 16.3152 12.0493 16.4446 12.0456C16.6805 12.0387 16.7908 11.9353 16.7974 11.7062C16.8036 11.4982 16.804 11.5764 16.7974 11.3689C16.79 11.1496 16.6721 11.0386 16.4468 11.0404H13.986C13.979 11.04 13.9724 11.0408 13.9654 11.0404H13.9382V11.0419C13.7346 11.0495 13.628 11.1643 13.6221 11.3766C13.6162 11.5841 13.6155 11.5063 13.6225 11.7135C13.6284 11.8951 13.7761 12.0394 13.9591 12.0449C14.13 12.0504 14.3009 12.046 14.503 12.046C14.503 12.2254 14.4975 12.3811 14.5049 12.536C14.5063 12.5616 14.503 12.5817 14.4983 12.6003C14.0087 12.6862 13.5508 12.8605 13.1396 13.1064C13.1219 13.0951 13.1039 13.0808 13.0848 13.0615C12.9448 12.9189 13.0819 13.0673 12.936 12.9368C12.8107 12.8247 12.617 12.8232 12.4957 12.9394C12.3854 13.0443 12.2811 13.1557 12.1796 13.269C12.0345 13.4312 12.0411 13.5811 12.1932 13.7422C12.2943 13.8489 12.2289 13.7904 12.2546 13.8233C11.596 14.5333 11.1899 15.4779 11.1899 16.5178C11.1899 16.6052 11.1929 16.6914 11.1988 16.7773C11.2157 17.0407 11.2587 17.2976 11.3252 17.5446C11.7816 19.2445 13.3435 20.5 15.1951 20.5C17.4034 20.5 19.1998 18.7136 19.1998 16.5178C19.1998 15.4611 18.7812 14.5019 18.1035 13.7886ZM15.1951 19.6252C13.8334 19.6252 12.6725 18.7552 12.2451 17.5446C12.1587 17.3013 12.1025 17.044 12.0804 16.7773C12.0731 16.6918 12.0694 16.6052 12.0694 16.5178C12.0694 14.9382 13.2605 13.6308 14.7963 13.4353C14.9268 13.4188 15.0602 13.4104 15.1951 13.4104C15.3211 13.4104 15.4457 13.4177 15.5681 13.4323C17.116 13.6161 18.3204 14.9294 18.3204 16.5178C18.3204 18.2312 16.9183 19.6252 15.1951 19.6252Z" fill="#607697"/>
</svg>
