<svg width="24" height="25" viewBox="0 0 24 25" fill="none" xmlns="http://www.w3.org/2000/svg">
<path d="M9.36587 11.4564H14.6342C14.8282 11.4564 14.9854 11.3007 14.9854 11.1086C14.9854 10.9164 14.8282 10.7607 14.6342 10.7607H9.36587C9.17182 10.7607 9.01465 10.9164 9.01465 11.1086C9.01465 11.3007 9.17182 11.4564 9.36587 11.4564Z" fill="#607697"/>
<path d="M9.36587 10.065H14.6342C14.8282 10.065 14.9854 9.90938 14.9854 9.71721C14.9854 9.52504 14.8282 9.36938 14.6342 9.36938H9.36587C9.17182 9.36938 9.01465 9.52504 9.01465 9.71721C9.01465 9.90938 9.17182 10.065 9.36587 10.065Z" fill="#607697"/>
<path d="M9.36587 8.67417H12.8781C13.0721 8.67417 13.2293 8.51852 13.2293 8.32634C13.2293 8.13417 13.0721 7.97852 12.8781 7.97852H9.36587C9.17182 7.97852 9.01465 8.13417 9.01465 8.32634C9.01465 8.51852 9.17182 8.67417 9.36587 8.67417Z" fill="#607697"/>
<path d="M19.1296 13.3348L17.0925 10.6448V6.23913C17.0925 6.04696 16.9353 5.8913 16.7413 5.8913H16.39V4.84783C16.39 4.65565 16.2329 4.5 16.0388 4.5H7.96078C7.76673 4.5 7.60956 4.65565 7.60956 4.84783V5.8913H7.25834C7.06429 5.8913 6.90712 6.04696 6.90712 6.23913V10.7761C6.87639 10.7961 6.84829 10.8213 6.82459 10.8517L4.874 13.33C4.82571 13.3909 4.7998 13.4661 4.7998 13.5435V13.8913V20.1522C4.7998 20.3443 4.95698 20.5 5.15102 20.5H18.8486C19.0426 20.5 19.1998 20.3443 19.1998 20.1522V13.8913V13.5435C19.1998 13.4683 19.1752 13.3948 19.1296 13.3348ZM18.4096 13.5435H17.0925V11.8043L18.4096 13.5435ZM8.312 5.19565H15.6876V5.8913H8.312V5.19565ZM16.39 6.58696V13.5435H14.6923C14.5795 13.5435 14.4737 13.597 14.4074 13.6878L13.752 14.587H10.256L9.65805 13.6983C9.59307 13.6013 9.48332 13.5435 9.36566 13.5435H7.60956V6.58696H16.39ZM6.90712 11.8783V13.5435H5.59619L6.90712 11.8783ZM18.4974 19.8043H5.50224V14.2391H9.17776L9.77571 15.1278C9.84068 15.2248 9.95044 15.2826 10.0681 15.2826H13.9315C14.0443 15.2826 14.1501 15.2291 14.2164 15.1383L14.8719 14.2391H18.4974V19.8043Z" fill="#607697"/>
<path d="M13.5801 16.3262H10.4191C10.225 16.3262 10.0679 16.4818 10.0679 16.674V18.4131C10.0679 18.6053 10.225 18.761 10.4191 18.761H13.5801C13.7741 18.761 13.9313 18.6053 13.9313 18.4131V16.674C13.9313 16.4818 13.7741 16.3262 13.5801 16.3262ZM13.2288 18.0653H10.7703V17.0218H13.2288V18.0653Z" fill="#607697"/>
</svg>
