<svg width="24" height="25" viewBox="0 0 24 25" fill="none" xmlns="http://www.w3.org/2000/svg">
<path d="M16.0679 7.03101C15.9053 7.03101 15.7729 7.16568 15.7729 7.33115V9.44658L17.0984 10.445C17.1509 10.4846 17.2124 10.5036 17.2732 10.5036C17.3634 10.5036 17.4522 10.4617 17.5099 10.3827C17.6064 10.2503 17.5791 10.0623 17.4487 9.96396L16.3624 9.14578V7.33115C16.3628 7.16568 16.2304 7.03101 16.0679 7.03101Z" fill="#607697"/>
<path d="M19.6766 9.69024C19.7153 9.76829 19.8316 9.76829 19.8703 9.69024L20.8002 8.28537L20.064 8.32439C20.0253 8.32439 20.0253 8.32439 20.0253 8.28537C19.909 7.5439 19.5603 6.84146 19.0179 6.29512C18.3205 5.59268 17.4293 5.20244 16.4219 5.20244C15.4146 5.20244 14.5234 5.59268 13.826 6.29512C13.6323 6.49024 13.4773 6.72439 13.3223 6.95854L14.0585 5.00732C14.136 4.89024 14.0972 4.73415 14.0197 4.6561C13.981 4.53902 13.826 4.5 13.7098 4.5H12.005C11.85 4.5 11.7337 4.53902 11.6562 4.6561L10.7263 6.64634C10.7263 6.68537 10.6489 6.68537 10.6489 6.64634L9.75771 4.6561C9.71896 4.53902 9.56398 4.5 9.44774 4.5H7.74294C7.6267 4.5 7.47172 4.53902 7.39423 4.6561C7.31674 4.77317 7.31674 4.89024 7.35548 4.96829L8.1304 6.99756C8.1304 7.03659 8.1304 7.03659 8.09165 7.03659C7.89792 7.07561 7.6267 7.15366 7.47172 7.19268H7.43298C5.99939 7.66098 4.79828 8.71463 4.10086 10.0805L3.94587 10.4707H3.98462C3.90713 10.6659 3.79089 10.9 3.7134 11.1732C3.67466 11.3683 3.59716 11.5634 3.55842 11.7585C3.55842 11.9146 3.55842 12.0707 3.51967 12.1878L3.2872 17.1829V17.222V17.261V17.3V17.339L3.20971 18.1195V18.1585C3.17096 18.5878 3.24845 19.0171 3.48093 19.3683H3.36469L3.63591 19.7585C3.63591 19.7585 3.63591 19.7585 3.67466 19.7976L3.7134 19.8366C3.7134 19.8366 3.98462 20.0707 4.21709 20.2268L4.25584 20.2659H4.29459C4.60455 20.422 4.95326 20.5 5.26322 20.5H7.04552C7.04552 20.5 7.08427 20.5 7.12301 20.5H14.3297C14.3684 20.5 14.3684 20.5 14.4072 20.5H16.1895C16.4994 20.5 16.7707 20.422 17.0419 20.3049L17.1194 20.2659C17.1194 20.2659 17.1581 20.2659 17.1581 20.2268L17.1969 20.1878C17.4293 20.0317 17.7393 19.7585 17.7393 19.7585L17.778 19.7195C18.088 19.3683 18.243 18.9 18.243 18.4317L18.2817 18.3927V18.3537V18.3146C18.2817 18.2756 18.2817 18.2366 18.2817 18.1976L17.933 12.3049C17.9718 12.3049 18.0105 12.2659 18.0105 12.2659C18.5142 12.0317 18.9404 11.6415 19.2891 11.2122C19.4054 11.0561 19.3666 10.861 19.2504 10.7439C19.0954 10.6268 18.9017 10.6659 18.7854 10.7829C18.5142 11.1341 18.1267 11.4463 17.7393 11.6415C17.3131 11.8366 16.8869 11.9537 16.4219 11.9537C15.6083 11.9537 14.8721 11.6415 14.2909 11.0561C13.7098 10.4707 13.3998 9.72927 13.3998 8.90976C13.3998 8.09024 13.7098 7.30976 14.2909 6.76341C14.8721 6.17805 15.6083 5.86585 16.4219 5.86585C17.2356 5.86585 17.9718 6.17805 18.553 6.76341C18.9792 7.19268 19.2504 7.7 19.3666 8.28537C19.3666 8.32439 19.3666 8.32439 19.3279 8.32439L18.7467 8.36341H18.6304L18.7079 8.44146L19.6766 9.69024ZM15.6858 18.9L14.9109 12.6951C14.8721 12.539 14.8334 12.3829 14.7946 12.2659C15.2983 12.539 15.8795 12.6561 16.4219 12.6561C16.6544 12.6561 16.8869 12.6171 17.0806 12.578L17.4293 18.2756C17.4681 18.6268 17.3518 19.0171 17.1194 19.2902C16.8869 19.5634 16.5382 19.7195 16.1895 19.7195H15.6083C15.6858 19.4463 15.7245 19.1732 15.6858 18.9ZM9.29276 6.91951C9.21527 6.91951 9.09903 6.91951 9.02154 6.91951L8.40161 5.12439H9.21527L9.91269 6.91951H9.29276ZM5.84441 19.7195H5.30197C4.95326 19.7195 4.60455 19.5634 4.37208 19.2902C4.1396 19.0171 4.02337 18.6659 4.06211 18.2756L4.41082 12.2659C4.60455 10.2756 5.96064 8.63659 7.82043 8.0122L8.24663 7.89512C8.59534 7.81707 8.94405 7.77805 9.29276 7.77805H12.1987C12.4312 7.77805 12.7024 7.81707 12.9348 7.8561C12.8186 8.20732 12.7799 8.55854 12.7799 8.90976C12.7799 9.41707 12.8574 9.88537 13.0511 10.3537C12.6249 10.1585 12.1599 10.0415 11.695 10.0415H9.75771C8.20789 10.0415 6.89054 11.1341 6.54183 12.6561L5.76692 18.9C5.72817 19.1732 5.76692 19.4463 5.84441 19.7195ZM6.61932 19.0561L7.35548 12.8512C7.58796 11.7195 8.59534 10.9 9.71896 10.9H11.695C12.8186 10.9 13.826 11.7195 14.0585 12.8512L14.7946 19.0561C14.8334 19.2122 14.7946 19.3683 14.6784 19.5244C14.6009 19.6415 14.4459 19.7195 14.3297 19.7195H7.08427C6.92928 19.7195 6.81305 19.6415 6.73556 19.5244C6.61932 19.3683 6.58057 19.2122 6.61932 19.0561ZM12.4699 6.95854C12.4312 6.95854 12.4312 6.95854 12.3924 6.95854H11.695H11.54L12.2374 5.16341H13.0511L12.4699 6.95854Z" fill="#607697"/>
</svg>
