<svg width="24" height="25" viewBox="0 0 24 25" fill="none" xmlns="http://www.w3.org/2000/svg">
<path d="M10.7471 16.4207H7.08635C6.90512 16.4207 6.79639 16.2792 6.79639 16.1023C6.79639 15.9255 6.94137 15.7839 7.08635 15.7839H10.7471C10.9284 15.7839 11.0371 15.9255 11.0371 16.1023C11.0371 16.2792 10.9284 16.4207 10.7471 16.4207Z" fill="#607697"/>
<path d="M10.7471 17.6588H7.08635C6.90512 17.6588 6.79639 17.5173 6.79639 17.3404C6.79639 17.1635 6.94137 17.022 7.08635 17.022H10.7471C10.9284 17.022 11.0371 17.1635 11.0371 17.3404C11.0371 17.5173 10.9284 17.6588 10.7471 17.6588Z" fill="#607697"/>
<path d="M8.89863 18.8619H7.08635C6.90512 18.8619 6.79639 18.7204 6.79639 18.5435C6.79639 18.3666 6.94137 18.2251 7.08635 18.2251H8.89863C9.07985 18.2251 9.18859 18.3666 9.18859 18.5435C9.22483 18.7204 9.07985 18.8619 8.89863 18.8619Z" fill="#607697"/>
<path d="M13.4279 20.5H5.49016C5.30893 20.5 5.2002 20.3585 5.2002 20.217V10.1695C5.2002 9.99261 5.34518 9.88647 5.49016 9.88647H13.4279C13.6092 9.88647 13.7179 10.028 13.7179 10.1695V20.217C13.7541 20.3585 13.6092 20.5 13.4279 20.5ZM6.0002 19.7H13.0002V10.7H6.0002V19.7Z" fill="#607697"/>
<path d="M16.0737 7.5516C16.1825 7.65773 16.3637 7.65773 16.4362 7.5516L17.5598 6.45487C17.6685 6.34873 17.6685 6.17184 17.5598 6.10109C17.4511 5.99495 17.2698 5.99495 17.1973 6.10109L16.0737 7.16244C15.965 7.26857 15.965 7.44546 16.0737 7.5516Z" fill="#607697"/>
<path d="M14.0079 6.1718C13.9716 6.27793 14.0079 6.34869 14.0804 6.41945C14.1166 6.45483 14.1529 6.4902 14.1891 6.4902C14.3341 6.52558 14.4791 6.45483 14.5153 6.31331L14.9503 4.82742C14.9865 4.68591 14.914 4.54439 14.769 4.50902C14.624 4.47364 14.4791 4.54439 14.4428 4.68591L14.0079 6.1718Z" fill="#607697"/>
<path d="M12.2318 6.2072L11.8331 4.72131C11.7968 4.57979 11.6519 4.50904 11.5069 4.54442C11.3619 4.57979 11.2894 4.72131 11.3256 4.86282L11.7243 6.34871C11.7243 6.38409 11.7606 6.41947 11.7968 6.45485C11.8693 6.5256 11.9418 6.56098 12.0506 6.5256C12.1593 6.49023 12.268 6.34871 12.2318 6.2072Z" fill="#607697"/>
<path d="M17.1975 11.7617C17.2338 11.7971 17.27 11.8324 17.3063 11.8324L18.8286 12.2216C18.9736 12.257 19.1186 12.1862 19.1548 12.0447C19.1911 11.9032 19.1186 11.7617 18.9736 11.7263L17.4513 11.3371C17.3063 11.3018 17.1613 11.3725 17.1251 11.514C17.0888 11.5848 17.1251 11.6909 17.1975 11.7617Z" fill="#607697"/>
<path d="M17.1611 9.39112C17.1611 9.4265 17.1973 9.46188 17.2336 9.49726C17.3061 9.56801 17.3786 9.60339 17.4873 9.56801L19.0096 9.14347C19.1546 9.10809 19.2271 8.96658 19.1908 8.82507C19.1546 8.68355 19.0096 8.6128 18.8646 8.64818L17.3423 9.07272C17.1973 9.10809 17.1248 9.24961 17.1611 9.39112Z" fill="#607697"/>
<path d="M12.812 7.48071C11.0359 7.48071 9.58613 8.78971 9.36865 10.4525H9.91233C10.1298 9.07274 11.3259 8.01139 12.812 8.01139C14.443 8.01139 15.7479 9.28501 15.7479 10.877C15.7479 12.3629 14.588 13.5658 13.1382 13.7073V14.238C14.9142 14.0611 16.2915 12.6106 16.2915 10.877C16.2915 9.00198 14.733 7.48071 12.812 7.48071Z" fill="#607697"/>
</svg>
