<svg width="209" height="269" viewBox="0 0 209 269" fill="none" xmlns="http://www.w3.org/2000/svg">
<path d="M189.335 62.4119L188.941 208.852L122.431 170.463L120.584 135.127L119.205 109.025L114.502 19.2212L119.427 22.053L183.597 59.1123L189.335 62.4119Z" fill="#D8E0F0"/>
<path d="M183.607 78.2937L183.508 116.51L120.593 154.284L119.141 155.146L119.214 128.182L119.436 41.2344L183.607 78.2937Z" fill="#EEF2FB"/>
<path d="M0.0195312 231.728L56.4329 199.322C59.0184 197.82 59.043 195.407 56.4575 193.905L43.9485 186.666L115.506 174.477L35.9458 219.095L0.0195312 231.728Z" fill="#EEF2FB"/>
<path d="M207.994 219.858L84.2578 268.318L93.6396 252.436C94.3537 252.042 121.416 236.824 144.907 223.601C133.629 223.035 119.79 218.233 119.864 207.792C119.914 198.534 132.62 192.328 146.04 192.107L107.183 169.649L114.078 165.636C204.768 218.011 181.055 204.32 207.994 219.858Z" fill="#EEF2FB"/>
<path d="M188.935 208.851L182.041 212.865L182.016 212.84L181.967 212.816L182.041 212.766L183.099 212.175L188.935 208.851Z" fill="#FFE8D7"/>
<path d="M208.01 70.1686V219.859L188.926 208.876V62.6828L114.487 19.2212V165.415L95.502 154.432V6.4659C95.502 1.49183 100.895 -1.61081 105.204 0.876225L199.81 55.9112C204.882 58.8661 208.01 64.2834 208.01 70.1686Z" fill="#FFE8D7"/>
<path d="M117.103 168.519L121.436 171.03L117.103 173.468L116.832 173.616L116.758 173.665L116.733 173.69L115.551 174.355L115.477 174.404L115.428 174.429L115.231 174.552L43.9698 186.691L41.4336 185.214V184.352L41.8768 184.106L43.9945 184.032L45.7428 183.983C50.3967 181.348 43.6744 185.165 89.7701 159.014C92.7742 157.266 97.6497 157.266 100.654 159.014L107.278 162.831L108.829 163.742L109.494 164.136L114.32 166.918L114.763 167.189L115.576 167.657L117.103 168.519Z" fill="#B6CDE2"/>
<path d="M183.332 212.005C183.307 212.029 183.233 212.103 183.11 212.177C182.963 212.275 182.741 212.423 182.519 212.571L182.051 212.842L182.027 212.866L181.978 212.842L173.729 208.065V207.375C176.831 205.627 178.776 204.543 179.146 204.322C181.042 205.405 180.525 205.11 182.076 206.021C182.199 206.095 182.347 206.169 182.495 206.267C182.938 206.538 183.332 206.809 183.652 207.104C185.277 208.68 185.031 210.675 183.332 212.005Z" fill="#D8E0F0"/>
<path d="M114.931 139.364C114.956 139.339 115.03 139.241 114.906 138.871C114.685 138.132 114.217 137.665 113.897 137.32C113.281 136.704 112.764 136.212 112.37 135.842C112.444 135.399 113.01 132.617 113.035 132.223C110.474 134.094 110.129 137.812 112.272 140.127C113.035 140.57 113.798 141.013 114.537 141.432C115.128 141.728 115.621 141.9 115.965 142.023C116.285 142.122 116.581 142.22 116.679 142.097C116.729 142.023 116.679 141.9 116.679 141.851C116.482 141.334 115.251 140.546 114.931 140.349C113.577 139.044 113.134 138.576 113.183 138.502C113.257 138.428 114.636 139.635 114.931 139.364Z" fill="#D8E0F0"/>
<path d="M115.849 40.9161L122.743 36.9023L122.399 170.464L115.504 174.453L115.849 40.9161Z" fill="#FFA361"/>
<path d="M189.305 62.4121L188.911 208.852L182.041 212.866V212.767V206.02L182.41 66.4258L189.305 62.4121Z" fill="#FFA361"/>
<path d="M107.6 23.2108L114.494 19.2217L189.327 62.4124L182.432 66.4262L107.6 23.2108Z" fill="#FFA361"/>
<path d="M182.418 66.4263L182.049 206.021V212.768V212.866L181.999 212.841L181.95 212.817L173.726 208.064V207.375L174.071 74.503L122.729 44.8802L115.859 40.9157V41.0142L115.613 140.84V141.924L115.539 167.607L115.514 174.329V174.452L115.416 174.403L107.191 169.651L107.216 162.805L107.536 42.5163V40.571L107.585 23.2109L182.418 66.4263Z" fill="#FCBD8F"/>
<path d="M43.7472 53.8679L41.2109 52.3904L113.581 39.5366L116.118 41.0141L43.7472 53.8679Z" fill="#FCBD8F"/>
<path d="M43.9447 186.667L41.4074 185.189V184.327L41.0625 52.3911L43.5998 53.8686L43.9447 184.007V186.667Z" fill="#FCBD8F"/>
<path d="M115.956 41.0137L115.636 140.865V141.948L115.538 167.606L115.513 174.329V174.452L115.193 174.526L43.9307 186.665V184.006L43.5859 53.8675L107.535 42.5157L115.858 41.0137H115.956Z" fill="#FCBD8F"/>
<path d="M57.0412 114.468C58.7952 114.468 60.2171 113.035 60.2171 111.267C60.2171 109.499 58.7952 108.065 57.0412 108.065C55.2872 108.065 53.8652 109.499 53.8652 111.267C53.8652 113.035 55.2872 114.468 57.0412 114.468Z" fill="#FFA361"/>
<path d="M56.7341 113.482C58.2981 113.482 59.5659 112.203 59.5659 110.626C59.5659 109.048 58.2981 107.77 56.7341 107.77C55.1702 107.77 53.9023 109.048 53.9023 110.626C53.9023 112.203 55.1702 113.482 56.7341 113.482Z" fill="#FFE8D7"/>
<path d="M85.8281 137.465C85.8035 137.489 67.36 148.201 67.3354 148.225L67.2615 148.176H67.2861L48.7441 137.465C53.1272 134.879 48.227 137.76 67.2123 126.729C67.2123 126.729 85.8281 137.465 85.8281 137.465Z" fill="#FFA361"/>
<path d="M85.8281 124.612C84.8185 125.203 83.4888 125.991 81.8636 126.926C77.776 129.315 74.3286 131.285 67.3354 135.373L67.2615 135.323H67.2861L48.7441 124.612C52.7579 122.248 52.7825 122.248 67.2123 113.851C67.2123 113.851 85.8281 124.612 85.8281 124.612Z" fill="#FFE8D7"/>
<path d="M85.8218 124.634C76.8586 129.855 74.8887 130.913 67.3291 135.37C58.5382 130.273 63.0691 132.883 57.9473 129.953C65.827 125.299 69.3236 123.354 76.4154 119.192C76.4154 119.192 84.7383 124.019 85.8218 124.634Z" fill="#FFE8D7"/>
<path d="M85.8287 124.611L67.3359 148.226V135.347C70.6602 133.402 73.3442 131.826 75.2403 130.743C76.767 129.856 77.6042 129.388 79.3771 128.354C82.135 126.778 84.3512 125.473 85.8287 124.611Z" fill="#FFA361"/>
<path d="M85.8287 124.611V137.49L79.3771 141.233L75.2403 143.621L74.6001 143.991L72.7532 145.074L67.3359 148.226H67.3606L68.5179 146.748L72.7779 141.282L74.6247 138.943L75.2403 138.13L77.9736 134.658L79.3771 132.86L83.4155 127.714L85.8287 124.611Z" fill="#FFA361"/>
<path d="M67.3229 148.103V148.226L48.707 137.49V124.611L48.8055 124.661C49.3965 125.719 66.855 147.216 67.3229 148.103Z" fill="#FFA361"/>
<path d="M67.3229 135.347V148.226C67.1751 147.93 48.8794 124.907 48.707 124.611C48.9533 124.734 67.1259 135.224 67.3229 135.347Z" fill="#FFA361"/>
<path d="M52.9406 250.639C41.5887 251.205 24.3268 246.748 24.4006 235.249C24.4991 221.73 52.325 214.86 68.7004 224.513C84.411 233.747 74.4872 249.556 52.9406 250.639Z" fill="#D8E0F0"/>
<path d="M41.3241 225.718C41.1764 226.605 40.61 228.18 39.5758 229.018C39.5758 229.018 38.5908 229.855 38.0737 230.741C37.9999 230.84 37.9506 230.963 37.9014 231.086C37.8275 231.283 37.8029 231.283 37.7044 231.603C36.8179 234.238 36.7933 234.386 36.547 234.804C35.3158 237.094 31.5483 238.153 29.406 235.986C28.7166 235.297 28.298 233.13 28.6427 231.259C29.2583 227.885 38.2215 219.931 40.5854 221.754C41.4965 222.443 41.5457 224.561 41.3241 225.718Z" fill="#607697"/>
<path opacity="0.3" d="M38.1122 230.644C37.6936 231.358 37.4473 232.22 37.2257 232.983C36.8071 234.214 36.7332 234.436 36.5363 234.805C35.305 237.095 31.5375 238.154 29.3952 235.987C29.3706 235.962 29.3706 235.962 29.346 235.938C29.2475 235.79 29.149 235.642 29.0751 235.495C29.0751 235.495 29.0751 235.47 29.0505 235.47C28.9766 235.322 28.9028 235.199 28.8535 235.051C28.8535 235.051 28.8535 235.051 28.8781 235.051C30.8973 236.159 33.2859 236.356 35.1573 234.83C36.3393 233.894 36.6594 232.786 38.1122 230.644Z" fill="#607697"/>
<path d="M26.3321 178.811C26.4306 180.362 26.5537 181.766 26.8 183.933C27.5879 190.901 28.696 196.072 28.5975 196.811C28.1543 198.535 27.5633 201.268 27.3663 204.666C27.0954 209.369 27.908 209.493 28.1297 216.904C28.2528 221.115 28.0312 224.316 28.6714 231.26C28.8438 231.408 31.1338 233.058 33.9163 232.098C36.4773 231.211 37.3145 228.798 37.413 228.527C36.8712 223.405 36.7727 217.988 36.9944 212.94C37.1667 209.025 37.5361 205.356 38.0778 202.204C38.4718 199.914 38.8904 198.264 39.0135 197.796C40.4171 192.083 42.3378 178.712 42.3378 178.712L42.8549 178.392C43.5444 177.974 45.145 176.964 45.5143 176.743C45.4404 171.153 45.3173 170.463 45.1942 162.288C41.673 161.894 31.2323 160.835 27.0462 160.392C26.9231 161.352 26.8246 162.264 26.7261 163.15C26.1351 168.814 26.0612 174.428 26.3321 178.811Z" fill="#B6CDE2"/>
<path opacity="0.3" d="M28.4453 228.625C28.5192 229.462 28.5931 230.349 28.6669 231.26C28.8393 231.407 31.1293 233.057 33.9119 232.097C36.4728 231.21 37.31 228.797 37.4085 228.526C36.8668 223.405 36.7683 217.987 36.9899 212.939C37.0391 208.827 37.31 204.863 38.0733 202.203C38.4673 199.913 38.8859 198.263 39.0091 197.795C40.4126 192.083 42.3333 178.712 42.3333 178.712L42.8504 178.392C42.8504 178.342 42.7519 177.776 42.7519 177.776C42.3333 175.314 41.2252 169.699 39.5015 169.625C39.0091 169.601 37.9995 170.019 36.6451 174.033C36.4974 175.683 36.4482 177.604 36.5959 179.771C36.7436 181.716 37.0145 183.44 37.3346 184.917C35.5124 190.359 34.6752 195.087 34.2812 198.805C32.7299 213.309 36.5713 223.996 31.351 227.64C30.7354 228.034 29.8243 228.477 28.4453 228.625Z" fill="#B6CDE2"/>
<path d="M47.4366 241.43C47.8306 242.637 47.7813 243.031 48.1507 243.572C54.9719 246.601 66.8166 244.459 68.6882 243.203C69.5008 242.661 70.1903 241.947 70.4366 241.602C70.8306 241.061 70.9783 240.765 70.9783 240.765C71.0029 240.691 71.0522 240.642 71.0768 240.593C71.0768 240.593 71.0768 240.593 71.0768 240.568C73.4162 235.742 67.1121 238.032 58.6164 235.545C56.2524 234.855 52.6325 234.708 47.1657 237.392C46.944 238.598 46.9933 240.002 47.4366 241.43Z" fill="#607697"/>
<path opacity="0.3" d="M47.4453 241.429C47.8393 242.635 47.79 243.029 48.1594 243.571C55.0049 246.6 66.8491 244.433 68.6959 243.202C69.2377 242.808 70.1241 242.094 70.4443 241.601C70.6412 241.281 70.986 240.764 70.986 240.764C71.0106 240.715 71.0352 240.641 71.0599 240.591C71.0599 240.591 71.0599 240.591 71.0599 240.567C71.1337 240.37 71.2076 240.173 71.2815 240C68.4743 242.241 68.4743 242.241 67.1446 242.734C66.332 243.029 63.451 243.99 55.4728 243.793C53.4782 243.719 50.7203 243.694 47.4453 241.429Z" fill="#607697"/>
<path d="M58.7105 193.215V193.24C58.7105 193.264 58.7105 193.314 58.7105 193.338C58.5874 201.317 58.4889 234.141 58.6366 235.52C58.3658 235.938 57.7255 236.726 57.7502 236.677C56.322 238.327 54.6229 239.459 52.456 239.386C52.2836 239.386 52.1605 239.386 52.0127 239.312C50.486 239.238 48.8362 238.548 47.1372 237.366C47.408 234.658 47.6543 231.629 47.802 229.659C48.196 223.922 46.8663 218.726 46.817 206.315C45.6351 200.75 44.2561 195.284 42.2616 189.251C40.0947 182.922 38.5433 183.045 37.2875 178.539C36.7458 176.619 36.3518 171.177 36.3518 169.01C36.3518 168.049 36.4257 167.114 36.5488 166.252C32.4612 151.33 42.1877 158.397 47.1864 158.717C49.4518 158.865 51.7419 158.717 54.1058 158.323C56.8883 164.307 57.5285 169.748 57.7748 170.906C58.2426 173.713 58.6859 180.952 58.7844 185.188V185.237C58.7844 187.97 58.7351 190.605 58.7105 193.215Z" fill="#B6CDE2"/>
<path opacity="0.3" d="M58.7001 193.214V193.239C58.7001 193.264 58.7001 193.313 58.7001 193.337C58.7001 193.584 58.3799 232.982 58.6262 235.519C58.5769 235.617 58.5031 235.691 58.4292 235.789C58.3799 235.888 58.3061 235.962 58.2322 236.036C58.1583 236.11 58.1091 236.208 58.0352 236.282C57.9367 236.405 57.8136 236.553 57.7151 236.676C57.7151 236.676 57.7151 236.676 57.6905 236.676C57.5427 236.848 57.4196 236.996 57.2719 237.144C57.2226 237.193 57.198 237.218 57.1487 237.267C56.607 237.809 56.0653 238.227 55.5235 238.572C55.4743 238.597 55.4004 238.646 55.3512 238.67C55.3019 238.695 55.2281 238.72 55.1788 238.769C55.1049 238.818 55.0557 238.843 54.9818 238.867C53.8737 239.409 52.7903 239.532 51.8792 239.385C51.8792 239.385 51.9038 239.385 51.9284 239.36C50.4017 239.286 48.7519 238.597 47.0528 237.415C47.1267 236.75 47.176 236.11 47.2498 235.494C48.6288 235.937 50.4263 236.208 51.8545 235.272C53.0858 234.484 53.5044 233.13 53.726 232.391C55.8437 225.004 54.6617 184.522 52.6671 170.954C51.1897 171.274 48.6042 171.742 45.3538 171.594C43.2854 171.496 40.9214 171.176 38.4344 170.388C37.671 170.141 36.9323 169.895 36.2429 169.6C31.3919 167.654 28.2154 164.773 26.6641 163.173C26.7626 162.286 26.8611 161.351 26.9842 160.415C29.3481 160.661 31.712 160.883 34.1005 161.154C34.7408 161.228 35.4056 161.301 36.0459 161.375V161.351C36.8338 153.569 39.5425 158.297 46.7081 158.814C46.8312 158.814 46.9297 158.839 47.0528 158.839C49.663 158.987 52.2978 158.74 55.0557 158.248C55.9422 165.291 56.8532 164.798 57.6412 171.003C57.6412 171.028 57.6412 171.028 57.6412 171.053C57.6412 171.077 57.6412 171.102 57.6412 171.151C58.0598 174.451 58.4538 181.739 58.6508 185.335V185.384C58.6508 185.532 58.6754 185.655 58.6754 185.802C58.8232 188.708 58.7739 190.752 58.7001 193.214Z" fill="#B6CDE2"/>
<path d="M24.2538 120.424C22.013 127.688 21.7175 139.656 24.3277 142.389C29.3018 147.56 46.1201 143.3 52.0052 132.835C53.2364 130.618 53.7536 128.575 53.9752 127.393C53.3103 127.861 45.406 133.303 36.1719 129.855C24.6724 125.546 26.1991 115.524 24.2538 120.424Z" fill="#607697"/>
<path d="M26.3304 161.399C30.3688 165.437 35.8107 168.047 41.7205 168.761C48.6891 169.722 54.2296 167.358 54.5004 167.358C55.3869 167.038 56.2241 166.718 57.1106 166.299C53.9587 149.259 53.6878 153.421 54.008 146.378C54.008 146.181 54.0326 146.009 54.0326 145.812V145.787C54.0326 145.492 54.0326 143.792 54.205 141.182C54.205 141.182 54.205 141.158 54.205 141.133C54.6482 134.534 56.692 132.687 56.6181 130.274C56.6181 130.003 56.5689 129.732 56.5196 129.461C56.4211 129.018 56.2241 128.575 55.9779 128.132C55.9286 128.058 55.8794 127.959 55.8301 127.885C54.1803 125.324 50.142 123.01 44.7247 120.523C44.0352 120.203 43.3211 119.882 42.5824 119.562C40.7602 118.75 38.8149 117.937 36.7711 117.051C36.6726 117.001 36.3771 116.903 35.9092 116.731C35.7615 116.681 35.5645 116.607 35.3921 116.534C35.0474 116.41 34.6534 116.287 34.2348 116.14C32.0186 115.376 30.9351 115.204 29.6301 115.475C18.3768 117.814 26.7737 136.651 27.4631 148.865C27.7094 154.159 26.9953 158.542 26.3304 161.399Z" fill="#607697"/>
<path d="M44.6845 120.522C43.9951 120.202 43.281 119.881 42.5422 119.561C41.2864 119.881 39.7351 120.005 38.233 119.389C37.5435 119.118 36.4847 118.429 35.9429 117.099C35.8937 117 35.8937 116.902 35.8937 116.754C35.746 116.705 35.549 116.631 35.3766 116.557C35.2042 116.803 34.958 117.222 34.8841 117.764C34.6871 119.315 36.0907 120.522 36.3616 120.768C38.3807 122.516 41.311 121.851 41.9759 121.704C43.2071 121.408 44.1428 120.891 44.6845 120.522Z" fill="#607697"/>
<path d="M57.1205 166.298C56.2094 166.717 55.3722 167.037 54.5104 167.357C54.5104 167.357 51.654 168.465 47.6649 168.859C45.5472 169.056 43.4788 169.007 41.7305 168.761C44.8577 167.505 47.394 168.194 48.2312 157.754C48.773 150.957 46.6799 148.052 46.3844 132.662C49.1423 133.622 51.8756 134.558 54.6335 135.518C54.6335 135.518 54.7074 135.592 54.7074 135.617C54.4365 136.848 54.2888 139.581 54.2149 141.132C54.2149 141.403 54.0425 145.786 54.0425 145.786C53.6978 153.666 53.8702 148.815 57.1205 166.298Z" fill="#607697"/>
<path d="M77.0954 145.788C76.9723 145.886 76.8245 145.96 76.7014 146.034C75.2486 146.97 73.8696 147.462 72.86 147.757C72.4907 146.649 72.1213 145.541 71.752 144.433C71.9982 143.818 72.2691 143.276 72.5153 142.833C72.7123 142.488 72.8847 142.192 73.057 141.946C73.6726 141.035 74.0174 140.543 74.5345 140.149C74.7807 139.952 75.0516 139.829 75.2732 139.459C75.4702 139.164 75.4702 138.942 75.7164 138.794C75.9627 138.647 76.2582 138.696 76.3074 138.72C76.5537 138.77 76.7506 138.917 76.8245 139.016C77.0954 139.361 76.8738 140.198 76.1597 141.01C76.3074 141.134 76.529 141.281 76.8245 141.404C78.105 141.823 79.6809 140.764 80.3458 140.321C80.8629 139.976 81.3307 139.582 82.1433 139.435C82.4634 139.385 82.8821 139.287 82.9805 139.459C83.1529 139.705 82.7097 140.592 79.6071 143.571C79.0653 144.212 78.2035 145.024 77.0954 145.788Z" fill="#FFE8D7"/>
<path opacity="0.5" d="M76.7014 146.034C75.2486 146.969 73.8696 147.462 72.86 147.757C72.4907 146.649 72.1213 145.541 71.752 144.433C71.9982 143.817 72.2691 143.276 72.5153 142.833C73.0078 143.005 74.0174 143.448 74.8054 144.458C75.1747 144.95 75.421 145.418 75.5441 145.787C75.9381 145.886 76.3321 145.96 76.7014 146.034Z" fill="#FFE8D7"/>
<path d="M75.2533 146.872C73.8497 148.718 59.7401 162.262 54.5936 157.829C52.6976 156.204 51.2694 152.831 50.3583 149.999C49.4472 147.216 49.4472 146.822 46.3691 132.663C47.4526 129.61 50.8015 125.941 53.4855 126.483C54.569 126.704 55.2338 127.492 55.5293 127.837C58.0164 130.57 56.7113 136.382 60.3064 148.768C60.5773 148.645 72.2245 143.301 72.2245 143.301C72.2245 143.301 73.2587 143.72 74.1698 144.508C75.2533 145.419 75.2779 146.724 75.2533 146.872Z" fill="#607697"/>
<path d="M48.0322 116.904C47.0472 117.593 46.1115 116.879 45.1758 117.199C43.9938 117.125 43.7476 119.095 44.0923 120.252C40.054 122.789 34.6121 120.154 35.4985 117.15C35.794 116.239 36.0403 114.761 35.9418 113.235C35.6955 109.344 33.4055 108.039 33.3809 104.444C33.3809 100.356 40.3249 95.8992 46.0377 97.2782C46.6779 97.4259 49.0418 97.9923 50.6177 100.036C53.3264 103.483 49.8051 115.599 48.0322 116.904Z" fill="#FFE8D7"/>
<path opacity="0.5" d="M44.1117 120.228C40.0733 122.764 34.6314 120.129 35.5178 117.125C35.838 116.14 35.9365 115.155 35.9857 114.466C37.3154 115.155 41.3538 112.299 41.5507 112.151C41.5015 112.299 41.009 114.022 41.7477 115.278C42.3141 116.189 44.1117 116.953 45.1705 117.174C44.0132 117.125 43.7669 119.095 44.1117 120.228Z" fill="#FFE8D7"/>
<path d="M33.1526 107.03C33.7436 108.877 34.4823 109.172 35.024 111.216C35.2456 112.078 35.6396 114.343 35.4426 115.18C37.905 117.421 41.8203 115.599 42.559 112.324C42.5098 111.93 42.165 111.708 42.0665 110.502C41.6972 107.054 45.2184 107.621 44.9968 109.541C44.7013 112.225 47.7301 105.971 47.7301 105.971C47.8286 105.725 48.0256 105.331 48.3949 104.961C49.4291 103.804 50.6357 103.952 51.473 103.582C52.6795 103.041 51.4483 97.8942 46.9667 95.6041C44.5536 94.2498 40.4167 93.8558 36.8708 96.1459C36.8216 96.1705 36.797 96.1951 36.7723 96.2198C33.128 98.6329 31.8967 103.509 33.1526 107.03Z" fill="#607697"/>
<path opacity="0.3" d="M33.1534 107.03C33.7444 108.877 34.4831 109.173 35.0248 111.216C35.2464 112.078 35.6404 114.344 35.4434 115.181C35.8867 115.575 36.3545 115.846 36.847 115.969C37.241 114.196 37.1671 111.61 36.5023 109.591C35.7635 107.301 33.5966 105.577 36.0098 99.9139C38.0782 95.0629 44.8991 95.3584 46.9183 95.6046C44.5051 94.2503 40.3682 93.8563 36.8224 96.1464C36.7731 96.171 36.7485 96.1956 36.7239 96.2202C33.1288 98.6334 31.8976 103.509 33.1534 107.03Z" fill="#607697"/>
<path d="M108.535 116.414C108.831 116.537 109.101 116.685 109.323 116.858C110.357 117.695 110.998 119.246 110.776 120.6C110.677 121.191 110.456 121.708 109.988 122.127C109.175 122.866 107.353 123.087 106.22 123.087C106.22 123.087 105.703 123.087 105.629 123.087H105.605C105.58 123.087 105.137 123.112 105.088 123.112C104.275 123.211 102.945 124.516 101.148 124.589C100.335 124.614 99.5227 124.319 99.4734 124.097C99.4242 123.802 100.483 123.875 101.96 122.964C102.182 122.817 103.241 122.078 103.192 121.807C103.118 121.708 102.453 122.053 100.877 122.595C100.36 122.767 98.7101 123.309 97.4789 122.94C96.5431 122.644 98.1683 122.004 99.0302 121.659C99.7935 121.364 100.114 121.314 100.705 120.97C102.724 119.837 101.099 120.231 97.3311 121.044C97.011 121.117 96.3215 121.265 95.8537 120.896C95.6813 120.773 95.4597 120.502 95.5089 120.256C95.6074 119.837 96.4693 119.788 97.7497 119.566C99.3011 119.295 100.803 118.901 100.779 118.778C100.754 118.68 99.4734 118.68 98.2176 118.827C96.7155 118.975 96.3215 119.148 96.1738 118.901C96.0507 118.68 96.1738 118.212 96.2723 118.138C96.9125 117.572 97.3065 117.719 100.064 117.005C101.296 116.685 102.699 116.291 102.822 116.094C102.822 116.094 102.847 116.07 102.896 115.996C103.807 115.7 104.841 115.528 105.359 116.02C105.876 116.537 105.408 117.301 105.95 118.089C106.59 119 108.117 119.197 108.88 118.729C109.249 118.606 108.806 117.301 108.535 116.414Z" fill="#FFE8D7"/>
<path opacity="0.5" d="M108.535 116.414C108.831 116.537 109.101 116.685 109.323 116.858C110.357 117.695 110.998 119.246 110.776 120.6C110.677 121.191 110.456 121.708 109.988 122.127C109.175 122.866 107.353 123.087 106.22 123.087C106.22 123.087 105.703 123.087 105.629 123.087H105.605C105.58 123.087 105.137 123.112 105.088 123.112C104.275 123.211 102.945 124.516 101.148 124.589C100.335 124.614 99.5227 124.319 99.4734 124.097C99.4242 123.802 100.483 123.875 101.96 122.964C102.182 122.817 103.241 122.078 103.192 121.807C103.118 121.708 102.453 122.053 100.877 122.595C100.36 122.767 98.7101 123.309 97.4789 122.94C96.5431 122.644 98.1683 122.004 99.0302 121.659C99.7935 121.364 100.114 121.314 100.705 120.97C102.724 119.837 101.099 120.231 97.3311 121.044C97.011 121.117 96.3215 121.265 95.8537 120.896C95.6813 120.773 95.4597 120.502 95.5089 120.256C95.6074 119.837 96.4693 119.788 97.7497 119.566C99.3011 119.295 100.803 118.901 100.779 118.778C100.754 118.68 99.4734 118.68 98.2176 118.827C96.7155 118.975 96.3215 119.148 96.1738 118.901C96.0507 118.68 96.1738 118.212 96.2723 118.138C96.9125 117.572 97.3065 117.719 100.064 117.005C101.296 116.685 102.699 116.291 102.822 116.094C102.822 116.094 102.847 116.07 102.896 115.996C103.807 115.7 104.841 115.528 105.359 116.02C105.876 116.537 105.408 117.301 105.95 118.089C106.59 119 108.117 119.197 108.88 118.729C109.249 118.606 108.806 117.301 108.535 116.414Z" fill="#FFE8D7"/>
<path d="M103.123 114.321C102.458 114.617 101.867 114.74 101.374 114.814C100.66 114.912 100.193 114.838 100.119 115.085C100.02 115.356 100.414 115.971 100.956 116.143C101.892 116.464 102.31 116.094 103.147 116.316C104.65 116.685 104.453 118.704 106.275 119.566C106.422 119.64 107.728 120.231 108.565 119.591C109.23 119.098 109.402 118.064 109.156 117.325C109.106 117.178 108.983 116.882 108.54 116.439C107.284 115.183 105.561 114.814 104.059 114.494C103.64 114.395 103.32 114.346 103.123 114.321Z" fill="#FFE8D7"/>
<path d="M136.279 104.2C135.762 110.75 131.058 118.26 130.172 119.023C127.66 121.24 124.755 121.51 120.248 121.88C114.659 122.348 112.369 122.372 109.266 122.545C109.488 122.151 109.783 120.944 109.512 119.171C109.291 117.915 108.675 116.536 108.527 116.413C116.801 115.773 120.766 114.296 124.114 113.163C126.281 107.327 128.325 100.875 129.95 94.4732C131.231 93.4144 131.92 93.4144 132.29 93.5621C133.866 94.1777 132.807 98.2653 135.368 102.772C135.737 103.436 136.082 103.929 136.279 104.2Z" fill="#FFE8D7"/>
<path opacity="0.5" d="M136.291 104.201C135.774 110.751 131.071 118.261 130.184 119.024C127.673 121.24 124.767 121.511 120.261 121.881C114.671 122.348 112.381 122.373 109.279 122.545C109.5 122.152 109.796 120.945 109.525 119.172C109.328 118.089 108.835 116.857 108.564 116.414C108.688 116.562 109.771 117.695 110.239 118.433C110.584 119 110.855 119.221 111.002 119.369C112.135 120.551 114.77 120.6 114.77 120.6C116.296 120.674 123.979 120.058 124.866 119.738C125.826 119.369 126.959 118.606 127.279 117.571C127.87 115.774 126.048 113.755 126.245 111.735C126.491 109.47 127.451 106.688 127.796 105.875C128.387 104.447 129.15 102.28 129.864 99.1279C130.775 99.7435 131.711 100.335 132.622 100.95C133.484 101.541 134.346 102.132 135.38 102.772C135.676 103.265 135.996 103.733 136.291 104.201Z" fill="#FFE8D7"/>
<path d="M125.895 106.687C125.895 106.687 129.096 108.435 130.45 108.435C131.804 108.435 131.706 93.3901 131.657 93.0454C131.607 92.7007 129.982 94.4982 129.982 94.4982L125.895 106.687Z" fill="#FFA361"/>
<path d="M131.564 100.284C131.441 104.273 131.121 108.435 130.407 108.435C129.644 108.435 128.265 107.868 127.23 107.376C127.895 105.357 128.757 103.904 129.841 99.1514C130.407 99.5207 130.998 99.9147 131.564 100.284Z" fill="#FCBD8F"/>
<path d="M147.473 199.47C147.522 198.091 146.931 196.835 146.513 195.53C146.414 195.259 146.365 195.112 146.34 195.087C144.543 196.293 143.681 196.047 141.465 196.047C140.8 196.047 140.48 195.161 140.11 195.235C140.086 195.284 139.593 196.17 139.544 196.22C139.52 196.22 139.52 196.244 139.495 196.244C133.757 200.553 130.482 200.578 129.399 202.647C129.399 202.671 129.399 202.671 129.399 202.671C129.399 202.647 129.399 202.647 129.399 202.622C128.586 205.454 133.437 206.34 136.417 205.552C140.504 204.493 139.84 203.287 143.533 203.262C145.183 203.262 146.587 202.277 147.104 201.194C147.227 200.923 147.473 199.864 147.473 199.396C147.473 199.445 147.473 199.445 147.473 199.47Z" fill="#FFA361"/>
<path d="M147.056 201.218C146.564 202.228 145.653 202.696 145.234 202.893C143.732 203.632 143.24 203.016 141.368 203.509C139.768 203.952 139.792 204.469 137.551 205.208C136.739 205.478 136.123 205.675 135.286 205.774C132.43 206.094 128.588 205.232 129.327 202.647C129.425 205.281 132.799 205.257 135.384 204.961C136.222 204.863 136.837 204.666 137.65 204.395C139.891 203.632 139.866 203.139 141.467 202.696C143.338 202.203 143.831 202.794 145.333 202.08C145.751 201.883 146.662 201.391 147.155 200.406C147.204 200.307 147.278 199.987 147.401 199.421C147.426 199.963 147.13 201.071 147.056 201.218Z" fill="#FCBD8F"/>
<path d="M146.642 196.171C145.682 197.648 142.111 198.535 139.477 196.245C139.797 195.727 140.043 195.26 140.043 195.26C140.043 195.284 140.043 195.284 140.068 195.284C140.462 195.604 140.929 195.851 141.397 196.072H141.446C141.52 196.097 141.57 196.146 141.643 196.171C142.899 196.688 144.352 196.343 145.239 195.752V195.727L145.312 195.654C145.337 195.654 145.337 195.629 145.362 195.604C145.583 195.506 145.731 195.481 146.273 195.112C146.297 195.112 146.642 196.146 146.642 196.171Z" fill="#FCBD8F"/>
<path d="M157.217 203.582C155.1 200.972 152.317 202.055 151.308 203.09C151.16 203.237 150.052 210.994 149.362 213.038C149.067 213.949 148.722 214.835 148.771 215.746C148.648 216.584 149.19 217.027 150.027 217.273C152.662 218.11 156.306 217.569 157.513 214.367C157.513 214.343 157.513 214.343 157.513 214.343C157.734 213.924 157.858 212.989 157.858 212.57C158.005 209.812 158.005 206.241 157.217 203.582Z" fill="#FFA361"/>
<path d="M150.012 217.273C153.041 218.233 156.389 217.273 157.497 214.367C157.497 214.343 157.497 214.343 157.497 214.343C157.719 213.727 157.842 212.988 157.842 212.57L157.818 212.594C156.586 216.411 152.253 217.618 148.756 215.623C148.559 216.51 149.125 217.002 150.012 217.273Z" fill="#FCBD8F"/>
<path d="M156.061 205.823C154.953 206.66 153.574 206.463 152.909 206.364C151.038 206.094 150.323 204.567 151.111 203.41C151.678 202.572 152.983 202.375 157.144 203.853C157.341 204.862 156.209 205.724 156.061 205.823Z" fill="#FCBD8F"/>
<path d="M146.895 195.653C144.777 197.205 143.62 197.426 141.724 197.082C140.566 196.885 139.68 196.072 139.335 195.235C139.114 192.329 139.409 174.501 136.331 167.557C135.691 166.104 135.1 162.559 133.967 156.673C131.997 146.504 131.849 136.752 134.878 126.903C137.242 128.011 134.016 127.124 145.91 132.64C145.91 135.374 146.279 150.714 145.368 164.578C150.564 175.585 146.23 179.648 146.895 195.653Z" fill="#607697"/>
<path d="M146.901 195.654C144.784 197.205 143.626 197.427 141.73 197.082C140.819 196.934 140.228 196.442 139.834 195.999C143.257 195.949 144.316 195.186 144.636 194.472C145.301 192.921 146.556 178.121 145.079 172.335C142.37 161.82 143.183 172.187 141.755 155.713C141.164 148.966 140.425 142.441 139.588 136.162L145.867 134.241C145.719 143.771 145.99 155.049 145.375 164.578C150.57 175.585 146.236 179.648 146.901 195.654Z" fill="#607697"/>
<path d="M157.765 202.745C157.741 202.769 157.741 202.868 157.741 202.892C157.741 202.991 157.716 203.089 157.716 203.163C157.716 203.188 157.716 203.188 157.716 203.188C157.495 205.232 154.909 206.044 152.841 205.872L152.816 205.897C152.323 205.823 151.117 205.527 150.797 205.133C150.452 204.715 150.526 204.222 150.526 204.05C150.748 184.523 150.304 179.426 148.211 172.752C148.039 172.211 147.743 171.743 147.497 171.25C146.192 167.704 144.148 147.931 143.607 145.37C143.533 145.075 143.385 144.829 143.385 144.829C141.76 143.13 140.479 141.11 139.79 138.771C139.076 138.697 136.269 138.623 132.723 137.294C142.646 135.151 149.738 133.625 149.738 133.625C150.28 132.714 150.698 132.024 151.068 131.482C154.195 129.266 154.589 128.823 155.796 128.306L155.82 128.281C157.199 129.611 158.159 131.482 158.529 132.073C158.529 132.073 158.578 132.123 158.578 132.147C160.055 134.807 160.449 138.426 160.474 141.455C160.548 144.632 159.465 153.841 159.415 153.89C159.415 153.964 159.366 154.137 159.341 154.432C159.317 154.629 157.815 166.867 157.347 169.182C157.347 169.305 157.962 171.029 157.962 171.029C158.036 171.226 158.086 171.373 158.11 171.423C158.406 172.26 160.302 179.352 160.499 182.651C160.523 182.873 160.523 183.39 160.499 183.612C160.794 185.631 158.061 200.381 157.765 202.745Z" fill="#607697"/>
<path d="M158.766 196.687C158.716 196.884 157.707 202.646 157.707 203.164C157.707 203.188 157.707 203.188 157.707 203.188C157.485 205.232 154.9 206.045 152.831 205.872H152.807C153.767 205.651 154.579 205.183 155.22 204.419C157.091 202.252 157.904 187.798 157.904 187.798C158.372 184.745 158.692 182.701 158.15 179.992C157.559 176.963 156.722 176.299 155.491 172.186C152.683 162.657 161.425 137.516 151.181 138.87C142.612 140.003 134.609 136.26 133.354 133.108C133.92 132.985 139.559 135.669 140.273 135.669C142.292 135.817 144.287 135.25 146.133 134.413L149.704 133.65C150.246 132.739 150.664 132.049 151.034 131.507C153.225 129.956 154.949 128.577 155.761 128.331L155.786 128.306C156.673 129.168 157.854 130.916 158.495 132.098C158.741 132.566 158.987 133.034 159.16 133.477C161.4 139.092 160.268 147.956 159.381 153.94C159.357 154.063 159.332 154.235 159.307 154.482C159.283 154.679 157.756 167.065 157.313 169.231C157.313 169.231 160.465 178.219 160.465 183.39C160.588 186.567 158.79 196.466 158.766 196.687Z" fill="#607697"/>
<path d="M158.73 133.699C158.434 134.66 157.45 135.324 156.563 135.792L156.538 135.817C151.811 137.861 140.828 138.575 135.78 135.177C134.992 134.635 133.022 133.084 132.875 132.148C132.875 132.123 132.875 132.123 132.875 132.123C132.776 131.582 132.973 131.04 133.145 130.523C133.638 129.168 133.933 128.11 133.933 126.189C133.933 122.2 133.096 120.402 130.018 117.103C130.018 117.103 129.6 116.659 129.329 116.389C128.639 115.674 127.383 114.148 126.965 111.882C126.472 109.321 127.802 107.672 128.935 103.904C130.855 97.5757 128.664 95.6304 130.56 93.5619C133.515 90.3608 140.828 92.7001 144.94 94.1529C145.901 94.4976 148.831 95.4334 152.032 97.354C154.495 98.8315 155.972 100.186 156.711 100.949C159.715 103.978 158.065 110.208 156.686 114.517C156.588 114.739 156.489 114.936 156.415 115.083C156.415 115.108 156.391 115.108 156.415 115.133C155.356 117.989 155.209 120.772 155.603 123.726C155.947 126.287 156.809 127.962 157.597 129.267V129.292C158.41 130.375 159.321 131.655 158.73 133.699Z" fill="#FFA361"/>
<path d="M158.725 133.699C158.43 134.659 157.445 135.324 156.558 135.792L156.534 135.817C151.806 137.86 140.824 138.575 135.776 135.176C134.988 134.635 133.018 133.083 132.87 132.148C132.845 132.123 132.845 132.123 132.87 132.123C132.772 131.581 132.969 131.04 133.141 130.522C133.633 129.168 133.954 127.986 133.954 126.213C133.929 122.84 133.732 121.091 130.014 117.102C130.235 117.25 130.605 117.447 130.974 117.595C133.018 118.333 139.001 121.436 142.621 119.614C145.675 118.087 147.546 105.455 152.594 103.83C152.692 103.805 152.791 103.781 152.791 103.781C154.219 103.485 155.524 104.544 155.844 104.79C157.47 106.021 157.051 110.405 156.411 115.083C156.411 115.403 154.859 118.26 155.598 123.702C155.943 126.262 156.805 127.937 157.593 129.242C157.593 129.242 157.593 129.267 157.617 129.267C158.455 130.399 159.316 131.68 158.725 133.699Z" fill="#FCBD8F"/>
<path d="M146.093 98.2889C145.601 98.9538 143.311 101.81 139.716 101.515C134.668 101.096 133.338 96.7376 135.086 93.5611C135.726 92.4776 135.726 92.453 135.726 92.453C135.899 92.3299 136.391 92.1821 137.081 92.0098C140.282 92.3791 143.976 93.6842 147.3 94.9647C147.349 95.8265 147.103 96.91 146.093 98.2889Z" fill="#FCBD8F"/>
<path d="M136.129 97.1566C136.031 94.2263 136.129 90.7543 137.164 88.1441C138.198 85.5832 140.315 82.9485 141.424 83.2439C142.778 83.6133 142.655 85.8049 145.019 89.5477C145.117 89.6955 145.117 91.887 145.585 93.6599C145.979 95.1866 145.757 95.9007 145.166 96.8611C142.556 101.121 136.277 100.653 136.129 97.1566Z" fill="#FFE8D7"/>
<path opacity="0.5" d="M136.129 97.1566C136.031 94.2263 136.129 90.7543 137.164 88.1441C138.198 85.5832 140.315 82.9485 141.424 83.2439C142.778 83.6133 142.655 85.8049 145.019 89.5477C145.117 89.6955 145.117 91.887 145.585 93.6599C145.979 95.1866 145.757 95.9007 145.166 96.8611C142.556 101.121 136.277 100.653 136.129 97.1566Z" fill="#FFE8D7"/>
<path d="M149.158 78.763C149.158 78.763 149.158 82.9738 148.198 86.2488C147.607 88.2187 146.548 89.5484 145.514 90.755C143.618 92.9958 142.362 94.4979 139.087 95.0888C137.732 95.3105 136.723 95.2612 135.787 94.2516C132.414 90.6319 132.29 88.1694 131.872 85.7563C131.256 82.1119 131.379 81.2254 131.626 80.5606C131.97 79.5756 132.537 78.9108 132.931 78.4922C135.492 77.3102 138.052 76.1282 140.638 74.9463L149.158 78.763Z" fill="#FFE8D7"/>
<path opacity="0.5" d="M145.54 90.7307C144.334 92.1836 143.275 93.4886 141.576 94.3012C142.906 91.3217 143.004 87.8743 141.601 84.7471C138.129 85.5843 134.607 83.9591 132.908 80.8565C133.647 80.4132 136.799 78.591 140.665 79.5268C141.502 79.7238 145.959 80.8318 146.944 84.6978C147.732 87.7512 145.836 90.3368 145.54 90.7307Z" fill="#FFE8D7"/>
<path d="M150.723 96.5922C150.501 96.6414 147.472 97.1093 145.897 95.164C144.838 93.8589 144.813 91.9382 145.182 90.6578C145.576 89.3034 146.463 88.4416 146.537 86.7425C146.561 86.2746 146.512 85.7822 146.167 85.5113C145.921 85.3143 145.601 85.3143 145.33 85.3389C145.158 85.3636 145.035 85.3882 144.985 85.4128C143.409 85.9299 143.483 88.7617 143.163 88.7124C142.769 88.6632 143.065 84.8711 141.71 84.2062C141.243 83.9846 141.046 84.0831 139.839 84.1816C139.149 84.2308 138.214 84.157 136.933 83.7384C134.914 83.0489 133.043 81.5468 132.526 80.9558C132.082 82.0885 131.935 83.0981 131.861 83.7876C131.688 85.7329 132.181 88.1461 132.821 89.8698C128.536 84.2062 129.546 76.5235 135.013 73.1254C136.983 71.8942 139.396 71.3278 141.957 71.8942C145.527 72.6575 149.024 75.2677 149.886 80.5126C150.994 86.9395 147.226 89.5989 150.723 96.5922Z" fill="#607697"/>
<path opacity="0.3" d="M150.746 96.5904C150.525 96.6397 147.496 97.1075 145.92 95.1622C144.861 93.8571 144.836 91.9365 145.206 90.656C145.6 89.3017 146.486 88.4398 146.56 86.7408C146.585 86.2729 146.535 85.7804 146.191 85.5096C145.944 85.3126 145.624 85.3126 145.353 85.3372C145.871 81.9144 146.191 78.0238 143.974 75.4875C141.611 72.7789 137.424 72.8035 135.061 73.099C137.03 71.8678 139.444 71.3014 142.005 71.8678C145.575 72.6311 149.072 75.2413 149.934 80.4862C151.017 86.9378 147.25 89.5972 150.746 96.5904Z" fill="#607697"/>
<path d="M128.561 134.463C128.142 134.783 127.724 135.078 127.33 135.374C126.443 135.718 125.729 135.965 124.596 136.063C123.168 136.186 121.715 135.989 120.312 135.546C119.548 135.3 119.573 135.201 118.662 134.93C118.022 134.733 117.406 134.61 116.963 134.069C116.914 134.019 116.717 133.773 116.79 133.699C116.864 133.576 117.308 133.822 117.874 133.872C118.219 133.921 118.686 133.896 119.253 133.65C118.292 133.576 115.904 133.305 115.141 132.37C115.067 132.271 114.796 131.951 114.894 131.779C114.993 131.631 115.362 131.729 116.126 131.852C116.569 131.926 117.012 131.976 117.455 132.025C118.071 132.123 120.262 132.32 121.814 131.04C121.543 130.867 121.124 130.597 120.558 130.375C119.795 130.055 119.327 129.981 119.253 129.661C119.204 129.415 119.376 129.095 119.622 128.947C119.622 128.947 123.537 129.489 123.759 129.513C126.739 129.833 127.083 130.326 128.93 129.956C129.275 130.227 129.349 130.252 129.472 130.473C130.112 131.729 129.472 133.354 128.561 134.463Z" fill="#FFE8D7"/>
<path d="M155.413 117.914C155.413 117.939 155.388 117.939 155.388 117.939C154.009 121.559 150.931 127.616 148.764 129.882C148.1 130.571 147.065 131.384 138.915 133.231C134.95 134.117 131.577 134.708 127.268 135.397C127.341 135.348 127.809 134.979 128.302 134.388C128.942 133.625 129.607 132.443 129.41 131.113C129.361 130.743 129.361 130.497 128.967 129.931C135.615 128.429 141.747 124.563 143.544 123.75C143.667 123.208 145.366 119.318 146.696 115.846C147.164 114.615 147.607 113.433 147.903 112.448C148.888 113.851 149.355 117.791 155.413 117.914Z" fill="#FFE8D7"/>
<path opacity="0.5" d="M155.376 117.914C155.376 117.939 155.351 117.939 155.351 117.939C153.972 121.558 150.894 127.616 148.727 129.881C148.063 130.571 147.028 131.383 138.878 133.23C134.913 134.117 131.54 134.708 127.23 135.397C126.369 135.767 125.482 135.964 124.596 136.037C124.891 136.013 126.369 135.84 127.452 134.535C128.708 133.033 128.363 131.236 128.314 130.989C128.462 131.26 128.634 131.728 128.708 132.295C128.782 132.886 128.634 133.87 128.634 133.87C129.176 133.747 138.262 131.95 143.975 130.398C144.738 130.201 145.896 129.857 147.078 128.946C148.58 127.788 149.294 126.286 150.426 123.898C150.87 122.962 151.461 121.583 152.027 119.835C151.411 119.588 150.747 119.268 150.032 118.825C148.481 117.84 147.373 116.732 146.659 115.821C147.078 114.811 147.521 113.482 147.866 112.423C148.851 113.851 149.318 117.791 155.376 117.914Z" fill="#FFE8D7"/>
<path d="M155.381 117.914C154.938 117.914 154.494 117.865 154.002 117.816C149.422 117.274 147.6 115.329 146.787 114.196C147.624 111.389 149.2 106.735 150.924 104.371C151.466 103.632 152.5 102.229 154.101 102.081C154.864 102.007 156.735 102.426 157.573 104.001C157.843 104.839 157.991 105.676 158.09 106.489C158.188 110.158 156.785 114.516 155.381 117.914Z" fill="#FFA361"/>
</svg>
