<svg width="48" height="48" viewBox="0 0 48 48" fill="none" xmlns="http://www.w3.org/2000/svg">
<circle cx="24" cy="24" r="24" fill="#F87C22"/>
<path d="M22.2 16.8C19.2177 16.8 16.8 19.2177 16.8 22.2C16.8 25.1823 19.2177 27.6 22.2 27.6C25.1823 27.6 27.6 25.1823 27.6 22.2C27.6 19.2177 25.1823 16.8 22.2 16.8ZM15 22.2C15 18.2235 18.2235 15 22.2 15C26.1764 15 29.4 18.2235 29.4 22.2C29.4 23.8638 28.8356 25.3959 27.8879 26.6151L32.7364 31.4636C33.0879 31.8151 33.0879 32.3849 32.7364 32.7364C32.3849 33.0879 31.8151 33.0879 31.4636 32.7364L26.6151 27.8879C25.3959 28.8356 23.8638 29.4 22.2 29.4C18.2235 29.4 15 26.1764 15 22.2Z" fill="white"/>
</svg>
