<svg width="30" height="30" viewBox="0 0 30 30" fill="none" xmlns="http://www.w3.org/2000/svg">
<path d="M24 12.75C24 9.02208 20.9779 6 17.25 6C13.5221 6 10.5 9.02208 10.5 12.75C10.5 16.4779 13.5221 19.5 17.25 19.5C20.9779 19.5 24 16.4779 24 12.75ZM17.25 3.75C22.2206 3.75 26.25 7.77944 26.25 12.75C26.25 17.7206 22.2206 21.75 17.25 21.75C15.1702 21.75 13.2552 21.0445 11.7312 19.8598L5.6705 25.9205C5.23115 26.3598 4.51884 26.3598 4.0795 25.9205C3.64016 25.4812 3.64016 24.7688 4.0795 24.3295L10.1402 18.2688C8.95546 16.7448 8.25 14.8298 8.25 12.75C8.25 7.77944 12.2794 3.75 17.25 3.75Z" fill="#1A1731"/>
</svg>
