<svg width="24" height="21" viewBox="0 0 24 21" fill="none" xmlns="http://www.w3.org/2000/svg">
<path d="M23.3512 10.1726C24.1894 8.74293 24.217 7.09403 23.4249 5.65125C22.605 4.15146 21.0391 3.15598 19.2337 2.98495L17.9349 2.86216C17.0091 2.77445 16.2123 2.37977 15.5721 1.69566C14.3701 0.410746 12.5646 -0.203204 10.7454 0.059917C8.95375 0.318653 7.44769 1.38868 6.71539 2.91917C6.36996 3.64275 5.74819 4.21724 4.96062 4.54614L3.12294 5.3048C1.65833 5.91437 0.580601 7.08526 0.175299 8.51927C-0.225396 9.9182 0.0693683 11.4005 0.972085 12.5845C1.17013 12.8432 1.34515 13.0669 1.49713 13.2642C2.2755 14.2685 2.48275 14.536 2.64856 15.1149L3.22427 17.1365C3.61115 18.4916 4.61519 19.6318 5.97387 20.2589C7.38782 20.9123 9.02745 20.9518 10.4736 20.3641L10.7177 20.2633C11.4086 19.9826 12.2008 19.9168 12.9377 20.0703L16.7144 20.8728C17.115 20.9561 17.5203 21 17.921 21C19.3442 21 20.7029 20.4738 21.7207 19.4958C22.9597 18.303 23.4617 16.6366 23.0656 15.0315L22.5958 13.0888C22.4162 12.3477 22.5313 11.5759 22.9228 10.9049L23.3512 10.1726ZM20.8457 13.4747L21.3247 15.4174C21.5826 16.4655 21.2648 17.5093 20.4588 18.2855C19.7817 18.9345 18.8744 19.2897 17.921 19.2897C17.6539 19.2897 17.3776 19.2634 17.1104 19.202L13.3338 18.3995C12.9469 18.3162 12.5508 18.2767 12.1547 18.2767C11.4224 18.2767 10.6947 18.417 10.0223 18.6845L9.77817 18.7854C8.81098 19.1757 7.71022 19.1494 6.76605 18.7152C5.87254 18.303 5.21854 17.5619 4.96522 16.6804L4.38491 14.6675C4.13159 13.7729 3.77695 13.3169 2.92029 12.2161C2.77291 12.0232 2.60711 11.8127 2.42748 11.5759C1.84256 10.8172 1.65833 9.86558 1.91165 8.96658C2.17878 8.03688 2.87884 7.27383 3.84604 6.87038L5.67911 6.11171C6.87659 5.61616 7.82536 4.73032 8.35041 3.62521C8.8294 2.62535 9.82423 1.92369 11.0125 1.75267C12.2284 1.57725 13.4305 1.9807 14.2273 2.83585C15.1807 3.85325 16.3689 4.4365 17.7552 4.56806L19.054 4.69086C20.2515 4.80487 21.2878 5.45829 21.8267 6.44061C22.3333 7.36592 22.3149 8.42279 21.7806 9.33933L21.3523 10.0717C20.7397 11.111 20.5601 12.3214 20.8457 13.4747Z" fill="#E76100"/>
</svg>
