<svg width="328" height="330" viewBox="0 0 328 330" fill="none" xmlns="http://www.w3.org/2000/svg">
<path fill-rule="evenodd" clip-rule="evenodd" d="M10 293.072V35.5025C27.5226 31.2279 46.3915 32.2938 63.684 39.7495L217 105.852C257.572 123.345 274.103 169.389 253.923 208.694L210.782 292.718C210.336 293.587 209.875 294.446 209.401 295.293H15.1517L10 293.072Z" fill="#E76100"/>
<line x1="295.5" y1="0.5" x2="295.5" y2="329.5" stroke="#1A1731" stroke-linecap="round"/>
<path d="M327.354 165.354C327.549 165.158 327.549 164.842 327.354 164.646L324.172 161.464C323.976 161.269 323.66 161.269 323.464 161.464C323.269 161.66 323.269 161.976 323.464 162.172L326.293 165L323.464 167.828C323.269 168.024 323.269 168.34 323.464 168.536C323.66 168.731 323.976 168.731 324.172 168.536L327.354 165.354ZM295 165.5H327V164.5H295V165.5Z" fill="#112350"/>
</svg>
