<svg width="48" height="49" viewBox="0 0 48 49" fill="none" xmlns="http://www.w3.org/2000/svg">
<g clip-path="url(#clip0_887:13601)">
<path fill-rule="evenodd" clip-rule="evenodd" d="M12.6879 13.5962C12.4981 13.5962 12.3412 13.753 12.3412 13.9428V24.9109C12.3412 25.1007 12.4981 25.2576 12.6879 25.2576H26.5546C26.7444 25.2576 26.9012 25.1007 26.9012 24.9109V13.9428C26.9012 13.753 26.7444 13.5962 26.5546 13.5962H12.6879ZM28.3412 20.5789V13.9428C28.3412 12.9577 27.5397 12.1562 26.5546 12.1562H12.6879C11.7028 12.1562 10.9012 12.9577 10.9012 13.9428V24.9109C10.9012 24.9347 10.9017 24.9583 10.9026 24.9818C10.9017 24.9967 10.9012 25.0117 10.9012 25.0269V31.1254C10.9012 32.1105 11.7028 32.9121 12.6879 32.9121H13.2985C13.6208 32.9121 13.9038 32.698 13.9914 32.3879C14.4085 30.9121 15.7702 29.828 17.3797 29.828C18.9892 29.828 20.3509 30.9121 20.768 32.3879C20.8556 32.698 21.1386 32.9121 21.4609 32.9121H26.5391C26.8614 32.9121 27.1444 32.698 27.232 32.3879C27.6491 30.9121 29.0108 29.828 30.6203 29.828C32.2298 29.828 33.5915 30.9121 34.0086 32.3879C34.0962 32.698 34.3792 32.9121 34.7014 32.9121H35.3043C36.2894 32.9121 37.091 32.1105 37.091 31.1254V28.0105C37.091 26.8298 36.6948 25.6175 36.0143 24.663L34.0259 21.9009C33.7692 21.545 33.3296 21.2142 32.9186 20.9818C32.5182 20.7553 31.9808 20.5285 31.492 20.535L28.3412 20.5789ZM28.3412 22.019V25.0269C28.3412 26.012 27.5397 26.8135 26.5546 26.8135H12.6879C12.5693 26.8135 12.4534 26.8019 12.3412 26.7798V31.1254C12.3412 31.3152 12.4981 31.4721 12.6879 31.4721H12.7864C13.5258 29.6647 15.3045 28.388 17.3797 28.388C19.4549 28.388 21.2336 29.6647 21.973 31.4721H26.0269C26.7664 29.6647 28.5451 28.388 30.6203 28.388C32.6955 28.388 34.4741 29.6647 35.2136 31.4721H35.3043C35.4941 31.4721 35.651 31.3152 35.651 31.1254V28.0105C35.651 27.1356 35.3519 26.2151 34.8426 25.5002C34.8423 25.4998 34.8421 25.4994 34.8418 25.499L32.8576 22.7428C32.8575 22.7427 32.8577 22.7429 32.8576 22.7428C32.774 22.6271 32.5367 22.4201 32.2099 22.2353C31.8724 22.0444 31.6098 21.9736 31.5111 21.9748C31.511 21.9748 31.5112 21.9748 31.5111 21.9748L28.3412 22.019ZM17.3797 32.1005C16.5612 32.1005 15.9071 32.7613 15.9122 33.5633L15.9123 33.5679C15.9123 34.3777 16.5655 35.0354 17.3797 35.0354C18.1895 35.0354 18.8471 34.3822 18.8471 33.5679C18.8471 32.7581 18.1939 32.1005 17.3797 32.1005ZM14.4723 33.5702C14.4632 31.9617 15.7719 30.6605 17.3797 30.6605C18.9925 30.6605 20.2871 31.9662 20.2871 33.5679C20.2871 35.1808 18.9815 36.4754 17.3797 36.4754C15.7676 36.4754 14.4735 35.171 14.4723 33.5702ZM30.6203 32.1005C29.8121 32.1005 29.1528 32.7598 29.1528 33.5679C29.1528 34.3777 29.8061 35.0354 30.6203 35.0354C31.4301 35.0354 32.0877 34.3822 32.0877 33.5679C32.0877 32.7581 31.4345 32.1005 30.6203 32.1005ZM27.7128 33.5679C27.7128 31.9645 29.0168 30.6605 30.6203 30.6605C32.2331 30.6605 33.5277 31.9662 33.5277 33.5679C33.5277 35.1808 32.2221 36.4754 30.6203 36.4754C29.0075 36.4754 27.7128 35.1697 27.7128 33.5679Z" fill="#B6CDE2"/>
</g>
<defs>
<clipPath id="clip0_887:13601">
<rect width="25.8705" height="24" fill="white" transform="translate(11.0647 12.3196)"/>
</clipPath>
</defs>
</svg>
