<svg width="49" height="48" viewBox="0 0 49 48" fill="none" xmlns="http://www.w3.org/2000/svg">
<path d="M29.3483 15.4115C30.2904 15.4115 31.0541 14.6478 31.0541 13.7057C31.0541 12.7637 30.2904 12 29.3483 12C28.4063 12 27.6426 12.7637 27.6426 13.7057C27.6426 14.6478 28.4063 15.4115 29.3483 15.4115Z" fill="#FFA361"/>
<path d="M28.7345 25.4499L28.5384 25.322H28.4701L27.4979 24.7506L23.4808 22.4307L17.161 33.2793L16.8711 33.774L16.7687 33.9531V34.0042C16.6899 34.1904 16.6493 34.3905 16.6493 34.5927C16.6425 34.7708 16.6708 34.9485 16.7327 35.1157C16.7946 35.2829 16.8888 35.4362 17.01 35.5669C17.1312 35.6976 17.277 35.8031 17.439 35.8774C17.601 35.9517 17.7761 35.9934 17.9542 36C18.1603 35.9975 18.3627 35.945 18.544 35.847C18.7252 35.7489 18.8799 35.6082 18.9947 35.4371L19.3614 34.8145L21.0246 31.9147L27.8902 30.081L28.129 30.0128H28.2058C28.693 29.8209 29.1097 29.4841 29.3994 29.0479C29.6892 28.6117 29.8382 28.0971 29.8262 27.5736C29.8305 27.0949 29.7068 26.6238 29.468 26.209C29.2808 25.9063 29.0306 25.6474 28.7345 25.4499V25.4499ZM25.0501 28.162L22.8668 28.7505L24.4275 26.0384L25.2292 26.4989L27.1397 27.5992L25.0501 28.162Z" fill="#FFA361"/>
<path d="M17.3058 24.3146L17.519 24.9031L18.1075 24.8093H18.2696L21.1523 24.3146L19.9156 23.5982L22.2781 19.5129L25.6043 18.805C25.8825 18.7257 26.1265 18.5562 26.2979 18.323C26.4692 18.0899 26.5583 17.8064 26.551 17.5172C26.5625 17.1793 26.4398 16.8505 26.2096 16.6028C25.9795 16.3551 25.6607 16.2086 25.3228 16.1953C25.219 16.1957 25.1158 16.21 25.0158 16.2379L20.5894 17.1761L17.647 22.2933L16.2909 21.5001L17.2632 24.2208L17.3058 24.3146Z" fill="#FFA361"/>
<path d="M16.1374 21.5097L14.2866 24.6653L17.0926 24.1877L16.1374 21.5097Z" fill="#FFA361"/>
<path d="M19.2931 27.642L21.1609 24.4522L18.3208 24.9298L19.2931 27.642Z" fill="#FFA361"/>
<path d="M18.1672 24.955L17.5702 25.0573L17.4167 25.0829L17.3655 24.9379L17.1523 24.3409L14.2866 24.827L19.1309 27.6671L18.1672 24.955Z" fill="#FFA361"/>
<path d="M33.485 15.8719C33.2639 15.8727 33.047 15.9325 32.8567 16.0449C32.6663 16.1573 32.5093 16.3184 32.4018 16.5115C32.3655 16.5744 32.3341 16.64 32.308 16.7077V16.7077L32.1886 16.9806L31.276 19.019H28.5895L27.2419 21.4411H32.905L34.3379 18.2343L34.6619 17.5094C34.6962 17.3902 34.7135 17.2667 34.7131 17.1427C34.7165 16.9784 34.6874 16.8151 34.6274 16.6622C34.5674 16.5093 34.4777 16.3697 34.3636 16.2516C34.2494 16.1335 34.113 16.0391 33.9622 15.974C33.8114 15.9088 33.6492 15.8741 33.485 15.8719V15.8719Z" fill="#FFA361"/>
</svg>
