<svg width="48" height="49" viewBox="0 0 48 49" fill="none" xmlns="http://www.w3.org/2000/svg">
<path d="M28.5 21.7196L19.5 16.5296" stroke="#B6CDE2" stroke-width="1.5" stroke-linecap="round" stroke-linejoin="round"/>
<path d="M33 28.3196V20.3196C32.9996 19.9689 32.9071 19.6244 32.7315 19.3208C32.556 19.0171 32.3037 18.765 32 18.5896L25 14.5896C24.696 14.4141 24.3511 14.3217 24 14.3217C23.6489 14.3217 23.304 14.4141 23 14.5896L16 18.5896C15.6963 18.765 15.444 19.0171 15.2685 19.3208C15.0929 19.6244 15.0004 19.9689 15 20.3196V28.3196C15.0004 28.6703 15.0929 29.0148 15.2685 29.3185C15.444 29.6221 15.6963 29.8743 16 30.0496L23 34.0496C23.304 34.2252 23.6489 34.3176 24 34.3176C24.3511 34.3176 24.696 34.2252 25 34.0496L32 30.0496C32.3037 29.8743 32.556 29.6221 32.7315 29.3185C32.9071 29.0148 32.9996 28.6703 33 28.3196Z" stroke="#B6CDE2" stroke-width="1.5" stroke-linecap="round" stroke-linejoin="round"/>
<path d="M15.27 19.2796L24 24.3296L32.73 19.2796" stroke="#B6CDE2" stroke-width="1.5" stroke-linecap="round" stroke-linejoin="round"/>
<path d="M24 34.3996V24.3196" stroke="#B6CDE2" stroke-width="1.5" stroke-linecap="round" stroke-linejoin="round"/>
</svg>
