<svg width="24" height="24" viewBox="0 0 24 24" fill="none" xmlns="http://www.w3.org/2000/svg">
<path d="M8.27234 7.53309V9.34243C8.27234 9.45332 8.31903 9.56422 8.39491 9.64009C8.47078 9.71597 8.58168 9.76266 8.69257 9.76266H11.0097C11.1206 9.76266 11.2315 9.71597 11.3074 9.64009C11.3832 9.56422 11.4299 9.45332 11.4299 9.34243V7.91246C11.4299 7.679 11.2432 7.49223 11.0097 7.49223C10.7762 7.49223 10.5895 7.679 10.5895 7.91246V8.92219H9.11281V7.53309C9.11281 7.29962 8.92604 7.11285 8.69257 7.11285C8.46495 7.11285 8.27234 7.29962 8.27234 7.53309Z" fill="#E76100"/>
<path d="M6.10114 7.46302V7.88325H13.1809V13.819H6.52137V7.46302H6.10114V7.88325V7.46302H5.68091V14.2393C5.68091 14.3502 5.7276 14.4611 5.80348 14.5369C5.87935 14.6128 5.99025 14.6595 6.10114 14.6595H13.607C13.7179 14.6595 13.8288 14.6128 13.9046 14.5369C13.9805 14.4611 14.0272 14.3502 14.0272 14.2393V7.46302C14.0272 7.35212 13.9805 7.24123 13.9046 7.16535C13.8288 7.08948 13.7179 7.04279 13.607 7.04279H6.10114C5.99025 7.04279 5.87935 7.08948 5.80348 7.16535C5.7276 7.24123 5.68091 7.35212 5.68091 7.46302H6.10114Z" fill="#E76100"/>
<path d="M16.5544 16.2179L20.9902 20.6537L19.6595 21.9844L15.1945 17.5195C15.0311 17.356 14.7626 17.356 14.5992 17.5195C14.4358 17.6829 14.4358 17.9514 14.5992 18.1148L19.3618 22.8774C19.4377 22.9533 19.5486 23 19.6595 23C19.7704 23 19.8813 22.9533 19.9572 22.8774L21.8832 20.9514C22.0467 20.7879 22.0467 20.5195 21.8832 20.356L17.1498 15.6226C16.9864 15.4591 16.7179 15.4591 16.5544 15.6226C16.391 15.7918 16.391 16.0545 16.5544 16.2179Z" fill="#E76100"/>
<path d="M9.85408 2.42023V2.84047C12.0661 2.84047 14.0681 3.7393 15.5214 5.18677C16.9747 6.64008 17.8677 8.63619 17.8677 10.8541C17.8677 13.0661 16.9689 15.0681 15.5214 16.5214C14.0681 17.9747 12.072 18.8677 9.85408 18.8677C7.64202 18.8677 5.64008 17.9689 4.18677 16.5214C2.73346 15.0681 1.84047 13.072 1.84047 10.8541C1.84047 8.64202 2.7393 6.64008 4.18677 5.18677C5.64008 3.73346 7.63619 2.84047 9.85408 2.84047V2.42023V2C4.96303 2 1 5.96303 1 10.8541C1 15.7451 4.96303 19.7082 9.85408 19.7082C14.7451 19.7082 18.7082 15.7451 18.7082 10.8541C18.7082 5.96303 14.7451 2 9.85408 2V2.42023Z" fill="#E76100"/>
<path d="M9.85402 4.13032V4.55055C11.5933 4.55055 13.1692 5.25678 14.3073 6.39491C15.4455 7.53888 16.1517 9.10891 16.1517 10.8482C16.1517 12.5875 15.4455 14.1634 14.3073 15.3015C13.1634 16.4397 11.5933 17.1459 9.85402 17.1459C8.11472 17.1459 6.53885 16.4397 5.40071 15.3015C4.26258 14.1576 3.55636 12.5875 3.55636 10.8482C3.55636 9.10891 4.26258 7.53304 5.40071 6.39491C6.54468 5.25678 8.11472 4.55055 9.85402 4.55055V4.13032V3.71008C5.9085 3.71008 2.71005 6.90853 2.71005 10.8482C2.71005 14.7937 5.9085 17.9922 9.85402 17.9922C13.7995 17.9922 16.9922 14.7937 16.9922 10.8482C16.9922 6.90269 13.7937 3.71008 9.85402 3.71008V4.13032Z" fill="#E76100"/>
</svg>
