<svg width="24" height="25" viewBox="0 0 24 25" fill="none" xmlns="http://www.w3.org/2000/svg">
<path d="M18.1412 14.7385H18.1463L18.1316 14.5073C18.1242 14.3858 18.1163 14.2757 18.1078 14.1795L18.1027 14.1466C17.9771 12.6231 17.6732 11.5398 17.5424 11.1288C17.6675 10.0411 17.4966 8.65483 16.8311 7.99489C16.4723 7.639 15.839 7.36682 14.9465 7.18482L16.0773 5.05487C16.1401 4.93552 16.1338 4.79619 16.0603 4.68116C15.9867 4.56775 15.8594 4.50024 15.7196 4.50024H13.6817C13.5408 4.50024 13.4129 4.56883 13.3399 4.68332L12.1282 6.57727L10.916 4.68278C10.8424 4.56829 10.7151 4.50024 10.5748 4.50024H8.53631C8.39709 4.50024 8.26976 4.56829 8.19505 4.68224C8.12205 4.79619 8.11582 4.93552 8.17921 5.05433L9.30993 7.18482C8.41746 7.36682 7.78363 7.639 7.4254 7.99435C6.77232 8.64241 6.61895 9.918 6.69309 10.9025C6.67045 10.9635 6.25789 12.0976 6.08189 13.8685C6.08132 13.8717 6.08076 13.876 6.08076 13.8809C6.07736 13.9138 6.07453 13.9462 6.07114 13.9792H6.06831L6.05076 14.1795C6.04001 14.2989 6.03209 14.4036 6.0253 14.5111L6.02077 14.6855C5.98738 15.3601 5.99417 16.0411 6.04171 16.7107C6.05303 16.8641 6.06604 17.011 6.08189 17.1476C6.20696 18.2612 6.49105 19.0583 6.95058 19.5849L6.9868 19.627C7.11074 19.7712 7.24769 19.8949 7.3937 19.9953L7.45256 20.0358L7.48425 20.0363C8.16732 20.4479 8.98678 20.4651 9.85321 20.483C10.3925 20.4943 10.8673 20.4997 11.2646 20.4997C11.7377 20.4997 11.9777 20.4916 12.0807 20.4867C12.1848 20.4916 12.4253 20.5002 12.8922 20.5002C13.2844 20.5002 13.7609 20.4943 14.3082 20.4835C15.1989 20.4651 16.0405 20.4473 16.7405 19.9969C17.7637 19.2954 18.067 17.6121 18.1412 16.3251C18.1417 16.3181 18.1423 16.3106 18.1423 16.3068C18.1661 15.7889 18.1661 15.2623 18.1412 14.7385ZM10.1367 7.05143L9.18825 5.26441H10.3501L11.4254 6.94504C11.0847 6.96016 10.624 6.99041 10.1367 7.05143ZM8.85718 18.0792C8.85718 17.5149 9.33822 17.0564 9.92961 17.0564H14.2295C14.8209 17.0564 15.3019 17.5154 15.3019 18.0792V18.6203C15.3019 19.1696 14.8571 19.6183 14.2935 19.6426L12.1446 19.6399C12.139 19.6399 12.1328 19.6394 12.1277 19.6394H12.0315C12.0252 19.6394 12.0196 19.6394 12.0179 19.6399L9.88321 19.6432C9.30766 19.6194 8.85662 19.1701 8.85662 18.6203V18.0792H8.85718ZM16.1027 18.6203V18.0792C16.1027 17.0936 15.2623 16.2917 14.2295 16.2917H9.92961C8.8968 16.2917 8.0564 17.0936 8.0564 18.0792V18.6203C8.0564 18.9606 8.15827 19.2932 8.34672 19.5768C7.52387 19.351 6.98793 18.7143 6.84079 16.6578C6.71912 14.9529 6.89682 13.5093 7.09093 12.5297C7.34843 13.0805 7.71006 13.4672 8.14582 13.6546C8.65345 13.8728 9.45424 14.0197 10.5261 14.091C10.5878 14.6332 11.066 15.0479 11.6461 15.0479H12.3297C12.9002 15.0479 13.3778 14.6407 13.448 14.1082C14.3003 14.064 15.4264 13.9489 16.1106 13.6551C16.5158 13.4812 16.8577 13.1378 17.1084 12.6555C17.2832 13.5795 17.44 14.9615 17.3189 16.6583C17.1718 18.7148 16.6358 19.351 15.8135 19.5773C16.0014 19.2932 16.1027 18.9606 16.1027 18.6203ZM12.6557 13.1578V13.9732C12.6557 14.145 12.5097 14.2843 12.3297 14.2843H11.6461C11.4661 14.2843 11.3201 14.1444 11.3201 13.9732V13.1578C11.3201 12.986 11.4667 12.8467 11.6461 12.8467H12.3297C12.5097 12.8461 12.6557 12.986 12.6557 13.1578ZM16.6885 11.4307C16.5283 12.2224 16.1978 12.7797 15.7813 12.9585C15.2233 13.1983 14.2272 13.2987 13.457 13.3408V13.1572C13.457 12.5642 12.9517 12.082 12.3303 12.082H11.6461C11.0247 12.082 10.5193 12.5642 10.5193 13.1572V13.323C9.5844 13.2577 8.87926 13.1318 8.47519 12.9585C8.05867 12.7792 7.72816 12.2229 7.56801 11.4312C7.33428 10.275 7.525 8.9983 8.0032 8.52414C8.30937 8.22009 8.96697 7.99165 9.95791 7.84584L12.1288 7.69409L14.3099 7.84638L14.3133 7.84692C15.2957 7.99327 15.9488 8.22117 16.2544 8.52468C16.7315 8.99884 16.9222 10.275 16.6885 11.4307ZM12.8322 6.9445L13.9064 5.26441H15.0682L14.1203 7.05089C13.6302 6.98933 13.1707 6.95908 12.8322 6.9445Z" fill="#607697"/>
</svg>
