<svg width="25" height="24" viewBox="0 0 25 24" fill="none" xmlns="http://www.w3.org/2000/svg">
<path d="M20.495 6.68799C21.3914 6.15208 22.0622 5.30823 22.382 4.31399C21.5397 4.81379 20.618 5.16587 19.657 5.35499C18.3246 3.94552 16.2135 3.60251 14.5034 4.51764C12.7933 5.43277 11.9075 7.37948 12.341 9.26999C8.89062 9.09676 5.67598 7.4669 3.49702 4.78599C2.35986 6.74741 2.94097 9.25477 4.82502 10.516C4.14373 10.4941 3.47754 10.3096 2.88202 9.97799C2.88202 9.99599 2.88202 10.014 2.88202 10.032C2.88241 12.0751 4.32239 13.8351 6.32502 14.24C5.69308 14.4119 5.03022 14.4372 4.38702 14.314C4.95022 16.0613 6.56057 17.2583 8.39602 17.294C6.87585 18.4871 4.99849 19.1342 3.06602 19.131C2.72349 19.1315 2.38123 19.1118 2.04102 19.072C4.00341 20.333 6.28739 21.0023 8.62002 21C11.8653 21.0223 14.984 19.7429 17.2787 17.448C19.5734 15.1531 20.8526 12.0342 20.83 8.78899C20.83 8.60299 20.8257 8.41799 20.817 8.23399C21.6575 7.62659 22.3828 6.87414 22.959 6.01199C22.176 6.35905 21.3455 6.58691 20.495 6.68799Z" fill="#1A1731"/>
<path d="M20.495 6.68799C21.3914 6.15208 22.0622 5.30823 22.382 4.31399C21.5397 4.81379 20.618 5.16587 19.657 5.35499C18.3246 3.94552 16.2135 3.60251 14.5034 4.51764C12.7933 5.43277 11.9075 7.37948 12.341 9.26999C8.89062 9.09676 5.67598 7.4669 3.49702 4.78599C2.35986 6.74741 2.94097 9.25477 4.82502 10.516C4.14373 10.4941 3.47754 10.3096 2.88202 9.97799C2.88202 9.99599 2.88202 10.014 2.88202 10.032C2.88241 12.0751 4.32239 13.8351 6.32502 14.24C5.69308 14.4119 5.03022 14.4372 4.38702 14.314C4.95022 16.0613 6.56057 17.2583 8.39602 17.294C6.87585 18.4871 4.99849 19.1342 3.06602 19.131C2.72349 19.1315 2.38123 19.1118 2.04102 19.072C4.00341 20.333 6.28739 21.0023 8.62002 21C11.8653 21.0223 14.984 19.7429 17.2787 17.448C19.5734 15.1531 20.8526 12.0342 20.83 8.78899C20.83 8.60299 20.8257 8.41799 20.817 8.23399C21.6575 7.62659 22.3828 6.87414 22.959 6.01199C22.176 6.35905 21.3455 6.58691 20.495 6.68799Z" fill="black" fill-opacity="0.2"/>
</svg>
