<svg width="25" height="24" viewBox="0 0 25 24" fill="none" xmlns="http://www.w3.org/2000/svg">
<path fill-rule="evenodd" clip-rule="evenodd" d="M4.2024 16.6961L2.84473 21.6539L7.91781 20.3237C9.31548 21.0855 10.8893 21.4874 12.4908 21.488H12.4951C17.7691 21.488 22.0622 17.1959 22.0645 11.9205C22.0654 9.36423 21.071 6.96045 19.264 5.15207C17.4576 3.34369 15.0547 2.34731 12.4946 2.34619C7.21992 2.34619 2.92696 6.63788 2.92489 11.913C2.92441 13.599 3.36475 15.2452 4.2024 16.6961ZM9.46132 7.33895C9.6379 7.34613 9.83329 7.35441 10.0188 7.76687C10.145 8.04787 10.3573 8.57071 10.527 8.98887C10.6532 9.29972 10.7559 9.55273 10.7823 9.60553C10.8442 9.72952 10.8855 9.87407 10.8029 10.0395C10.7203 10.2046 10.3842 10.6427 10.1839 10.8864C10.1732 10.8994 10.1623 10.9123 10.1513 10.9251C10.048 11.0464 9.94453 11.1679 10.0751 11.3918C10.2196 11.6397 10.7168 12.4506 11.4531 13.1071C12.2443 13.8126 12.9317 14.111 13.2806 14.2624C13.349 14.2921 13.4043 14.3161 13.4449 14.3365C13.6926 14.4605 13.8371 14.4397 13.9817 14.2742C14.1262 14.109 14.6005 13.5512 14.7658 13.3036C14.9309 13.0556 15.096 13.0967 15.3231 13.1794C15.5502 13.262 16.768 13.8614 17.0156 13.9852C17.0639 14.0093 17.109 14.0311 17.1508 14.0513C17.3237 14.1348 17.4405 14.1911 17.4904 14.2742C17.5524 14.3779 17.5524 14.8736 17.3458 15.4519C17.1395 16.0303 16.1283 16.5882 15.674 16.6295C15.6303 16.6335 15.5869 16.6386 15.5422 16.6438C15.1225 16.6932 14.5928 16.7555 12.7018 16.0097C10.3745 15.0919 8.84014 12.8171 8.52365 12.3479C8.49777 12.3095 8.48004 12.2832 8.47068 12.2707L8.46818 12.2674C8.33543 12.0901 7.45915 10.9198 7.45915 9.70881C7.45915 8.56796 8.02001 7.96996 8.27797 7.69491C8.29558 7.67614 8.31178 7.65887 8.32629 7.64303C8.55323 7.39521 8.82161 7.33306 8.98672 7.33306L9.00975 7.33306C9.16701 7.33304 9.32365 7.33303 9.46132 7.33895Z" fill="#1A1731"/>
<path fill-rule="evenodd" clip-rule="evenodd" d="M4.2024 16.6961L2.84473 21.6539L7.91781 20.3237C9.31548 21.0855 10.8893 21.4874 12.4908 21.488H12.4951C17.7691 21.488 22.0622 17.1959 22.0645 11.9205C22.0654 9.36423 21.071 6.96045 19.264 5.15207C17.4576 3.34369 15.0547 2.34731 12.4946 2.34619C7.21992 2.34619 2.92696 6.63788 2.92489 11.913C2.92441 13.599 3.36475 15.2452 4.2024 16.6961ZM9.46132 7.33895C9.6379 7.34613 9.83329 7.35441 10.0188 7.76687C10.145 8.04787 10.3573 8.57071 10.527 8.98887C10.6532 9.29972 10.7559 9.55273 10.7823 9.60553C10.8442 9.72952 10.8855 9.87407 10.8029 10.0395C10.7203 10.2046 10.3842 10.6427 10.1839 10.8864C10.1732 10.8994 10.1623 10.9123 10.1513 10.9251C10.048 11.0464 9.94453 11.1679 10.0751 11.3918C10.2196 11.6397 10.7168 12.4506 11.4531 13.1071C12.2443 13.8126 12.9317 14.111 13.2806 14.2624C13.349 14.2921 13.4043 14.3161 13.4449 14.3365C13.6926 14.4605 13.8371 14.4397 13.9817 14.2742C14.1262 14.109 14.6005 13.5512 14.7658 13.3036C14.9309 13.0556 15.096 13.0967 15.3231 13.1794C15.5502 13.262 16.768 13.8614 17.0156 13.9852C17.0639 14.0093 17.109 14.0311 17.1508 14.0513C17.3237 14.1348 17.4405 14.1911 17.4904 14.2742C17.5524 14.3779 17.5524 14.8736 17.3458 15.4519C17.1395 16.0303 16.1283 16.5882 15.674 16.6295C15.6303 16.6335 15.5869 16.6386 15.5422 16.6438C15.1225 16.6932 14.5928 16.7555 12.7018 16.0097C10.3745 15.0919 8.84014 12.8171 8.52365 12.3479C8.49777 12.3095 8.48004 12.2832 8.47068 12.2707L8.46818 12.2674C8.33543 12.0901 7.45915 10.9198 7.45915 9.70881C7.45915 8.56796 8.02001 7.96996 8.27797 7.69491C8.29558 7.67614 8.31178 7.65887 8.32629 7.64303C8.55323 7.39521 8.82161 7.33306 8.98672 7.33306L9.00975 7.33306C9.16701 7.33304 9.32365 7.33303 9.46132 7.33895Z" fill="black" fill-opacity="0.2"/>
</svg>
