<svg width="24" height="24" viewBox="0 0 24 24" fill="none" xmlns="http://www.w3.org/2000/svg">
<path d="M17.7074 8.29289C18.0979 8.68342 18.0979 9.31658 17.7074 9.70711L15.4145 12L17.7074 14.2929C18.0979 14.6834 18.0979 15.3166 17.7074 15.7071C17.3169 16.0976 16.6837 16.0976 16.2932 15.7071L14.0003 13.4142L11.7074 15.7071C11.3169 16.0976 10.6837 16.0976 10.2932 15.7071C9.90267 15.3166 9.90267 14.6834 10.2932 14.2929L12.5861 12L10.2932 9.70711C9.90267 9.31658 9.90267 8.68342 10.2932 8.29289C10.6837 7.90237 11.3169 7.90237 11.7074 8.29289L14.0003 10.5858L16.2932 8.29289C16.6837 7.90237 17.3169 7.90237 17.7074 8.29289Z" fill="#E76100"/>
<path d="M22.0003 5C22.0003 4.44772 21.5526 4 21.0003 4H9.46024C8.87639 4 8.32169 4.25513 7.94173 4.69842L2.79887 10.6984C2.15689 11.4474 2.15689 12.5526 2.79887 13.3016L7.94173 19.3016C8.32169 19.7449 8.87639 20 9.46024 20H21.0003C21.5526 20 22.0003 19.5523 22.0003 19V5ZM20.0003 18H9.46024L4.31738 12L9.46024 6H20.0003V18Z" fill="#E76100"/>
</svg>
