<svg width="24" height="24" viewBox="0 0 24 24" fill="none" xmlns="http://www.w3.org/2000/svg">
<path fill-rule="evenodd" clip-rule="evenodd" d="M11.1552 2.16851C11.4915 2.02921 11.8786 2.10621 12.136 2.36361L16.636 6.86361C16.9875 7.21508 16.9875 7.78493 16.636 8.1364L12.7724 12L16.636 15.8636C16.9875 16.2151 16.9875 16.7849 16.636 17.1364L12.136 21.6364C11.8786 21.8938 11.4915 21.9708 11.1552 21.8315C10.8189 21.6922 10.5996 21.364 10.5996 21V14.1728L7.63601 17.1364C7.28453 17.4879 6.71469 17.4879 6.36321 17.1364C6.01174 16.7849 6.01174 16.2151 6.36321 15.8636L10.2268 12L6.36321 8.1364C6.01174 7.78493 6.01174 7.21508 6.36321 6.86361C6.71469 6.51213 7.28453 6.51213 7.63601 6.86361L10.5996 9.82721V3C10.5996 2.63599 10.8189 2.30781 11.1552 2.16851ZM12.3996 14.1728L14.7268 16.5L12.3996 18.8272V14.1728ZM12.3996 9.82721V5.17279L14.7268 7.5L12.3996 9.82721Z" fill="#E76100"/>
</svg>
