<svg width="24" height="25" viewBox="0 0 24 25" fill="none" xmlns="http://www.w3.org/2000/svg">
<g clip-path="url(#clip0_982:7756)">
<path d="M1 1.65356L23 23.6536" stroke="#E76100" stroke-width="2" stroke-linecap="round" stroke-linejoin="round"/>
<path d="M15.28 15.9336C14.9481 16.4186 14.5134 16.8246 14.0068 17.1225C13.5002 17.4205 12.9342 17.6032 12.3489 17.6576C11.7637 17.7119 11.1737 17.6367 10.6209 17.4372C10.0681 17.2376 9.56601 16.9187 9.15042 16.5031C8.73483 16.0876 8.41593 15.5855 8.2164 15.0327C8.01688 14.4798 7.94163 13.8898 7.99601 13.3046C8.05039 12.7194 8.23306 12.1534 8.53103 11.6468C8.829 11.1402 9.23495 10.7055 9.72 10.3736M21 21.6536H3C2.46957 21.6536 1.96086 21.4429 1.58579 21.0678C1.21071 20.6927 1 20.184 1 19.6536V8.65356C1 8.12313 1.21071 7.61442 1.58579 7.23935C1.96086 6.86428 2.46957 6.65356 3 6.65356H6L21 21.6536ZM9 3.65356H15L17 6.65356H21C21.5304 6.65356 22.0391 6.86428 22.4142 7.23935C22.7893 7.61442 23 8.12313 23 8.65356V17.9936L9 3.65356Z" stroke="#E76100" stroke-width="2" stroke-linecap="round" stroke-linejoin="round"/>
</g>
<defs>
<clipPath id="clip0_982:7756">
<rect width="24" height="24" fill="white" transform="translate(0 0.653564)"/>
</clipPath>
</defs>
</svg>
