<svg width="24" height="25" viewBox="0 0 24 25" fill="none" xmlns="http://www.w3.org/2000/svg">
<path d="M23 19.6536C23 20.184 22.7893 20.6927 22.4142 21.0678C22.0391 21.4429 21.5304 21.6536 21 21.6536H3C2.46957 21.6536 1.96086 21.4429 1.58579 21.0678C1.21071 20.6927 1 20.184 1 19.6536V8.65356C1 8.12313 1.21071 7.61442 1.58579 7.23935C1.96086 6.86428 2.46957 6.65356 3 6.65356H7L9 3.65356H15L17 6.65356H21C21.5304 6.65356 22.0391 6.86428 22.4142 7.23935C22.7893 7.61442 23 8.12313 23 8.65356V19.6536Z" stroke="#E76100" stroke-width="2" stroke-linecap="round" stroke-linejoin="round"/>
<path d="M12 17.6536C14.2091 17.6536 16 15.8627 16 13.6536C16 11.4444 14.2091 9.65356 12 9.65356C9.79086 9.65356 8 11.4444 8 13.6536C8 15.8627 9.79086 17.6536 12 17.6536Z" stroke="#E76100" stroke-width="2" stroke-linecap="round" stroke-linejoin="round"/>
</svg>
