<svg width="24" height="24" viewBox="0 0 24 24" fill="none" xmlns="http://www.w3.org/2000/svg">
<path d="M2 4.85714C2 3.27919 3.27919 2 4.85714 2H19.1429C20.7208 2 22 3.27919 22 4.85714V19.1429C22 20.7208 20.7208 22 19.1429 22H4.85714C3.27919 22 2 20.7208 2 19.1429V4.85714ZM20 4L4 4V20H20V4Z" fill="#E76100"/>
<path d="M16.6644 8.2526C17.0772 8.61952 17.1143 9.25159 16.7474 9.66437L11.4141 15.6644C11.2243 15.8779 10.9523 16 10.6667 16C10.381 16 10.109 15.8779 9.91927 15.6644L7.2526 12.6644C6.88568 12.2516 6.92286 11.6195 7.33565 11.2526C7.74843 10.8857 8.3805 10.9229 8.74742 11.3356L10.6667 13.4948L15.2526 8.33565C15.6195 7.92286 16.2516 7.88568 16.6644 8.2526Z" fill="#E76100"/>
</svg>
