<svg width="24" height="24" viewBox="0 0 24 24" fill="none" xmlns="http://www.w3.org/2000/svg">
<path fill-rule="evenodd" clip-rule="evenodd" d="M12 2C6.47715 2 2 6.47715 2 12C2 17.5228 6.47715 22 12 22C17.5228 22 22 17.5228 22 12C22 6.47715 17.5228 2 12 2ZM10.4864 9.16437C10.6304 8.30037 11.4329 7.76577 12.39 7.81134C12.8481 7.83315 13.2512 7.99523 13.5282 8.25407C13.7884 8.4972 14 8.88221 14 9.49997C14 10.2087 13.7581 10.5011 13.5078 10.6679C13.186 10.8825 12.6705 11 12 11C11.4478 11 11 11.4477 11 12V13C11 13.5523 11.4477 14 12 14C12.5523 14 13 13.5523 13 13V12.9268C13.5554 12.8399 14.121 12.6629 14.6172 12.332C15.4919 11.7489 16 10.7913 16 9.49997C16 8.36774 15.5866 7.44024 14.8937 6.79275C14.2176 6.16096 13.3395 5.85429 12.4851 5.8136C10.8171 5.73418 8.86964 6.69958 8.51364 8.83557C8.42284 9.38034 8.79086 9.89557 9.33564 9.98637C9.88041 10.0772 10.3956 9.70914 10.4864 9.16437ZM10.5 16.5C10.5 15.6715 11.1716 15 12 15C12.8285 15 13.5 15.6715 13.5 16.5C13.5 17.3284 12.8285 18 12 18C11.1716 18 10.5 17.3284 10.5 16.5Z" fill="#E76100"/>
</svg>
