<svg width="24" height="24" viewBox="0 0 24 24" fill="none" xmlns="http://www.w3.org/2000/svg">
<path d="M3.81818 6.75H19.3068C19.7901 6.75 20.1818 6.35825 20.1818 5.875V5.875C20.1818 5.39175 19.7901 5 19.3068 5H3.81818C2.81818 5 2 5.7875 2 6.75V17.25C2 18.2125 2.81818 19 3.81818 19H6.57954C7.06279 19 7.45455 18.6082 7.45455 18.125V18.125C7.45455 17.6418 7.06279 17.25 6.57955 17.25H3.81818V6.75ZM12.9091 13C12.9091 12.4477 12.4614 12 11.9091 12H10.2727C9.72044 12 9.27273 12.4477 9.27273 13V13.5575C8.71818 14.0387 8.36364 14.7213 8.36364 15.5C8.36364 16.2787 8.71818 16.9612 9.27273 17.4425V18C9.27273 18.5523 9.72044 19 10.2727 19H11.9091C12.4614 19 12.9091 18.5523 12.9091 18V17.4425C13.4636 16.9612 13.8182 16.27 13.8182 15.5C13.8182 14.73 13.4636 14.0387 12.9091 13.5575V13ZM11.0909 16.8125C10.3364 16.8125 9.72727 16.2262 9.72727 15.5C9.72727 14.7738 10.3364 14.1875 11.0909 14.1875C11.8455 14.1875 12.4545 14.7738 12.4545 15.5C12.4545 16.2262 11.8455 16.8125 11.0909 16.8125ZM21.0909 8.5H15.6364C15.1818 8.5 14.7273 8.9375 14.7273 9.375V18.125C14.7273 18.5625 15.1818 19 15.6364 19H21.0909C21.5455 19 22 18.5625 22 18.125V9.375C22 8.9375 21.5455 8.5 21.0909 8.5ZM20.1818 17.25H16.5455V10.25H20.1818V17.25Z" fill="#E76100"/>
</svg>
