<svg width="24" height="24" viewBox="0 0 24 24" fill="none" xmlns="http://www.w3.org/2000/svg">
<path d="M2.58572 15.408L6.88472 19.707C6.97742 19.8 7.08761 19.8738 7.20895 19.9241C7.33029 19.9744 7.46037 20.0002 7.59172 20H19.5927V18H12.6347L19.8567 10.778C20.6367 9.99898 20.6367 8.72898 19.8567 7.94998L14.9057 2.99998C14.5303 2.62577 14.0218 2.41565 13.4917 2.41565C12.9616 2.41565 12.4532 2.62577 12.0777 2.99998L7.32772 7.74898L2.57372 12.592C2.20571 12.969 2.0007 13.4756 2.00295 14.0024C2.00519 14.5293 2.21451 15.0341 2.58572 15.408ZM13.4917 4.41398L18.4417 9.36398L15.8557 11.95L10.9057 6.99998L13.4917 4.41398ZM8.74872 9.15598L9.49172 8.41398L14.4417 13.364L9.88472 17.921C9.86038 17.9461 9.83735 17.9725 9.81572 18H8.00572L4.00072 13.993L8.74872 9.15598Z" fill="#E76100"/>
</svg>
