<svg width="26" height="24" viewBox="0 0 26 24" fill="none" xmlns="http://www.w3.org/2000/svg">
<path d="M19.2102 6C19.6299 6.00419 20.0357 6.15099 20.361 6.4163C20.6863 6.68162 20.9117 7.04967 21.0002 7.46L23.0002 16.89C23.0302 17.0259 23.0288 17.1669 22.9958 17.3021C22.9629 17.4373 22.8994 17.5632 22.8102 17.67C22.7294 17.7732 22.6262 17.8565 22.5084 17.9137C22.3905 17.9709 22.2611 18.0004 22.1302 18C21.9518 17.9993 21.7779 17.9444 21.6315 17.8426C21.485 17.7408 21.373 17.5969 21.3102 17.43L20.0002 14.58C19.8273 14.1647 19.536 13.8095 19.1625 13.5588C18.789 13.308 18.35 13.1728 17.9002 13.17H8.07015C7.62652 13.1718 7.19331 13.3047 6.825 13.552C6.4567 13.7994 6.16972 14.15 6.00015 14.56L4.73015 17.38C4.67279 17.5211 4.57936 17.6447 4.45923 17.7384C4.3391 17.8321 4.19646 17.8926 4.0456 17.9139C3.89474 17.9352 3.74094 17.9164 3.59959 17.8596C3.45824 17.8027 3.3343 17.7098 3.24015 17.59C3.15335 17.4966 3.08713 17.3861 3.04579 17.2655C3.00444 17.1449 2.9889 17.017 3.00015 16.89L5.00015 7.46C5.08862 7.04967 5.31401 6.68162 5.63929 6.4163C5.96457 6.15099 6.37041 6.00419 6.79015 6H19.2102ZM19.2102 4H6.79015C5.9137 4.00636 5.06579 4.31237 4.38727 4.86719C3.70875 5.42202 3.24045 6.19226 3.06015 7.05L1.06015 16.48C0.969311 16.9065 0.975153 17.348 1.07725 17.7719C1.17935 18.1959 1.37511 18.5916 1.65015 18.93C1.96603 19.3198 2.37825 19.6203 2.84599 19.8017C3.31372 19.9832 3.82074 20.0393 4.31683 19.9645C4.81293 19.8898 5.28089 19.6867 5.67436 19.3754C6.06784 19.0642 6.37318 18.6556 6.56015 18.19L7.82015 15.34C7.84011 15.29 7.87458 15.247 7.91913 15.2167C7.96368 15.1864 8.01628 15.1702 8.07015 15.17H17.9302C17.989 15.1718 18.0458 15.192 18.0925 15.2279C18.1392 15.2638 18.1734 15.3136 18.1902 15.37L19.4302 18.17C19.6141 18.6391 19.918 19.0517 20.3113 19.3666C20.7046 19.6815 21.1737 19.8877 21.6716 19.9646C22.1696 20.0416 22.679 19.9865 23.149 19.8049C23.619 19.6234 24.0332 19.3217 24.3502 18.93C24.6252 18.5916 24.821 18.1959 24.9231 17.7719C25.0252 17.348 25.031 16.9065 24.9402 16.48L22.9402 7.05C22.7499 6.2015 22.2774 5.44268 21.5998 4.8977C20.9222 4.35272 20.0797 4.00385 19.2102 4Z" fill="#E76100"/>
<path fill-rule="evenodd" clip-rule="evenodd" d="M8.4 10.9C8.4 11.2312 8.6688 11.5 9 11.5C9.3312 11.5 9.6 11.2312 9.6 10.9V10.1H10.4C10.7312 10.1 11 9.8312 11 9.5C11 9.1688 10.7312 8.9 10.4 8.9H9.6V8.1C9.6 7.7688 9.3312 7.5 9 7.5C8.6688 7.5 8.4 7.7688 8.4 8.1V8.9H7.6C7.2688 8.9 7 9.1688 7 9.5C7 9.8312 7.2688 10.1 7.6 10.1H8.4V10.9Z" fill="#E76100"/>
<path d="M17.5 8C16.6735 8 16 8.6735 16 9.5C16 10.3265 16.6735 11 17.5 11C18.3265 11 19 10.3265 19 9.5C19 8.6735 18.3265 8 17.5 8Z" fill="#E76100"/>
</svg>
