<svg width="24" height="25" viewBox="0 0 24 25" fill="none" xmlns="http://www.w3.org/2000/svg">
<g clip-path="url(#clip0_982:7755)">
<path d="M15.6095 10.6185C15.5439 10.5529 15.4675 10.4983 15.38 10.4655C15.2926 10.4273 15.1998 10.4109 15.1069 10.4109C15.014 10.4109 14.9211 10.4273 14.8337 10.4655C14.7463 10.5038 14.6698 10.5529 14.6043 10.6185L10.8346 14.3881L9.20112 12.7546C9.13556 12.6891 9.05361 12.6344 8.97166 12.6016C8.88425 12.5634 8.79138 12.547 8.6985 12.547C8.60563 12.547 8.51275 12.5634 8.42534 12.6016C8.33793 12.6399 8.26144 12.6891 8.19588 12.7546C8.13033 12.8202 8.07569 12.9021 8.04291 12.9841C8.00467 13.0715 7.98828 13.1644 7.98828 13.2572C7.98828 13.3501 8.00467 13.443 8.04291 13.5304C8.08116 13.6178 8.13033 13.6943 8.19588 13.7599L10.332 15.896C10.3976 15.9615 10.4741 16.0162 10.5615 16.0489C10.6489 16.0872 10.7418 16.1036 10.8346 16.1036C10.9275 16.1036 11.0204 16.0872 11.1078 16.0489C11.1952 16.0107 11.2717 15.9615 11.3372 15.896L15.6095 11.6237C15.6751 11.5582 15.7297 11.4817 15.7625 11.3943C15.8007 11.3069 15.8171 11.214 15.8171 11.1211C15.8171 11.0282 15.8007 10.9354 15.7625 10.8479C15.7297 10.766 15.6805 10.6895 15.6095 10.6185Z" fill="#E76100"/>
<path fill-rule="evenodd" clip-rule="evenodd" d="M17.1232 1.84449C17.9418 1.84449 18.7333 2.16491 19.3134 2.73634C19.8935 3.30777 20.2188 4.08214 20.2188 4.89389V21.6042C20.2188 22.4106 19.8935 23.1903 19.3134 23.7617C18.7333 24.3331 17.9472 24.6536 17.1232 24.6536H5.81432C4.99028 24.6536 4.20419 24.3331 3.62411 23.7617C3.04403 23.1903 2.71875 22.4159 2.71875 21.6042V4.89389C2.71875 4.08214 3.04403 3.30777 3.62411 2.731C4.20419 2.15957 4.99028 1.83915 5.81432 1.83915H9.59488C9.9206 1.14145 10.6322 0.653564 11.4688 0.653564C12.3058 0.653564 13.0177 1.14197 13.3431 1.84449H17.1232ZM18.9339 3.11017L19.1236 2.92326L18.9285 3.11017C18.4514 2.64021 17.8008 2.37319 17.1232 2.37319H12.9705L12.9054 2.19696C12.694 1.60951 12.1356 1.18761 11.4688 1.18761C10.8073 1.18761 10.2435 1.60951 10.0321 2.19696L9.96705 2.37319H5.81432C5.13666 2.37319 4.4861 2.64021 4.00902 3.11017C3.53195 3.58547 3.26088 4.22099 3.26088 4.89389V21.5988C3.26088 22.2664 3.53195 22.9072 4.00902 23.3772C4.4861 23.8472 5.13666 24.1142 5.81432 24.1142H17.1286C17.8063 24.1142 18.4568 23.8472 18.9339 23.3772C19.411 22.9072 19.682 22.2664 19.682 21.5988V4.88854C19.682 4.22099 19.411 3.58013 18.9339 3.11017ZM18.2671 21.5988V4.89389C18.2671 4.59482 18.1478 4.31178 17.931 4.09816C17.7141 3.88454 17.4268 3.76705 17.1232 3.76705H13.2241C12.8612 4.34597 12.216 4.73901 11.4688 4.73901C10.7215 4.73901 10.0763 4.34597 9.71343 3.76705H5.81432C5.51073 3.76705 5.2234 3.88454 5.00654 4.09816C4.78969 4.31178 4.67042 4.59482 4.67042 4.89389V21.5988C4.67042 21.8979 4.78969 22.1809 5.00654 22.3946C5.2234 22.6082 5.51073 22.7257 5.81432 22.7257H17.1232C17.4268 22.7257 17.7141 22.6082 17.931 22.3946C18.1478 22.1809 18.2671 21.8979 18.2671 21.5988ZM18.8092 4.89389V21.6042C18.8092 22.0474 18.6303 22.4693 18.3159 22.7791C17.996 23.0888 17.5677 23.265 17.1232 23.265H5.81432C5.36435 23.265 4.93607 23.0888 4.62163 22.7791C4.30719 22.464 4.12829 22.0421 4.12829 21.6042V4.89389C4.12829 4.45063 4.30719 4.02873 4.62163 3.71898C4.94149 3.40924 5.36977 3.233 5.81432 3.233H10.0375L10.1134 3.3772C10.3682 3.86852 10.8778 4.20497 11.4688 4.20497C12.0597 4.20497 12.5693 3.86852 12.8241 3.3772L12.9 3.233H17.1232C17.5731 3.233 18.0014 3.40924 18.3159 3.71898C18.6303 4.03407 18.8092 4.45597 18.8092 4.89389Z" fill="#E76100"/>
<path fill-rule="evenodd" clip-rule="evenodd" d="M17.2427 1.8664C18.0021 1.8664 18.7232 2.16688 19.2586 2.70228C19.794 3.23768 20.0945 3.95882 20.0999 4.71275V21.8072C20.0999 22.5666 19.7995 23.2878 19.2641 23.8232C18.7287 24.3586 18.0021 24.659 17.2481 24.659H5.85181C5.09242 24.659 4.37127 24.3586 3.83588 23.8232C3.30048 23.2878 3 22.5611 3 21.8072V4.71275C3 3.95882 3.30048 3.23768 3.83041 2.70228C4.36581 2.16688 5.09242 1.8664 5.84635 1.8664H9.83997C10.0913 1.16165 10.7523 0.653564 11.5445 0.653564C12.3367 0.653564 13.0032 1.16165 13.249 1.8664H17.2427ZM18.2534 22.8125C18.5211 22.5448 18.6686 22.1842 18.6686 21.8072H18.6631V4.71275C18.6631 4.33579 18.5156 3.97521 18.2479 3.70751C17.9802 3.43982 17.6196 3.29231 17.2427 3.29231H13.1562C12.8557 3.88234 12.2493 4.28662 11.5445 4.28662C10.8397 4.28662 10.2333 3.87687 9.93285 3.29231H5.84635C5.46938 3.29231 5.10881 3.43982 4.84111 3.70751C4.57341 3.97521 4.4259 4.33579 4.4259 4.71275V21.8072C4.4259 22.1842 4.57341 22.5448 4.84111 22.8125C5.10881 23.0802 5.46938 23.2277 5.84635 23.2277H17.2481C17.6251 23.2277 17.9857 23.0802 18.2534 22.8125ZM11.5 3.95357C12.1904 3.95357 12.75 3.39392 12.75 2.70357C12.75 2.01321 12.1904 1.45357 11.5 1.45357C10.8096 1.45357 10.25 2.01321 10.25 2.70357C10.25 3.39392 10.8096 3.95357 11.5 3.95357Z" fill="#E76100"/>
</g>
<defs>
<clipPath id="clip0_982:7755">
<rect width="24" height="24" fill="white" transform="translate(0 0.653564)"/>
</clipPath>
</defs>
</svg>
