<svg width="24" height="25" viewBox="0 0 24 25" fill="none" xmlns="http://www.w3.org/2000/svg">
<path fill-rule="evenodd" clip-rule="evenodd" d="M5.79528 2.93156C7.19355 1.5405 9.34664 0.429932 11.5268 0.429932H12.4996C14.6859 0.429932 16.8397 1.54006 18.2325 2.93287L18.2338 2.93419C19.6249 4.33246 20.7355 6.48555 20.7355 8.66576V15.3087C20.7355 17.4685 19.6413 19.8327 18.2325 21.2415C17.0367 22.4374 15.3204 23.0067 13.7248 23.2436C13.3314 23.302 12.9652 23.0305 12.9068 22.6371C12.8484 22.2438 13.1199 21.8776 13.5133 21.8192C14.9692 21.603 16.3313 21.1063 17.2143 20.2233C18.3774 19.0601 19.2955 17.0534 19.2955 15.3087V8.66576C19.2955 6.94176 18.3941 5.13737 17.2136 3.9504C16.0345 2.77166 14.2308 1.86993 12.4996 1.86993H11.5268C9.80286 1.86993 7.99849 2.77125 6.81152 3.95178C5.63276 5.13088 4.73102 6.93458 4.73102 8.66576V15.3087C4.73102 15.7064 4.40866 16.0287 4.01102 16.0287C3.61337 16.0287 3.29102 15.7064 3.29102 15.3087V8.66576C3.29102 6.47944 4.40114 4.32569 5.79396 2.93287L5.79528 2.93156Z" fill="#E76100"/>
<path fill-rule="evenodd" clip-rule="evenodd" d="M9.22169 10.5179L9.22168 10.5181C9.22168 10.5232 9.2226 10.5256 9.22288 10.5263C9.22328 10.5272 9.22377 10.5279 9.22432 10.5285C9.22486 10.529 9.22555 10.5295 9.2265 10.5299C9.22717 10.5302 9.22954 10.5311 9.23473 10.5311C9.23677 10.5311 9.23808 10.5308 9.23931 10.5302C9.24083 10.5296 9.24261 10.5285 9.24423 10.5269C9.24582 10.5253 9.24665 10.5239 9.24703 10.523C9.24726 10.5224 9.24778 10.5212 9.24778 10.5181C9.24778 10.516 9.24744 10.5147 9.24692 10.5135C9.24628 10.512 9.24517 10.5102 9.24356 10.5086C9.24199 10.507 9.24055 10.5061 9.23965 10.5057C9.23912 10.5055 9.23787 10.505 9.23473 10.505L9.23453 10.505L9.23346 10.5054C9.23198 10.506 9.22946 10.5075 9.22682 10.5101C9.22417 10.5128 9.2227 10.5153 9.22206 10.5168L9.22169 10.5179ZM8.22168 10.5181C8.22168 9.96207 8.67874 9.505 9.23473 9.505C9.80159 9.505 10.2478 9.9663 10.2478 10.5181C10.2478 11.0849 9.78648 11.5311 9.23473 11.5311C8.67208 11.5311 8.22168 11.0807 8.22168 10.5181ZM14.7719 10.5179L14.7719 10.5181C14.7719 10.5232 14.7729 10.5256 14.7731 10.5263C14.7735 10.5272 14.774 10.5279 14.7746 10.5285C14.7751 10.529 14.7758 10.5295 14.7768 10.5299C14.7774 10.5302 14.7798 10.5311 14.785 10.5311C14.7902 10.5311 14.7925 10.5302 14.7932 10.5299C14.7942 10.5295 14.7948 10.529 14.7954 10.5285C14.7959 10.5279 14.7964 10.5272 14.7968 10.5263C14.7971 10.5256 14.798 10.5232 14.798 10.5181C14.798 10.516 14.7977 10.5147 14.7972 10.5135C14.7965 10.512 14.7954 10.5102 14.7938 10.5086C14.7922 10.507 14.7908 10.5061 14.7899 10.5057C14.7894 10.5055 14.7881 10.505 14.785 10.505L14.7848 10.505L14.7837 10.5054C14.7822 10.506 14.7797 10.5075 14.7771 10.5101C14.7744 10.5128 14.773 10.5153 14.7723 10.5168L14.7719 10.5179ZM13.7719 10.5181C13.7719 9.96207 14.229 9.505 14.785 9.505C15.3518 9.505 15.798 9.9663 15.798 10.5181C15.798 11.0807 15.3476 11.5311 14.785 11.5311C14.2223 11.5311 13.7719 11.0807 13.7719 10.5181Z" fill="#E76100"/>
<path fill-rule="evenodd" clip-rule="evenodd" d="M4.26743 7.31821C4.4144 7.45446 4.49793 7.64581 4.49793 7.84622V15.4153C4.49793 15.6158 4.4144 15.8071 4.26743 15.9434C4.12046 16.0796 3.92334 16.1484 3.7235 16.1333C1.46538 15.9621 -0.240234 13.9679 -0.240234 11.6308C-0.240234 9.28619 1.46615 7.29942 3.7235 7.12828C3.92334 7.11313 4.12046 7.18196 4.26743 7.31821ZM19.7326 7.31821C19.8796 7.18196 20.0767 7.11313 20.2766 7.12828C22.5339 7.29942 24.2403 9.28619 24.2403 11.6308C24.2403 13.9679 22.5347 15.9621 20.2766 16.1333C20.0767 16.1484 19.8796 16.0796 19.7326 15.9434C19.5857 15.8071 19.5021 15.6158 19.5021 15.4153V7.84622C19.5021 7.64581 19.5857 7.45446 19.7326 7.31821ZM3.05793 8.74433C1.99157 9.16965 1.19977 10.2763 1.19977 11.6308C1.19977 12.9804 1.99193 14.09 3.05793 14.5167V8.74433ZM20.9421 8.74433V14.5167C22.0081 14.09 22.8003 12.9804 22.8003 11.6308C22.8003 10.2763 22.0085 9.16965 20.9421 8.74433ZM8.74109 14.1889C9.12403 14.0818 9.52131 14.3054 9.62844 14.6883C9.83138 15.4137 10.7353 16.1212 12.0067 16.1212C13.2763 16.1212 14.1749 15.4152 14.3783 14.6883C14.4854 14.3054 14.8827 14.0818 15.2656 14.1889C15.6486 14.2961 15.8722 14.6934 15.765 15.0763C15.3421 16.5882 13.7355 17.5612 12.0067 17.5612C10.2798 17.5612 8.66507 16.5897 8.24169 15.0763C8.13456 14.6934 8.35815 14.2961 8.74109 14.1889Z" fill="#E76100"/>
<path fill-rule="evenodd" clip-rule="evenodd" d="M12.0004 21.6523C11.5119 21.6523 11.108 22.0562 11.108 22.5447C11.108 23.0399 11.5052 23.4372 12.0004 23.4372C12.4937 23.4372 12.8928 23.0352 12.8928 22.5447C12.8928 22.0515 12.4909 21.6523 12.0004 21.6523ZM9.66797 22.5447C9.66797 21.2609 10.7166 20.2123 12.0004 20.2123C13.2823 20.2123 14.3328 21.2523 14.3328 22.5447C14.3328 23.8266 13.2928 24.8772 12.0004 24.8772C10.7099 24.8772 9.66797 23.8352 9.66797 22.5447Z" fill="#E76100"/>
<path fill-rule="evenodd" clip-rule="evenodd" d="M9.23135 3.26831C9.45876 3.23735 9.6873 3.31665 9.84664 3.48182C11.1753 4.85906 13.0427 5.7137 15.1053 5.7137C16.4165 5.7137 17.6474 5.3679 18.7086 4.7676C19.0547 4.57181 19.4939 4.69366 19.6897 5.03976C19.8855 5.38586 19.7637 5.82515 19.4176 6.02095C18.1467 6.73992 16.6724 7.1537 15.1053 7.1537C12.9671 7.1537 11.0024 6.38502 9.48178 5.10826C8.22158 6.94288 6.27705 8.27829 4.01501 8.73836C3.62534 8.81762 3.24521 8.56598 3.16595 8.17631C3.0867 7.78665 3.33834 7.40651 3.72801 7.32726C5.87262 6.89106 7.6817 5.50836 8.69553 3.63854C8.80492 3.43678 9.00395 3.29927 9.23135 3.26831Z" fill="#E76100"/>
</svg>
