<svg width="24" height="24" viewBox="0 0 24 24" fill="none" xmlns="http://www.w3.org/2000/svg">
<path d="M10.1461 3.24812C10.4433 2.51616 11.1614 2 12 2C12.8386 2 13.5567 2.51616 13.8539 3.24812C16.8202 4.06072 19 6.77579 19 10V14.6972L20.8321 17.4453C21.0366 17.7522 21.0557 18.1467 20.8817 18.4719C20.7077 18.797 20.3688 19 20 19H15.4646C15.2219 20.6961 13.7632 22 12 22C10.2368 22 8.77806 20.6961 8.53545 19H4C3.63121 19 3.29235 18.797 3.11833 18.4719C2.94431 18.1467 2.96338 17.7522 3.16795 17.4453L5 14.6972V10C5 6.77579 7.17983 4.06072 10.1461 3.24812ZM10.5854 19C10.7913 19.5826 11.3469 20 12 20C12.6531 20 13.2087 19.5826 13.4146 19H10.5854ZM12 5C9.23858 5 7 7.23858 7 10V15C7 15.1974 6.94156 15.3904 6.83205 15.5547L5.86852 17H18.1315L17.168 15.5547C17.0584 15.3904 17 15.1974 17 15V10C17 7.23858 14.7614 5 12 5Z" fill="#E76100"/>
<path d="M24 6C24 9.31371 21.3137 12 18 12C14.6863 12 12 9.31371 12 6C12 2.68629 14.6863 0 18 0C21.3137 0 24 2.68629 24 6Z" fill="#E76100"/>
<path fill-rule="evenodd" clip-rule="evenodd" d="M18 10C20.2091 10 22 8.20914 22 6C22 3.79086 20.2091 2 18 2C15.7909 2 14 3.79086 14 6C14 8.20914 15.7909 10 18 10ZM18 12C21.3137 12 24 9.31371 24 6C24 2.68629 21.3137 0 18 0C14.6863 0 12 2.68629 12 6C12 9.31371 14.6863 12 18 12Z" fill="#E76100"/>
</svg>
