<svg width="24" height="25" viewBox="0 0 24 25" fill="none" xmlns="http://www.w3.org/2000/svg">
<g clip-path="url(#clip0_982:7765)">
<path d="M15.0504 5.65356C16.0272 5.84413 16.9248 6.32182 17.6285 7.0255C18.3322 7.72918 18.8099 8.62683 19.0004 9.60356L15.0504 5.65356ZM15.0504 1.65356C17.0797 1.879 18.972 2.78774 20.4167 4.23057C21.8613 5.6734 22.7724 7.56457 23.0004 9.59356L15.0504 1.65356ZM22.0004 17.5736V20.5736C22.0016 20.8521 21.9445 21.1277 21.8329 21.3829C21.7214 21.6381 21.5577 21.8672 21.3525 22.0554C21.1473 22.2437 20.905 22.387 20.6412 22.4763C20.3773 22.5655 20.0978 22.5986 19.8204 22.5736C16.7433 22.2392 13.7874 21.1877 11.1904 19.5036C8.77425 17.9682 6.72576 15.9197 5.19042 13.5036C3.5004 10.8948 2.44866 7.92456 2.12042 4.83356C2.09543 4.55703 2.1283 4.27832 2.21692 4.01519C2.30555 3.75205 2.44799 3.51025 2.63519 3.30519C2.82238 3.10012 3.05023 2.93627 3.30421 2.82409C3.5582 2.7119 3.83276 2.65383 4.11042 2.65356H7.11042C7.59573 2.64879 8.06621 2.82064 8.43418 3.1371C8.80215 3.45355 9.0425 3.89301 9.11042 4.37356C9.23704 5.33363 9.47187 6.27629 9.81042 7.18356C9.94497 7.54149 9.97408 7.93048 9.89433 8.30444C9.81457 8.67841 9.62928 9.02168 9.36042 9.29356L8.09042 10.5636C9.51398 13.0671 11.5869 15.14 14.0904 16.5636L15.3604 15.2936C15.6323 15.0247 15.9756 14.8394 16.3495 14.7597C16.7235 14.6799 17.1125 14.709 17.4704 14.8436C18.3777 15.1821 19.3204 15.4169 20.2804 15.5436C20.7662 15.6121 21.2098 15.8568 21.527 16.2311C21.8441 16.6053 22.0126 17.0831 22.0004 17.5736Z" stroke="#E76100" stroke-width="2" stroke-linecap="round" stroke-linejoin="round"/>
</g>
<defs>
<clipPath id="clip0_982:7765">
<rect width="24" height="24" fill="white" transform="translate(0 0.653564)"/>
</clipPath>
</defs>
</svg>
