<svg width="24" height="24" viewBox="0 0 24 24" fill="none" xmlns="http://www.w3.org/2000/svg">
<path d="M15.5455 2H8.27273C7.01818 2 6 3.01818 6 4.27273V19.7273C6 20.9818 7.01818 22 8.27273 22H15.5455C16.8 22 17.8182 20.9818 17.8182 19.7273V4.27273C17.8182 3.01818 16.8 2 15.5455 2ZM11.9091 21.0909C11.1545 21.0909 10.5455 20.4818 10.5455 19.7273C10.5455 18.9727 11.1545 18.3636 11.9091 18.3636C12.6636 18.3636 13.2727 18.9727 13.2727 19.7273C13.2727 20.4818 12.6636 21.0909 11.9091 21.0909ZM16 17.4545H7.81818V4.72727H16V17.4545Z" fill="#E76100"/>
</svg>
