<svg width="24" height="24" viewBox="0 0 24 24" fill="none" xmlns="http://www.w3.org/2000/svg">
<path d="M16.4444 3.33333C17.9207 3.33333 19.397 3.85639 20.6416 4.82528C20.9129 5.03648 21.3028 5.03056 21.5459 4.78743V4.78743C21.7967 4.53664 21.7982 4.12776 21.5288 3.89713C20.0512 2.63238 18.2478 2 16.4444 2C14.6411 2 12.8377 2.63238 11.3601 3.89713C11.0907 4.12776 11.0922 4.53664 11.343 4.78744V4.78744C11.5861 5.03056 11.976 5.03648 12.2473 4.82528C13.4919 3.85639 14.9682 3.33333 16.4444 3.33333ZM13.2469 5.69326C12.9748 5.90876 12.9768 6.3101 13.2222 6.55556V6.55556C13.4677 6.80102 13.863 6.79554 14.146 6.59444C14.8349 6.10477 15.6397 5.88889 16.4444 5.88889C17.2492 5.88889 18.054 6.10477 18.7429 6.59444C19.0258 6.79554 19.4212 6.80102 19.6667 6.55556V6.55556C19.9121 6.3101 19.9141 5.90876 19.642 5.69326C18.7129 4.95759 17.5787 4.55556 16.4444 4.55556C15.3102 4.55556 14.176 4.95759 13.2469 5.69326ZM19.7778 13.1111H17.5556V9.77778C17.5556 9.16413 17.0581 8.66667 16.4444 8.66667V8.66667C15.8308 8.66667 15.3333 9.16413 15.3333 9.77778V13.1111H4.22222C3 13.1111 2 14.1111 2 15.3333V19.7778C2 21 3 22 4.22222 22H19.7778C21 22 22 21 22 19.7778V15.3333C22 14.1111 21 13.1111 19.7778 13.1111ZM19.7778 19.7778H4.22222V15.3333H19.7778V19.7778ZM5.33333 17.4444C5.33333 16.8922 5.78105 16.4444 6.33333 16.4444H6.55556C7.10784 16.4444 7.55556 16.8922 7.55556 17.4444V17.6667C7.55556 18.219 7.10784 18.6667 6.55556 18.6667H6.33333C5.78105 18.6667 5.33333 18.219 5.33333 17.6667V17.4444ZM9.22222 17.4444C9.22222 16.8922 9.66994 16.4444 10.2222 16.4444H10.4444C10.9967 16.4444 11.4444 16.8922 11.4444 17.4444V17.6667C11.4444 18.219 10.9967 18.6667 10.4444 18.6667H10.2222C9.66994 18.6667 9.22222 18.219 9.22222 17.6667V17.4444ZM13.1111 17.4444C13.1111 16.8922 13.5588 16.4444 14.1111 16.4444H14.3333C14.8856 16.4444 15.3333 16.8922 15.3333 17.4444V17.6667C15.3333 18.219 14.8856 18.6667 14.3333 18.6667H14.1111C13.5588 18.6667 13.1111 18.219 13.1111 17.6667V17.4444Z" fill="#E76100"/>
</svg>
