<svg width="24" height="24" viewBox="0 0 24 24" fill="none" xmlns="http://www.w3.org/2000/svg">
<path d="M6.6002 7.19995C6.83889 7.19995 7.06781 7.29477 7.23659 7.46355C7.40537 7.63234 7.5002 7.86126 7.5002 8.09995V15.9C7.5002 16.1386 7.40537 16.3676 7.23659 16.5363C7.06781 16.7051 6.83889 16.8 6.6002 16.8C6.3615 16.8 6.13258 16.7051 5.9638 16.5363C5.79502 16.3676 5.7002 16.1386 5.7002 15.9V8.09995C5.7002 7.86126 5.79502 7.63234 5.9638 7.46355C6.13258 7.29477 6.3615 7.19995 6.6002 7.19995ZM11.1002 8.09995C11.1002 7.86126 11.0054 7.63234 10.8366 7.46355C10.6678 7.29477 10.4389 7.19995 10.2002 7.19995C9.9615 7.19995 9.73258 7.29477 9.5638 7.46355C9.39502 7.63234 9.3002 7.86126 9.3002 8.09995V15.9C9.3002 16.1386 9.39502 16.3676 9.5638 16.5363C9.73258 16.7051 9.9615 16.8 10.2002 16.8C10.4389 16.8 10.6678 16.7051 10.8366 16.5363C11.0054 16.3676 11.1002 16.1386 11.1002 15.9V8.09995ZM13.8002 7.19995C14.0389 7.19995 14.2678 7.29477 14.4366 7.46355C14.6054 7.63234 14.7002 7.86126 14.7002 8.09995V15.9C14.7002 16.1386 14.6054 16.3676 14.4366 16.5363C14.2678 16.7051 14.0389 16.8 13.8002 16.8C13.5615 16.8 13.3326 16.7051 13.1638 16.5363C12.995 16.3676 12.9002 16.1386 12.9002 15.9V8.09995C12.9002 7.86126 12.995 7.63234 13.1638 7.46355C13.3326 7.29477 13.5615 7.19995 13.8002 7.19995ZM18.3002 8.09995C18.3002 7.86126 18.2054 7.63234 18.0366 7.46355C17.8678 7.29477 17.6389 7.19995 17.4002 7.19995C17.1615 7.19995 16.9326 7.29477 16.7638 7.46355C16.595 7.63234 16.5002 7.86126 16.5002 8.09995V15.9C16.5002 16.1386 16.595 16.3676 16.7638 16.5363C16.9326 16.7051 17.1615 16.8 17.4002 16.8C17.6389 16.8 17.8678 16.7051 18.0366 16.5363C18.2054 16.3676 18.3002 16.1386 18.3002 15.9V8.09995Z" fill="#E76100"/>
<path d="M21 7C20.45 7 20 6.55 20 6V4H18C17.45 4 17 3.55 17 3C17 2.45 17.45 2 18 2H21C21.55 2 22 2.45 22 3V6C22 6.55 21.55 7 21 7ZM22 21V18C22 17.45 21.55 17 21 17C20.45 17 20 17.45 20 18V20H18C17.45 20 17 20.45 17 21C17 21.55 17.45 22 18 22H21C21.55 22 22 21.55 22 21ZM3 22H6C6.55 22 7 21.55 7 21C7 20.45 6.55 20 6 20H4V18C4 17.45 3.55 17 3 17C2.45 17 2 17.45 2 18V21C2 21.55 2.45 22 3 22ZM2 3V6C2 6.55 2.45 7 3 7C3.55 7 4 6.55 4 6V4H6C6.55 4 7 3.55 7 3C7 2.45 6.55 2 6 2H3C2.45 2 2 2.45 2 3Z" fill="#E76100"/>
</svg>
