<svg width="24" height="25" viewBox="0 0 24 25" fill="none" xmlns="http://www.w3.org/2000/svg">
<path d="M6 2.65356L3 6.65356V20.6536C3 21.184 3.21071 21.6927 3.58579 22.0678C3.96086 22.4429 4.46957 22.6536 5 22.6536H19C19.5304 22.6536 20.0391 22.4429 20.4142 22.0678C20.7893 21.6927 21 21.184 21 20.6536V6.65356L18 2.65356H6Z" stroke="#E76100" stroke-width="2" stroke-linecap="round" stroke-linejoin="round"/>
<path d="M3 6.65356H21" stroke="#E76100" stroke-width="2" stroke-linecap="round" stroke-linejoin="round"/>
<path d="M16 10.6536C16 11.7144 15.5786 12.7318 14.8284 13.482C14.0783 14.2321 13.0609 14.6536 12 14.6536C10.9391 14.6536 9.92172 14.2321 9.17157 13.482C8.42143 12.7318 8 11.7144 8 10.6536" stroke="#E76100" stroke-width="2" stroke-linecap="round" stroke-linejoin="round"/>
</svg>
