<svg width="24" height="25" viewBox="0 0 24 25" fill="none" xmlns="http://www.w3.org/2000/svg">
<path d="M17 2.65356H19.67C20.236 2.64355 20.7859 2.84169 21.2154 3.21038C21.645 3.57906 21.9242 4.09262 22 4.65356V11.6536C21.9242 12.2145 21.645 12.7281 21.2154 13.0967C20.7859 13.4654 20.236 13.6636 19.67 13.6536H17M10 15.6536V19.6536C10 20.4492 10.3161 21.2123 10.8787 21.7749C11.4413 22.3375 12.2044 22.6536 13 22.6536L17 13.6536V2.65356H5.72003C5.2377 2.64811 4.76965 2.81715 4.40212 3.12955C4.0346 3.44195 3.79235 3.87665 3.72003 4.35356L2.34003 13.3536C2.29652 13.6402 2.31586 13.9329 2.39669 14.2113C2.47753 14.4897 2.61793 14.7473 2.80817 14.966C2.99842 15.1848 3.23395 15.3596 3.49846 15.4783C3.76297 15.5971 4.05012 15.6568 4.34003 15.6536H10Z" stroke="#E76100" stroke-width="2" stroke-linecap="round" stroke-linejoin="round"/>
</svg>
