<svg width="24" height="25" viewBox="0 0 24 25" fill="none" xmlns="http://www.w3.org/2000/svg">
<path d="M7 22.6536H4C3.46957 22.6536 2.96086 22.4429 2.58579 22.0678C2.21071 21.6927 2 21.184 2 20.6536V13.6536C2 13.1231 2.21071 12.6144 2.58579 12.2394C2.96086 11.8643 3.46957 11.6536 4 11.6536H7M14 9.65356V5.65356C14 4.85791 13.6839 4.09485 13.1213 3.53224C12.5587 2.96964 11.7956 2.65356 11 2.65356L7 11.6536V22.6536H18.28C18.7623 22.659 19.2304 22.49 19.5979 22.1776C19.9654 21.8652 20.2077 21.4305 20.28 20.9536L21.66 11.9536C21.7035 11.6669 21.6842 11.3742 21.6033 11.0958C21.5225 10.8174 21.3821 10.5599 21.1919 10.3411C21.0016 10.1223 20.7661 9.9475 20.5016 9.82878C20.2371 9.71007 19.9499 9.65028 19.66 9.65356H14Z" stroke="#E76100" stroke-width="2" stroke-linecap="round" stroke-linejoin="round"/>
</svg>
