<svg width="32" height="20" viewBox="0 0 32 20" fill="none" xmlns="http://www.w3.org/2000/svg">
<path d="M30 0H2C1.47 0 0.96 0.21 0.59 0.59C0.21 0.96 0 1.47 0 2V18C0 18.53 0.21 19.04 0.59 19.41C0.96 19.79 1.47 20 2 20H30C30.53 20 31.04 19.79 31.41 19.41C31.79 19.04 32 18.53 32 18V2C32 1.47 31.79 0.96 31.41 0.59C31.04 0.21 30.53 0 30 0ZM30 6C28.98 5.92 28.02 5.47 27.3 4.73C26.58 4 26.16 3.03 26.1 2H30V6ZM30 7.62V12.45C28.56 12.54 27.2 13.15 26.19 14.17C25.17 15.19 24.57 16.56 24.49 18H7.49C7.42 16.56 6.82 15.2 5.8 14.17C4.79 13.14 3.43 12.53 2 12.44V7.6C3.45 7.51 4.81 6.89 5.83 5.86C6.85 4.82 7.45 3.45 7.51 2H24.51C24.57 3.45 25.17 4.82 26.18 5.85C27.2 6.88 28.56 7.51 30 7.6V7.62ZM5.9 2C5.84 3.03 5.42 4 4.7 4.73C3.98 5.47 3.02 5.92 2 6V2H5.9ZM2 14.06C3.01 14.14 3.97 14.58 4.68 15.31C5.4 16.03 5.83 16.99 5.9 18H2V14.06ZM26.1 18C26.17 16.99 26.6 16.03 27.32 15.31C28.04 14.59 28.99 14.14 30 14.06V18H26.1Z" fill="#E76100"/>
<path d="M16.3202 5.80005C16.9902 5.80005 17.5402 6.35005 17.5402 7.02005V14.2H16.3502V6.85005H14.4502V5.80005H16.3202Z" fill="#E76100" stroke="#E76100" stroke-width="0.75" stroke-miterlimit="10"/>
</svg>
