<svg width="24" height="26" viewBox="0 0 24 26" fill="none" xmlns="http://www.w3.org/2000/svg">
<g clip-path="url(#clip0_982:7754)">
<path d="M11.9999 2.54224C18.341 2.54224 23.4828 7.10956 23.4828 12.7541C23.4828 12.9336 23.4756 13.1132 23.4684 13.2927C23.0376 11.7774 21.5223 10.65 19.6552 10.65C17.7808 10.65 16.3589 11.8564 15.9927 13.4579C15.6336 11.8564 13.8383 10.65 11.9352 10.65C10.025 10.65 8.43792 11.8564 8.07886 13.4579C7.71979 11.8564 6.12554 10.65 4.22248 10.65C2.52769 10.65 1.08424 11.5979 0.53128 12.9336C0.53128 12.8762 0.53128 12.8115 0.53128 12.7541C0.516917 7.11674 5.65875 2.54224 11.9999 2.54224Z" stroke="#E76100" stroke-width="1.44" stroke-miterlimit="22.9256" stroke-linecap="round" stroke-linejoin="round"/>
<path d="M12 0.51709V2.45605" stroke="#E76100" stroke-width="1.44" stroke-miterlimit="22.9256" stroke-linecap="round" stroke-linejoin="round"/>
<path d="M11.9998 10.7217V21.9317C11.9998 23.2675 10.8795 24.7899 9.51501 24.7899C8.15056 24.7899 7.03027 23.2746 7.03027 21.9317V21.0269" stroke="#E76100" stroke-width="1.44" stroke-miterlimit="22.9256" stroke-linecap="round" stroke-linejoin="round"/>
<path d="M8.01465 12.9336C8.01465 12.8762 8.01465 12.8115 8.01465 12.7541C8.01465 7.11674 9.78844 2.54224 11.9859 2.54224C14.1762 2.54224 15.9572 7.10956 15.9572 12.7541C15.9572 12.9336 15.9572 13.1132 15.95 13.2927" stroke="#E76100" stroke-width="1.44" stroke-miterlimit="22.9256" stroke-linecap="round" stroke-linejoin="round"/>
</g>
<defs>
<clipPath id="clip0_982:7754">
<rect width="24" height="25.307" fill="white"/>
</clipPath>
</defs>
</svg>
