<svg width="24" height="24" viewBox="0 0 24 24" fill="none" xmlns="http://www.w3.org/2000/svg">
<path fill-rule="evenodd" clip-rule="evenodd" d="M13.7695 3.2156C13.0197 1.79092 10.9797 1.79093 10.2298 3.2156L1.88621 19.0685C1.18525 20.4003 2.15103 22 3.65605 22H20.3433C21.8483 22 22.8141 20.4003 22.1132 19.0685L13.7695 3.2156ZM10.9996 13C10.9996 13.5523 11.4473 14 11.9996 14C12.5519 14 12.9996 13.5523 12.9996 13V10C12.9996 9.44772 12.5519 9 11.9996 9C11.4473 9 10.9996 9.44772 10.9996 10V13ZM11.9996 15C11.1712 15 10.4996 15.6716 10.4996 16.5C10.4996 17.3284 11.1712 18 11.9996 18C12.8281 18 13.4996 17.3284 13.4996 16.5C13.4996 15.6716 12.8281 15 11.9996 15Z" fill="#E76100"/>
</svg>
