<svg width="24" height="24" viewBox="0 0 24 24" fill="none" xmlns="http://www.w3.org/2000/svg">
<path d="M11.9997 14C11.4474 14 10.9997 13.5523 10.9997 13V10C10.9997 9.44772 11.4474 9 11.9997 9C12.552 9 12.9997 9.44772 12.9997 10V13C12.9997 13.5523 12.552 14 11.9997 14Z" fill="#E76100"/>
<path d="M10.4997 16.5C10.4997 15.6716 11.1713 15 11.9997 15C12.8281 15 13.4997 15.6716 13.4997 16.5C13.4997 17.3284 12.8281 18 11.9997 18C11.1713 18 10.4997 17.3284 10.4997 16.5Z" fill="#E76100"/>
<path d="M10.2298 3.2156C10.9797 1.79093 13.0197 1.79092 13.7695 3.2156L22.1132 19.0685C22.8141 20.4003 21.8483 22 20.3433 22H3.65605C2.15103 22 1.18525 20.4003 1.88621 19.0685L10.2298 3.2156ZM20.3433 20L11.9997 4.1471L3.65605 20L20.3433 20Z" fill="#E76100"/>
</svg>
