<svg width="24" height="24" viewBox="0 0 24 24" fill="none" xmlns="http://www.w3.org/2000/svg">
<path fill-rule="evenodd" clip-rule="evenodd" d="M3.7024 16.6961L2.34473 21.654L7.41781 20.3237C8.81548 21.0855 10.3893 21.4875 11.9908 21.4881H11.9951C17.2691 21.4881 21.5622 17.1959 21.5645 11.9206C21.5654 9.36429 20.571 6.96051 18.764 5.15213C16.9576 3.34375 14.5547 2.34737 11.9946 2.34625C6.71992 2.34625 2.42696 6.63794 2.42489 11.9131C2.42441 13.5991 2.86475 15.2452 3.7024 16.6961ZM8.96132 7.33902C9.1379 7.34619 9.33329 7.35447 9.5188 7.76693C9.64504 8.04794 9.85727 8.57077 10.027 8.98893C10.1532 9.29979 10.2559 9.55279 10.2823 9.60559C10.3442 9.72959 10.3855 9.87414 10.3029 10.0396C10.2203 10.2047 9.88423 10.6428 9.6839 10.8865C9.67322 10.8995 9.66226 10.9123 9.65129 10.9252C9.54804 11.0464 9.44453 11.1679 9.57506 11.3918C9.7196 11.6398 10.2168 12.4507 10.9531 13.1071C11.7443 13.8127 12.4317 14.111 12.7806 14.2625C12.849 14.2921 12.9043 14.3162 12.9449 14.3365C13.1926 14.4605 13.3371 14.4398 13.4817 14.2742C13.6262 14.1091 14.1005 13.5513 14.2658 13.3036C14.4309 13.0557 14.596 13.0968 14.8231 13.1795C15.0502 13.2621 16.268 13.8614 16.5156 13.9853C16.5639 14.0094 16.609 14.0312 16.6508 14.0514C16.8237 14.1348 16.9405 14.1912 16.9904 14.2742C17.0524 14.378 17.0524 14.8736 16.8458 15.452C16.6395 16.0303 15.6283 16.5883 15.174 16.6296C15.1303 16.6335 15.0869 16.6387 15.0422 16.6439C14.6225 16.6933 14.0928 16.7556 12.2018 16.0098C9.87452 15.0919 8.34014 12.8171 8.02365 12.3479C7.99777 12.3095 7.98004 12.2833 7.97068 12.2708L7.96818 12.2674C7.83543 12.0901 6.95915 10.9199 6.95915 9.70887C6.95915 8.56803 7.52 7.97003 7.77797 7.69498C7.79558 7.6762 7.81177 7.65893 7.82629 7.6431C8.05323 7.39527 8.32161 7.33312 8.48672 7.33312L8.50975 7.33312C8.66701 7.3331 8.82365 7.33309 8.96132 7.33902Z" fill="#E76100"/>
</svg>
