<svg width="24" height="24" viewBox="0 0 24 24" fill="none" xmlns="http://www.w3.org/2000/svg">
<path d="M2.40569 10.5562C2.8978 11.062 3.6794 11.1116 4.21011 10.6554C8.71633 6.84711 15.2585 6.84711 19.7744 10.6455C20.3148 11.1017 21.106 11.062 21.5981 10.5562C22.1674 9.97107 22.1288 8.99917 21.5016 8.47355C15.9919 3.84215 8.02158 3.84215 2.50218 8.47355C1.87498 8.98926 1.82673 9.96116 2.40569 10.5562V10.5562ZM9.89354 18.2521L11.312 19.7099C11.6883 20.0967 12.2962 20.0967 12.6725 19.7099L14.091 18.2521C14.5445 17.7859 14.448 16.9826 13.869 16.6752C12.6918 16.0504 11.283 16.0504 10.0962 16.6752C9.54616 16.9826 9.44002 17.7859 9.89354 18.2521ZM6.29435 14.5529C6.76717 15.0388 7.51016 15.0884 8.06017 14.6818C10.4146 12.9661 13.5796 12.9661 15.934 14.6818C16.484 15.0785 17.227 15.0388 17.6998 14.5529L17.7095 14.543C18.2884 13.9479 18.2498 12.9364 17.584 12.4504C14.2647 9.98099 9.73915 9.98099 6.41015 12.4504C5.74434 12.9463 5.70575 13.9479 6.29435 14.5529V14.5529Z" fill="#E76100"/>
</svg>
